{
DisplayStrings = (
"'",
",",
.,
":",
";",
"?",
"()*+,-.1234567:;<=>?@",
"!",
"\U00BF",
"\U00A1",
/ellipsis,
"\U00B7",
/dotaccent,
/quotedblleft,
/quotedblright,
/quoteleft,
/quoteright
);
copyright = "Made by Hank Gillette. PC version created with Fontographer 3.2.";
customParameters = (
{
name = vendorID;
value = Alts;
},
{
name = glyphOrder;
value = (
    ".notdef",
    uni0000,
    uni000D,
    space,
    exclam,
    quotedbl,
    numbersign,
    dollar,
    percent,
    ampersand,
    quotesingle,
    parenleft,
    parenright,
    asterisk,
    plus,
    comma,
    hyphen,
    period,
    slash,
    zero,
    one,
    two,
    three,
    four,
    five,
    six,
    seven,
    eight,
    nine,
    colon,
    semicolon,
    less,
    equal,
    greater,
    question,
    at,
    A,
    B,
    C,
    D,
    E,
    F,
    G,
    H,
    I,
    J,
    K,
    L,
    M,
    N,
    O,
    P,
    Q,
    R,
    S,
    T,
    U,
    V,
    W,
    X,
    Y,
    Z,
    bracketleft,
    backslash,
    bracketright,
    asciicircum,
    underscore,
    grave,
    a,
    b,
    c,
    d,
    e,
    f,
    g,
    h,
    i,
    j,
    k,
    l,
    m,
    n,
    o,
    p,
    q,
    r,
    s,
    t,
    u,
    v,
    w,
    x,
    y,
    z,
    braceleft,
    bar,
    braceright,
    asciitilde,
    dagger,
    degree,
    cent,
    sterling,
    section,
    bullet,
    paragraph,
    registered,
    copyright,
    trademark,
    acute,
    dieresis,
    notequal,
    AE,
    Oslash,
    infinity,
    plusminus,
    lessequal,
    greaterequal,
    yen,
    integral,
    ordfeminine,
    ordmasculine,
    ae,
    oslash,
    questiondown,
    exclamdown,
    logicalnot,
    florin,
    approxequal,
    guillemotleft,
    guillemotright,
    ellipsis,
    uni00A0,
    OE,
    oe,
    endash,
    emdash,
    quotedblleft,
    quotedblright,
    quoteleft,
    quoteright,
    divide,
    lozenge,
    fraction,
    currency,
    guilsinglleft,
    guilsinglright,
    fi,
    fl,

glyphs = (
{
glyphname = .notdef;
layers = (
{
layerId = "D726C5A3-D46C-4129-9A2C-DE910460F002";
name = Light;
paths = (
{
closed = 1;
nodes = (
"48 0 LINE",
"48 773 LINE",
"725 773 LINE",
"725 0 LINE"
);
},
{
closed = 1;
nodes = (
"677 48 LINE",
"677 725 LINE",
"96 725 LINE",
"96 48 LINE"
);
}
);
width = 773;
}
);
},
{
glyphname = exclam;
lastChange = "2014-02-11 18:38:19 -0800";
layers = (
{
layerId = "D726C5A3-D46C-4129-9A2C-DE910460F002";
name = Light;
paths = (
{
closed = 1;
nodes = (
"80 640 LINE SMOOTH",
"80 647 OFFCURVE",
"84 651 OFFCURVE",
"91 651 CURVE SMOOTH",
"98 651 OFFCURVE",
"102 647 OFFCURVE",
"102 640 CURVE SMOOTH",
"102 208 LINE SMOOTH",
"102 201 OFFCURVE",
"98 197 OFFCURVE",
"91 197 CURVE SMOOTH",
"84 197 OFFCURVE",
"80 201 OFFCURVE",
"80 208 CURVE SMOOTH"
);
},
{
closed = 1;
nodes = (
"66 60 OFFCURVE",
"78 75 OFFCURVE",
"94 75 CURVE SMOOTH",
"110 75 OFFCURVE",
"121 56 OFFCURVE",
"121 35 CURVE SMOOTH",
"121 16 OFFCURVE",
"108 0 OFFCURVE",
"91 0 CURVE SMOOTH",
"77 0 OFFCURVE",
"66 18 OFFCURVE",
"66 38 CURVE SMOOTH"
);
}
);
width = 183;
}
);
unicode = 0021;
},
{
glyphname = quotedbl;
layers = (
{
layerId = "D726C5A3-D46C-4129-9A2C-DE910460F002";
name = Light;
paths = (
{
closed = 1;
nodes = (
"197 637 LINE SMOOTH",
"197 644 OFFCURVE",
"201 648 OFFCURVE",
"208 648 CURVE SMOOTH",
"215 648 OFFCURVE",
"219 644 OFFCURVE",
"219 637 CURVE SMOOTH",
"219 438 LINE SMOOTH",
"219 431 OFFCURVE",
"215 427 OFFCURVE",
"208 427 CURVE SMOOTH",
"201 427 OFFCURVE",
"197 431 OFFCURVE",
"197 438 CURVE SMOOTH"
);
},
{
closed = 1;
nodes = (
"47 637 LINE SMOOTH",
"47 644 OFFCURVE",
"51 648 OFFCURVE",
"58 648 CURVE SMOOTH",
"65 648 OFFCURVE",
"69 644 OFFCURVE",
"69 637 CURVE SMOOTH",
"69 438 LINE SMOOTH",
"69 431 OFFCURVE",
"65 427 OFFCURVE",
"58 427 CURVE SMOOTH",
"51 427 OFFCURVE",
"47 431 OFFCURVE",
"47 438 CURVE SMOOTH"
);
}
);
width = 259;
}
);
unicode = 0022;
},
{
glyphname = numbersign;
layers = (
{
layerId = "D726C5A3-D46C-4129-9A2C-DE910460F002";
name = Light;
paths = (
{
closed = 1;
nodes = (
"263 495 LINE",
"319 645 LINE SMOOTH",
"321 650 OFFCURVE",
"324 652 OFFCURVE",
"329 652 CURVE SMOOTH",
"336 652 OFFCURVE",
"343 646 OFFCURVE",
"340 638 CURVE SMOOTH",
"286 495 LINE",
"418 495 LINE",
"475 645 LINE SMOOTH",
"477 650 OFFCURVE",
"480 652 OFFCURVE",
"484 652 CURVE SMOOTH",
"491 652 OFFCURVE",
"498 646 OFFCURVE",
"495 638 CURVE SMOOTH",
"441 495 LINE",
"571 495 LINE SMOOTH",
"578 495 OFFCURVE",
"582 491 OFFCURVE",
"582 484 CURVE SMOOTH",
"582 477 OFFCURVE",
"578 473 OFFCURVE",
"571 473 CURVE SMOOTH",
"433 473 LINE",
"354 262 LINE",
"490 262 LINE SMOOTH",
"497 262 OFFCURVE",
"501 258 OFFCURVE",
"501 251 CURVE SMOOTH",
"501 244 OFFCURVE",
"497 240 OFFCURVE",
"490 240 CURVE SMOOTH",
"345 240 LINE",
"254 -5 LINE SMOOTH",
"252 -10 OFFCURVE",
"249 -12 OFFCURVE",
"244 -12 CURVE SMOOTH",
"237 -12 OFFCURVE",
"231 -5 OFFCURVE",
"234 3 CURVE SMOOTH",
"322 240 LINE",
"190 240 LINE",
"99 -5 LINE SMOOTH",
"97 -10 OFFCURVE",
"94 -12 OFFCURVE",
"89 -12 CURVE SMOOTH",
"82 -12 OFFCURVE",
"75 -5 OFFCURVE",
"78 3 CURVE SMOOTH",
"167 240 LINE",
"42 240 LINE SMOOTH",
"35 240 OFFCURVE",
"31 244 OFFCURVE",
"31 251 CURVE SMOOTH",
"31 258 OFFCURVE",
"35 262 OFFCURVE",
"42 262 CURVE SMOOTH",
"175 262 LINE",
"255 473 LINE",
"122 473 LINE SMOOTH",
"115 473 OFFCURVE",
"111 477 OFFCURVE",
"111 484 CURVE SMOOTH",
"111 491 OFFCURVE",
"115 495 OFFCURVE",
"122 495 CURVE SMOOTH"
);
},
{
closed = 1;
nodes = (
"410 473 LINE",
"278 473 LINE",
"199 262 LINE",
"331 262 LINE"
);
}
);
width = 613;
}
);
unicode = 0023;
},
{
glyphname = dollar;
layers = (
{
layerId = "D726C5A3-D46C-4129-9A2C-DE910460F002";
name = Light;
paths = (
{
closed = 1;
nodes = (
"235 681 LINE SMOOTH",
"235 688 OFFCURVE",
"239 692 OFFCURVE",
"247 692 CURVE SMOOTH",
"254 692 OFFCURVE",
"258 688 OFFCURVE",
"258 681 CURVE SMOOTH",
"258 -66 LINE SMOOTH",
"258 -73 OFFCURVE",
"254 -77 OFFCURVE",
"247 -77 CURVE SMOOTH",
"239 -77 OFFCURVE",
"235 -73 OFFCURVE",
"235 -66 CURVE SMOOTH"
);
},
{
closed = 1;
nodes = (
"380 528 OFFCURVE",
"382 525 OFFCURVE",
"382 521 CURVE SMOOTH",
"382 516 OFFCURVE",
"377 504 OFFCURVE",
"366 512 CURVE",
"315 544 OFFCURVE",
"269 557 OFFCURVE",
"225 557 CURVE SMOOTH",
"122 557 OFFCURVE",
"54 465 OFFCURVE",
"54 378 CURVE SMOOTH",
"54 330 OFFCURVE",
"75 299 OFFCURVE",
"118 299 CURVE SMOOTH",
"143 299 OFFCURVE",
"178 313 OFFCURVE",
"218 342 CURVE",
"269 373 OFFCURVE",
"308 385 OFFCURVE",
"341 385 CURVE SMOOTH",
"400 385 OFFCURVE",
"429 340 OFFCURVE",
"429 275 CURVE SMOOTH",
"429 162 OFFCURVE",
"345 35 OFFCURVE",
"232 35 CURVE SMOOTH",
"173 35 OFFCURVE",
"114 62 OFFCURVE",
"47 131 CURVE",
"40 139 OFFCURVE",
"48 149 OFFCURVE",
"57 149 CURVE SMOOTH",
"60 149 OFFCURVE",
"69 141 OFFCURVE",
"85 124 CURVE SMOOTH",
"116 91 OFFCURVE",
"184 55 OFFCURVE",
"233 55 CURVE SMOOTH",
"333 55 OFFCURVE",
"407 173 OFFCURVE",
"407 277 CURVE SMOOTH",
"407 332 OFFCURVE",
"384 369 OFFCURVE",
"339 369 CURVE SMOOTH",
"310 369 OFFCURVE",
"276 356 OFFCURVE",
"231 323 CURVE",
"183 294 OFFCURVE",
"144 282 OFFCURVE",
"111 282 CURVE SMOOTH",
"59 282 OFFCURVE",
"31 320 OFFCURVE",
"31 375 CURVE SMOOTH",
"31 472 OFFCURVE",
"112 578 OFFCURVE",
"229 578 CURVE SMOOTH",
"274 578 OFFCURVE",
"324 563 OFFCURVE",
"377 530 CURVE SMOOTH"
);
}
);
width = 475;
}
);
unicode = 0024;
},
{
glyphname = percent;
layers = (
{
layerId = "D726C5A3-D46C-4129-9A2C-DE910460F002";
name = Light;
paths = (
{
closed = 1;
nodes = (
"358 655 LINE",
"360 660 OFFCURVE",
"363 662 OFFCURVE",
"367 662 CURVE SMOOTH",
"374 662 OFFCURVE",
"380 655 OFFCURVE",
"379 647 CURVE",
"174 -4 LINE",
"173 -9 OFFCURVE",
"170 -11 OFFCURVE",
"165 -11 CURVE SMOOTH",
"158 -11 OFFCURVE",
"152 -4 OFFCURVE",
"153 4 CURVE"
);
},
{
closed = 1;
nodes = (
"209 445 OFFCURVE",
"164 407 OFFCURVE",
"115 407 CURVE SMOOTH",
"88 407 OFFCURVE",
"53 421 OFFCURVE",
"35 456 CURVE SMOOTH",
"26 473 OFFCURVE",
"21 493 OFFCURVE",
"21 514 CURVE SMOOTH",
"21 538 OFFCURVE",
"27 563 OFFCURVE",
"45 598 CURVE SMOOTH",
"63 633 OFFCURVE",
"105 670 OFFCURVE",
"152 670 CURVE SMOOTH",
"176 670 OFFCURVE",
"212 659 OFFCURVE",
"232 623 CURVE SMOOTH",
"242 604 OFFCURVE",
"247 584 OFFCURVE",
"247 562 CURVE SMOOTH",
"247 539 OFFCURVE",
"241 515 OFFCURVE",
"232 494 CURVE SMOOTH"
);
},
{
closed = 1;
nodes = (
"497 24 OFFCURVE",
"452 -14 OFFCURVE",
"403 -14 CURVE SMOOTH",
"376 -14 OFFCURVE",
"341 0 OFFCURVE",
"323 35 CURVE SMOOTH",
"314 52 OFFCURVE",
"309 72 OFFCURVE",
"309 93 CURVE SMOOTH",
"309 117 OFFCURVE",
"315 142 OFFCURVE",
"333 177 CURVE SMOOTH",
"351 212 OFFCURVE",
"393 249 OFFCURVE",
"440 249 CURVE SMOOTH",
"465 249 OFFCURVE",
"501 238 OFFCURVE",
"521 202 CURVE",
"530 183 OFFCURVE",
"535 163 OFFCURVE",
"535 141 CURVE SMOOTH",
"535 118 OFFCURVE",
"529 94 OFFCURVE",
"520 73 CURVE SMOOTH"
);
},
{
closed = 1;
nodes = (
"220 521 OFFCURVE",
"224 541 OFFCURVE",
"224 562 CURVE SMOOTH",
"224 603 OFFCURVE",
"215 628 OFFCURVE",
"198 635 CURVE SMOOTH",
"180 642 OFFCURVE",
"168 646 OFFCURVE",
"162 647 CURVE SMOOTH",
"156 648 OFFCURVE",
"153 648 OFFCURVE",
"152 648 CURVE SMOOTH",
"116 648 OFFCURVE",
"80 619 OFFCURVE",
"59 579 CURVE SMOOTH",
"48 559 OFFCURVE",
"43 537 OFFCURVE",
"43 513 CURVE SMOOTH",
"43 437 OFFCURVE",
"92 430 OFFCURVE",
"115 430 CURVE SMOOTH",
"152 430 OFFCURVE",
"192 462 OFFCURVE",
"211 503 CURVE SMOOTH"
);
},
{
closed = 1;
nodes = (
"509 99 OFFCURVE",
"513 119 OFFCURVE",
"513 141 CURVE SMOOTH",
"513 178 OFFCURVE",
"495 210 OFFCURVE",
"475 219 CURVE",
"464 223 OFFCURVE",
"456 225 OFFCURVE",
"450 226 CURVE SMOOTH",
"444 227 OFFCURVE",
"441 227 OFFCURVE",
"440 227 CURVE SMOOTH",
"404 227 OFFCURVE",
"368 198 OFFCURVE",
"347 158 CURVE SMOOTH",
"336 138 OFFCURVE",
"331 116 OFFCURVE",
"331 92 CURVE SMOOTH",
"331 16 OFFCURVE",
"380 9 OFFCURVE",
"403 9 CURVE SMOOTH",
"442 9 OFFCURVE",
"480 39 OFFCURVE",
"500 82 CURVE"
);
}
);
width = 608;
}
);
unicode = 0025;
},
{
glyphname = ampersand;
layers = (
{
layerId = "D726C5A3-D46C-4129-9A2C-DE910460F002";
name = Light;
paths = (
{
closed = 1;
nodes = (
"518 79 LINE",
"520 82 OFFCURVE",
"523 83 OFFCURVE",
"526 83 CURVE SMOOTH",
"534 83 OFFCURVE",
"542 73 OFFCURVE",
"535 65 CURVE SMOOTH",
"488 12 LINE",
"470 13 LINE",
"469 13 OFFCURVE",
"450 41 OFFCURVE",
"413 98 CURVE SMOOTH",
"338 210 OFFCURVE",
"238 366 OFFCURVE",
"209 421 CURVE",
"211 419 LINE",
"178 459 OFFCURVE",
"161 503 OFFCURVE",
"161 536 CURVE SMOOTH",
"161 609 OFFCURVE",
"230 662 OFFCURVE",
"299 662 CURVE SMOOTH",
"351 662 OFFCURVE",
"388 632 OFFCURVE",
"388 571 CURVE SMOOTH",
"388 472 OFFCURVE",
"249 423 OFFCURVE",
"142 370 CURVE",
"84 330 OFFCURVE",
"55 275 OFFCURVE",
"55 205 CURVE SMOOTH",
"55 72 OFFCURVE",
"92 14 OFFCURVE",
"155 14 CURVE SMOOTH",
"254 14 OFFCURVE",
"421 193 OFFCURVE",
"449 257 CURVE SMOOTH",
"462 288 OFFCURVE",
"471 304 OFFCURVE",
"475 304 CURVE SMOOTH",
"483 304 OFFCURVE",
"490 298 OFFCURVE",
"487 289 CURVE",
"439 172 OFFCURVE",
"258 -8 OFFCURVE",
"147 -8 CURVE SMOOTH",
"76 -8 OFFCURVE",
"33 54 OFFCURVE",
"33 205 CURVE SMOOTH",
"33 361 OFFCURVE",
"99 384 OFFCURVE",
"252 458 CURVE SMOOTH",
"328 495 OFFCURVE",
"366 532 OFFCURVE",
"366 571 CURVE SMOOTH",
"366 618 OFFCURVE",
"335 641 OFFCURVE",
"295 641 CURVE SMOOTH",
"239 641 OFFCURVE",
"181 597 OFFCURVE",
"181 537 CURVE SMOOTH",
"181 505 OFFCURVE",
"195 473 OFFCURVE",
"227 434 CURVE",
"229 432 LINE",
"257 379 OFFCURVE",
"359 221 OFFCURVE",
"480 38 CURVE"
);
}
);
width = 584;
}
);
unicode = 0026;
},
{
glyphname = quotesingle;
lastChange = "2014-02-11 19:28:12 -0800";
layers = (
{
layerId = "D726C5A3-D46C-4129-9A2C-DE910460F002";
name = Light;
paths = (
{
closed = 1;
nodes = (
"100 638 LINE SMOOTH",
"102 645 OFFCURVE",
"106 648 OFFCURVE",
"113 646 CURVE SMOOTH",
"120 645 OFFCURVE",
"123 639 OFFCURVE",
"121 633 CURVE SMOOTH",
"70 434 LINE SMOOTH",
"69 427 OFFCURVE",
"64 425 OFFCURVE",
"57 426 CURVE SMOOTH",
"50 428 OFFCURVE",
"48 432 OFFCURVE",
"50 439 CURVE SMOOTH"
);
}
);
width = 106;
}
);
unicode = 0027;
},
{
glyphname = parenleft;
layers = (
{
layerId = "D726C5A3-D46C-4129-9A2C-DE910460F002";
name = Light;
paths = (
{
closed = 1;
nodes = (
"246 653 OFFCURVE",
"249 654 OFFCURVE",
"252 654 CURVE SMOOTH",
"259 654 OFFCURVE",
"263 650 OFFCURVE",
"263 642 CURVE SMOOTH",
"263 639 OFFCURVE",
"248 621 OFFCURVE",
"219 587 CURVE SMOOTH",
"160 519 OFFCURVE",
"102 391 OFFCURVE",
"102 222 CURVE SMOOTH",
"102 42 OFFCURVE",
"143 -73 OFFCURVE",
"260 -206 CURVE",
"268 -214 OFFCURVE",
"260 -225 OFFCURVE",
"251 -225 CURVE SMOOTH",
"248 -225 OFFCURVE",
"232 -208 OFFCURVE",
"201 -173 CURVE SMOOTH",
"140 -104 OFFCURVE",
"80 38 OFFCURVE",
"80 222 CURVE SMOOTH",
"80 398 OFFCURVE",
"125 514 OFFCURVE",
"244 650 CURVE"
);
}
);
width = 307;
}
);
unicode = 0028;
},
{
glyphname = parenright;
layers = (
{
layerId = "D726C5A3-D46C-4129-9A2C-DE910460F002";
name = Light;
paths = (
{
closed = 1;
nodes = (
"34 643 OFFCURVE",
"42 654 OFFCURVE",
"51 654 CURVE SMOOTH",
"54 654 OFFCURVE",
"70 637 OFFCURVE",
"100 602 CURVE SMOOTH",
"160 533 OFFCURVE",
"222 397 OFFCURVE",
"222 222 CURVE SMOOTH",
"222 35 OFFCURVE",
"165 -101 OFFCURVE",
"102 -172 CURVE SMOOTH",
"71 -207 OFFCURVE",
"53 -225 OFFCURVE",
"50 -225 CURVE SMOOTH",
"43 -225 OFFCURVE",
"39 -221 OFFCURVE",
"39 -213 CURVE SMOOTH",
"39 -210 OFFCURVE",
"54 -192 OFFCURVE",
"84 -158 CURVE SMOOTH",
"143 -90 OFFCURVE",
"199 42 OFFCURVE",
"199 222 CURVE SMOOTH",
"199 393 OFFCURVE",
"157 502 OFFCURVE",
"42 635 CURVE"
);
}
);
width = 279;
}
);
unicode = 0029;
},
{
glyphname = asterisk;
layers = (
{
layerId = "D726C5A3-D46C-4129-9A2C-DE910460F002";
name = Light;
paths = (
{
closed = 1;
nodes = (
"252 653 LINE",
"254 656 OFFCURVE",
"256 657 OFFCURVE",
"259 657 CURVE SMOOTH",
"270 657 OFFCURVE",
"273 643 OFFCURVE",
"269 638 CURVE SMOOTH",
"97 430 LINE",
"95 427 OFFCURVE",
"93 426 OFFCURVE",
"90 426 CURVE SMOOTH",
"79 426 OFFCURVE",
"76 440 OFFCURVE",
"80 445 CURVE SMOOTH"
);
},
{
closed = 1;
nodes = (
"263 441 LINE",
"268 433 OFFCURVE",
"262 424 OFFCURVE",
"254 424 CURVE SMOOTH",
"251 424 OFFCURVE",
"249 425 OFFCURVE",
"247 428 CURVE",
"78 645 LINE",
"73 652 OFFCURVE",
"78 662 OFFCURVE",
"86 662 CURVE SMOOTH",
"89 662 OFFCURVE",
"92 660 OFFCURVE",
"94 657 CURVE"
);
},
{
closed = 1;
nodes = (
"52 510 LINE",
"43 510 OFFCURVE",
"39 514 OFFCURVE",
"39 523 CURVE SMOOTH",
"39 529 OFFCURVE",
"42 532 OFFCURVE",
"48 532 CURVE",
"297 576 LINE",
"306 576 OFFCURVE",
"310 572 OFFCURVE",
"310 563 CURVE SMOOTH",
"310 557 OFFCURVE",
"307 554 OFFCURVE",
"301 554 CURVE"
);
}
);
width = 360;
}
);
unicode = 002A;
},
{
glyphname = plus;
layers = (
{
layerId = "D726C5A3-D46C-4129-9A2C-DE910460F002";
name = Light;
paths = (
{
closed = 1;
nodes = (
"452 227 LINE SMOOTH",
"459 227 OFFCURVE",
"463 223 OFFCURVE",
"463 216 CURVE SMOOTH",
"463 209 OFFCURVE",
"459 205 OFFCURVE",
"452 205 CURVE SMOOTH",
"44 205 LINE SMOOTH",
"37 205 OFFCURVE",
"34 209 OFFCURVE",
"34 216 CURVE SMOOTH",
"34 223 OFFCURVE",
"37 227 OFFCURVE",
"44 227 CURVE SMOOTH"
);
},
{
closed = 1;
nodes = (
"241 413 LINE SMOOTH",
"241 420 OFFCURVE",
"245 424 OFFCURVE",
"252 424 CURVE SMOOTH",
"259 424 OFFCURVE",
"263 420 OFFCURVE",
"263 413 CURVE SMOOTH",
"263 0 LINE SMOOTH",
"263 -7 OFFCURVE",
"259 -11 OFFCURVE",
"252 -11 CURVE SMOOTH",
"245 -11 OFFCURVE",
"241 -7 OFFCURVE",
"241 0 CURVE SMOOTH"
);
}
);
width = 499;
}
);
unicode = 002B;
},
{
glyphname = comma;
lastChange = "2014-02-11 18:35:35 -0800";
layers = (
{
layerId = "D726C5A3-D46C-4129-9A2C-DE910460F002";
name = Light;
paths = (
{
closed = 1;
nodes = (
"109 98 LINE SMOOTH",
"111 105 OFFCURVE",
"115 108 OFFCURVE",
"122 106 CURVE SMOOTH",
"129 105 OFFCURVE",
"132 99 OFFCURVE",
"130 93 CURVE SMOOTH",
"79 -106 LINE SMOOTH",
"78 -113 OFFCURVE",
"73 -115 OFFCURVE",
"66 -114 CURVE SMOOTH",
"59 -112 OFFCURVE",
"57 -108 OFFCURVE",
"59 -101 CURVE SMOOTH"
);
}
);
width = 185;
}
);
unicode = 002C;
},
{
glyphname = hyphen;
layers = (
{
layerId = "D726C5A3-D46C-4129-9A2C-DE910460F002";
name = Light;
paths = (
{
closed = 1;
nodes = (
"36 232 LINE",
"28 232 OFFCURVE",
"24 236 OFFCURVE",
"24 244 CURVE SMOOTH",
"24 251 OFFCURVE",
"27 254 OFFCURVE",
"34 254 CURVE",
"254 273 LINE",
"262 273 OFFCURVE",
"266 269 OFFCURVE",
"266 261 CURVE SMOOTH",
"266 254 OFFCURVE",
"263 251 OFFCURVE",
"256 251 CURVE"
);
}
);
width = 294;
}
);
unicode = 002D;
},
{
glyphname = period;
lastChange = "2014-02-11 18:33:52 -0800";
layers = (
{
layerId = "D726C5A3-D46C-4129-9A2C-DE910460F002";
name = Light;
paths = (
{
closed = 1;
nodes = (
"55 49 OFFCURVE",
"69 61 OFFCURVE",
"84 61 CURVE SMOOTH",
"97 61 OFFCURVE",
"111 46 OFFCURVE",
"111 30 CURVE SMOOTH",
"111 12 OFFCURVE",
"97 0 OFFCURVE",
"82 0 CURVE SMOOTH",
"66 0 OFFCURVE",
"55 14 OFFCURVE",
"55 31 CURVE SMOOTH"
);
}
);
width = 166;
}
);
unicode = 002E;
},
{
glyphname = slash;
layers = (
{
layerId = "D726C5A3-D46C-4129-9A2C-DE910460F002";
name = Light;
paths = (
{
closed = 1;
nodes = (
"242 646 LINE",
"244 651 OFFCURVE",
"247 654 OFFCURVE",
"251 654 CURVE SMOOTH",
"260 654 OFFCURVE",
"264 649 OFFCURVE",
"262 639 CURVE",
"60 7 LINE",
"59 2 OFFCURVE",
"56 0 OFFCURVE",
"51 0 CURVE SMOOTH",
"42 0 OFFCURVE",
"38 5 OFFCURVE",
"40 15 CURVE"
);
}
);
width = 307;
}
);
unicode = 002F;
},
{
glyphname = zero;
layers = (
{
layerId = "D726C5A3-D46C-4129-9A2C-DE910460F002";
name = Light;
paths = (
{
closed = 1;
nodes = (
"478 637 OFFCURVE",
"560 539 OFFCURVE",
"560 374 CURVE SMOOTH",
"560 207 OFFCURVE",
"404 -11 OFFCURVE",
"216 -11 CURVE SMOOTH",
"99 -11 OFFCURVE",
"33 125 OFFCURVE",
"33 269 CURVE SMOOTH",
"33 436 OFFCURVE",
"171 637 OFFCURVE",
"346 637 CURVE SMOOTH"
);
},
{
closed = 1;
nodes = (
"190 615 OFFCURVE",
"55 424 OFFCURVE",
"55 269 CURVE SMOOTH",
"55 134 OFFCURVE",
"117 11 OFFCURVE",
"216 11 CURVE SMOOTH",
"388 11 OFFCURVE",
"537 218 OFFCURVE",
"537 374 CURVE SMOOTH",
"537 531 OFFCURVE",
"466 615 OFFCURVE",
"346 615 CURVE SMOOTH"
);
}
);
width = 599;
}
);
unicode = 0030;
},
{
glyphname = one;
layers = (
{
layerId = "D726C5A3-D46C-4129-9A2C-DE910460F002";
name = Light;
paths = (
{
closed = 1;
nodes = (
"57 513 LINE SMOOTH",
"49 505 OFFCURVE",
"39 512 OFFCURVE",
"39 521 CURVE SMOOTH",
"39 524 OFFCURVE",
"40 526 OFFCURVE",
"42 528 CURVE SMOOTH",
"167 653 LINE",
"186 645 LINE",
"186 0 LINE SMOOTH",
"186 -7 OFFCURVE",
"182 -11 OFFCURVE",
"175 -11 CURVE SMOOTH",
"167 -11 OFFCURVE",
"163 -7 OFFCURVE",
"163 0 CURVE SMOOTH",
"163 620 LINE"
);
}
);
width = 264;
}
);
unicode = 0031;
},
{
glyphname = two;
layers = (
{
layerId = "D726C5A3-D46C-4129-9A2C-DE910460F002";
name = Light;
paths = (
{
closed = 1;
nodes = (
"61 425 OFFCURVE",
"57 421 OFFCURVE",
"50 421 CURVE SMOOTH",
"43 421 OFFCURVE",
"39 425 OFFCURVE",
"39 432 CURVE SMOOTH",
"39 576 OFFCURVE",
"150 663 OFFCURVE",
"274 663 CURVE SMOOTH",
"375 663 OFFCURVE",
"457 603 OFFCURVE",
"457 499 CURVE SMOOTH",
"457 443 OFFCURVE",
"441 399 OFFCURVE",
"408 366 CURVE SMOOTH",
"375 333 OFFCURVE",
"310 277 OFFCURVE",
"214 196 CURVE SMOOTH",
"118 115 OFFCURVE",
"68 56 OFFCURVE",
"64 20 CURVE",
"432 20 LINE",
"432 111 LINE SMOOTH",
"432 118 OFFCURVE",
"436 122 OFFCURVE",
"443 122 CURVE SMOOTH",
"450 122 OFFCURVE",
"454 118 OFFCURVE",
"454 111 CURVE SMOOTH",
"454 9 LINE",
"443 -2 LINE",
"53 -2 LINE",
"42 9 LINE",
"42 100 OFFCURVE",
"205 222 OFFCURVE",
"332 329 CURVE",
"401 393 OFFCURVE",
"435 450 OFFCURVE",
"435 499 CURVE SMOOTH",
"435 588 OFFCURVE",
"363 640 OFFCURVE",
"272 640 CURVE SMOOTH",
"161 640 OFFCURVE",
"61 564 OFFCURVE",
"61 432 CURVE SMOOTH"
);
}
);
width = 536;
}
);
unicode = 0032;
},
{
glyphname = three;
layers = (
{
layerId = "D726C5A3-D46C-4129-9A2C-DE910460F002";
name = Light;
paths = (
{
closed = 1;
nodes = (
"108 524 LINE SMOOTH",
"108 517 OFFCURVE",
"104 513 OFFCURVE",
"97 513 CURVE SMOOTH",
"90 513 OFFCURVE",
"86 517 OFFCURVE",
"86 524 CURVE SMOOTH",
"86 643 LINE SMOOTH",
"86 650 OFFCURVE",
"90 654 OFFCURVE",
"97 654 CURVE SMOOTH",
"438 654 LINE SMOOTH",
"445 654 OFFCURVE",
"449 650 OFFCURVE",
"449 643 CURVE SMOOTH",
"449 598 LINE",
"445 590 LINE",
"273 442 LINE",
"299 450 OFFCURVE",
"327 454 OFFCURVE",
"356 454 CURVE SMOOTH",
"459 454 OFFCURVE",
"535 397 OFFCURVE",
"535 260 CURVE SMOOTH",
"535 107 OFFCURVE",
"385 -11 OFFCURVE",
"222 -11 CURVE SMOOTH",
"71 -11 OFFCURVE",
"42 68 OFFCURVE",
"42 175 CURVE SMOOTH",
"42 182 OFFCURVE",
"44 185 OFFCURVE",
"48 185 CURVE",
"61 187 LINE",
"68 187 OFFCURVE",
"72 183 OFFCURVE",
"72 175 CURVE SMOOTH",
"72 168 OFFCURVE",
"68 164 OFFCURVE",
"61 164 CURVE SMOOTH",
"57 164 LINE",
"61 164 OFFCURVE",
"63 171 OFFCURVE",
"64 175 CURVE",
"64 67 OFFCURVE",
"81 11 OFFCURVE",
"222 11 CURVE SMOOTH",
"371 11 OFFCURVE",
"512 123 OFFCURVE",
"512 260 CURVE SMOOTH",
"512 381 OFFCURVE",
"442 431 OFFCURVE",
"350 431 CURVE SMOOTH",
"277 431 OFFCURVE",
"197 397 OFFCURVE",
"182 364 CURVE SMOOTH",
"178 355 OFFCURVE",
"157 372 OFFCURVE",
"164 377 CURVE",
"427 603 LINE",
"427 632 LINE",
"108 632 LINE"
);
}
);
width = 570;
}
);
unicode = 0033;
},
{
glyphname = four;
layers = (
{
layerId = "D726C5A3-D46C-4129-9A2C-DE910460F002";
name = Light;
paths = (
{
closed = 1;
nodes = (
"380 3 LINE SMOOTH",
"380 -4 OFFCURVE",
"376 -8 OFFCURVE",
"369 -8 CURVE SMOOTH",
"361 -8 OFFCURVE",
"357 -4 OFFCURVE",
"357 3 CURVE SMOOTH",
"357 614 LINE",
"46 229 LINE",
"522 307 LINE",
"530 307 OFFCURVE",
"534 303 OFFCURVE",
"534 294 CURVE SMOOTH",
"534 288 OFFCURVE",
"531 285 OFFCURVE",
"525 285 CURVE",
"21 202 LINE",
"11 221 LINE",
"360 653 LINE",
"380 645 LINE"
);
}
);
width = 570;
}
);
unicode = 0034;
},
{
glyphname = five;
layers = (
{
layerId = "D726C5A3-D46C-4129-9A2C-DE910460F002";
name = Light;
paths = (
{
closed = 1;
nodes = (
"445 648 LINE",
"453 648 OFFCURVE",
"457 644 OFFCURVE",
"457 636 CURVE SMOOTH",
"457 629 OFFCURVE",
"454 626 OFFCURVE",
"447 626 CURVE",
"64 591 LINE",
"66 367 LINE",
"106 416 OFFCURVE",
"175 460 OFFCURVE",
"288 460 CURVE SMOOTH",
"404 460 OFFCURVE",
"501 398 OFFCURVE",
"501 271 CURVE SMOOTH",
"501 108 OFFCURVE",
"354 -6 OFFCURVE",
"199 -6 CURVE SMOOTH",
"118 -6 OFFCURVE",
"44 50 OFFCURVE",
"44 134 CURVE SMOOTH",
"44 144 OFFCURVE",
"48 149 OFFCURVE",
"56 149 CURVE SMOOTH",
"63 149 OFFCURVE",
"66 146 OFFCURVE",
"66 139 CURVE",
"75 62 OFFCURVE",
"130 17 OFFCURVE",
"199 17 CURVE SMOOTH",
"344 17 OFFCURVE",
"479 122 OFFCURVE",
"479 271 CURVE SMOOTH",
"479 386 OFFCURVE",
"397 438 OFFCURVE",
"288 438 CURVE SMOOTH",
"137 438 OFFCURVE",
"95 377 OFFCURVE",
"66 326 CURVE",
"44 330 LINE",
"42 601 LINE",
"52 612 LINE"
);
}
);
width = 541;
}
);
unicode = 0035;
},
{
glyphname = six;
layers = (
{
layerId = "D726C5A3-D46C-4129-9A2C-DE910460F002";
name = Light;
paths = (
{
closed = 1;
nodes = (
"534 555 OFFCURVE",
"532 543 OFFCURVE",
"521 543 CURVE SMOOTH",
"517 543 OFFCURVE",
"509 551 OFFCURVE",
"498 568 CURVE",
"474 601 OFFCURVE",
"422 634 OFFCURVE",
"367 634 CURVE SMOOTH",
"223 634 OFFCURVE",
"64 426 OFFCURVE",
"64 263 CURVE SMOOTH",
"64 136 OFFCURVE",
"162 19 OFFCURVE",
"285 19 CURVE SMOOTH",
"426 19 OFFCURVE",
"546 122 OFFCURVE",
"546 255 CURVE SMOOTH",
"546 338 OFFCURVE",
"486 366 OFFCURVE",
"393 366 CURVE SMOOTH",
"273 366 OFFCURVE",
"154 254 OFFCURVE",
"116 196 CURVE SMOOTH",
"97 167 OFFCURVE",
"85 152 OFFCURVE",
"81 152 CURVE SMOOTH",
"74 152 OFFCURVE",
"66 162 OFFCURVE",
"71 170 CURVE",
"175 323 OFFCURVE",
"289 388 OFFCURVE",
"393 388 CURVE SMOOTH",
"489 388 OFFCURVE",
"568 352 OFFCURVE",
"568 255 CURVE SMOOTH",
"568 108 OFFCURVE",
"438 -3 OFFCURVE",
"285 -3 CURVE SMOOTH",
"148 -3 OFFCURVE",
"42 123 OFFCURVE",
"42 263 CURVE SMOOTH",
"42 436 OFFCURVE",
"204 655 OFFCURVE",
"363 655 CURVE SMOOTH",
"423 655 OFFCURVE",
"479 627 OFFCURVE",
"530 560 CURVE SMOOTH"
);
}
);
width = 613;
}
);
unicode = 0036;
},
{
glyphname = seven;
layers = (
{
layerId = "D726C5A3-D46C-4129-9A2C-DE910460F002";
name = Light;
paths = (
{
closed = 1;
nodes = (
"66 517 LINE SMOOTH",
"66 510 OFFCURVE",
"62 506 OFFCURVE",
"55 506 CURVE SMOOTH",
"48 506 OFFCURVE",
"44 510 OFFCURVE",
"44 517 CURVE SMOOTH",
"44 597 LINE",
"54 608 LINE",
"122 617 OFFCURVE",
"192 625 OFFCURVE",
"265 634 CURVE SMOOTH",
"337 643 OFFCURVE",
"384 649 OFFCURVE",
"405 653 CURVE",
"418 641 LINE",
"418 614 OFFCURVE",
"384 539 OFFCURVE",
"317 416 CURVE SMOOTH",
"250 293 OFFCURVE",
"204 207 OFFCURVE",
"179 156 CURVE SMOOTH",
"154 105 OFFCURVE",
"141 56 OFFCURVE",
"141 7 CURVE SMOOTH",
"141 -6 OFFCURVE",
"138 -12 OFFCURVE",
"131 -12 CURVE SMOOTH",
"123 -12 OFFCURVE",
"119 -8 OFFCURVE",
"119 0 CURVE",
"131 107 OFFCURVE",
"189 219 OFFCURVE",
"301 430 CURVE SMOOTH",
"356 535 OFFCURVE",
"387 601 OFFCURVE",
"393 628 CURVE",
"66 587 LINE"
);
}
);
width = 460;
}
);
unicode = 0037;
},
{
glyphname = eight;
layers = (
{
layerId = "D726C5A3-D46C-4129-9A2C-DE910460F002";
name = Light;
paths = (
{
closed = 1;
nodes = (
"52 72 OFFCURVE",
"34 117 OFFCURVE",
"34 154 CURVE SMOOTH",
"34 234 OFFCURVE",
"100 309 OFFCURVE",
"212 368 CURVE",
"168 368 OFFCURVE",
"127 392 OFFCURVE",
"116 432 CURVE SMOOTH",
"111 451 OFFCURVE",
"108 468 OFFCURVE",
"108 482 CURVE SMOOTH",
"108 546 OFFCURVE",
"147 596 OFFCURVE",
"222 637 CURVE SMOOTH",
"259 658 OFFCURVE",
"300 668 OFFCURVE",
"345 668 CURVE SMOOTH",
"394 668 OFFCURVE",
"431 653 OFFCURVE",
"449 615 CURVE SMOOTH",
"458 596 OFFCURVE",
"462 577 OFFCURVE",
"462 559 CURVE SMOOTH",
"462 503 OFFCURVE",
"424 457 OFFCURVE",
"367 420 CURVE",
"379 421 OFFCURVE",
"391 423 OFFCURVE",
"403 424 CURVE SMOOTH",
"414 425 OFFCURVE",
"425 426 OFFCURVE",
"435 426 CURVE SMOOTH",
"488 426 OFFCURVE",
"532 413 OFFCURVE",
"552 380 CURVE",
"565 353 OFFCURVE",
"572 327 OFFCURVE",
"572 300 CURVE SMOOTH",
"572 225 OFFCURVE",
"522 160 OFFCURVE",
"447 99 CURVE SMOOTH",
"372 38 OFFCURVE",
"272 1 OFFCURVE",
"188 1 CURVE SMOOTH",
"143 1 OFFCURVE",
"109 11 OFFCURVE",
"85 35 CURVE"
);
},
{
closed = 1;
nodes = (
"144 404 OFFCURVE",
"185 390 OFFCURVE",
"232 390 CURVE SMOOTH",
"244 390 LINE SMOOTH",
"249 390 OFFCURVE",
"254 391 OFFCURVE",
"261 392 CURVE",
"295 404 LINE",
"370 437 OFFCURVE",
"440 494 OFFCURVE",
"440 559 CURVE SMOOTH",
"440 590 OFFCURVE",
"428 623 OFFCURVE",
"397 636 CURVE",
"382 643 OFFCURVE",
"364 646 OFFCURVE",
"343 646 CURVE SMOOTH",
"263 646 OFFCURVE",
"188 598 OFFCURVE",
"156 557 CURVE SMOOTH",
"140 536 OFFCURVE",
"132 512 OFFCURVE",
"132 484 CURVE SMOOTH",
"132 473 OFFCURVE",
"134 460 OFFCURVE",
"137 443 CURVE SMOOTH"
);
},
{
closed = 1;
nodes = (
"274 374 LINE",
"139 315 OFFCURVE",
"57 234 OFFCURVE",
"57 153 CURVE SMOOTH",
"57 116 OFFCURVE",
"70 85 OFFCURVE",
"102 50 CURVE",
"116 32 OFFCURVE",
"143 23 OFFCURVE",
"184 23 CURVE SMOOTH",
"263 23 OFFCURVE",
"365 59 OFFCURVE",
"433 116 CURVE SMOOTH",
"501 173 OFFCURVE",
"549 234 OFFCURVE",
"549 301 CURVE SMOOTH",
"549 324 OFFCURVE",
"543 347 OFFCURVE",
"532 370 CURVE",
"524 394 OFFCURVE",
"490 403 OFFCURVE",
"441 403 CURVE SMOOTH",
"393 403 OFFCURVE",
"340 394 OFFCURVE",
"296 381 CURVE SMOOTH"
);
}
);
width = 599;
}
);
unicode = 0038;
},
{
glyphname = nine;
layers = (
{
layerId = "D726C5A3-D46C-4129-9A2C-DE910460F002";
name = Light;
paths = (
{
closed = 1;
nodes = (
"45 146 OFFCURVE",
"48 151 OFFCURVE",
"59 151 CURVE SMOOTH",
"64 151 OFFCURVE",
"67 149 OFFCURVE",
"68 144 CURVE",
"104 53 OFFCURVE",
"168 9 OFFCURVE",
"244 9 CURVE SMOOTH",
"385 9 OFFCURVE",
"521 161 OFFCURVE",
"521 376 CURVE SMOOTH",
"521 527 OFFCURVE",
"468 633 OFFCURVE",
"299 633 CURVE SMOOTH",
"199 633 OFFCURVE",
"94 540 OFFCURVE",
"94 439 CURVE SMOOTH",
"94 360 OFFCURVE",
"173 290 OFFCURVE",
"260 290 CURVE SMOOTH",
"375 290 OFFCURVE",
"501 380 OFFCURVE",
"501 504 CURVE SMOOTH",
"501 511 OFFCURVE",
"504 514 OFFCURVE",
"511 514 CURVE SMOOTH",
"520 514 OFFCURVE",
"524 510 OFFCURVE",
"524 502 CURVE SMOOTH",
"524 365 OFFCURVE",
"387 268 OFFCURVE",
"260 268 CURVE SMOOTH",
"161 268 OFFCURVE",
"72 347 OFFCURVE",
"72 439 CURVE SMOOTH",
"72 555 OFFCURVE",
"186 656 OFFCURVE",
"299 656 CURVE SMOOTH",
"480 656 OFFCURVE",
"543 532 OFFCURVE",
"543 376 CURVE SMOOTH",
"543 155 OFFCURVE",
"395 -13 OFFCURVE",
"243 -13 CURVE SMOOTH",
"160 -13 OFFCURVE",
"89 36 OFFCURVE",
"48 137 CURVE"
);
}
);
width = 580;
}
);
unicode = 0039;
},
{
glyphname = colon;
lastChange = "2014-02-11 18:37:05 -0800";
layers = (
{
layerId = "D726C5A3-D46C-4129-9A2C-DE910460F002";
name = Light;
paths = (
{
closed = 1;
nodes = (
"80 49 OFFCURVE",
"94 62 OFFCURVE",
"109 62 CURVE SMOOTH",
"123 62 OFFCURVE",
"136 46 OFFCURVE",
"136 30 CURVE SMOOTH",
"136 12 OFFCURVE",
"122 0 OFFCURVE",
"106 0 CURVE SMOOTH",
"91 0 OFFCURVE",
"80 15 OFFCURVE",
"80 32 CURVE SMOOTH"
);
},
{
closed = 1;
nodes = (
"80 301 OFFCURVE",
"94 314 OFFCURVE",
"109 314 CURVE SMOOTH",
"124 314 OFFCURVE",
"136 299 OFFCURVE",
"136 281 CURVE SMOOTH",
"136 264 OFFCURVE",
"122 251 OFFCURVE",
"106 251 CURVE SMOOTH",
"91 251 OFFCURVE",
"80 266 OFFCURVE",
"80 284 CURVE SMOOTH"
);
}
);
width = 189;
}
);
unicode = 003A;
},
{
glyphname = semicolon;
lastChange = "2014-02-11 18:37:16 -0800";
layers = (
{
layerId = "D726C5A3-D46C-4129-9A2C-DE910460F002";
name = Light;
paths = (
{
closed = 1;
nodes = (
"72 300 OFFCURVE",
"85 312 OFFCURVE",
"101 312 CURVE SMOOTH",
"115 312 OFFCURVE",
"128 295 OFFCURVE",
"128 280 CURVE SMOOTH",
"128 262 OFFCURVE",
"114 249 OFFCURVE",
"99 249 CURVE SMOOTH",
"84 249 OFFCURVE",
"72 264 OFFCURVE",
"72 282 CURVE SMOOTH"
);
},
{
closed = 1;
nodes = (
"74 52 OFFCURVE",
"88 66 OFFCURVE",
"106 66 CURVE SMOOTH",
"131 66 OFFCURVE",
"139 55 OFFCURVE",
"145 17 CURVE",
"145 -13 OFFCURVE",
"141 -31 OFFCURVE",
"123 -49 CURVE SMOOTH",
"104 -68 OFFCURVE",
"92 -73 OFFCURVE",
"73 -73 CURVE SMOOTH",
"63 -73 OFFCURVE",
"56 -68 OFFCURVE",
"56 -59 CURVE SMOOTH",
"56 -53 OFFCURVE",
"61 -49 OFFCURVE",
"70 -47 CURVE",
"105 -34 OFFCURVE",
"115 -32 OFFCURVE",
"115 0 CURVE",
"112 -1 OFFCURVE",
"109 -2 OFFCURVE",
"106 -2 CURVE",
"103 -3 OFFCURVE",
"101 -3 OFFCURVE",
"99 -4 CURVE",
"84 -4 OFFCURVE",
"71 11 OFFCURVE",
"74 30 CURVE"
);
}
);
width = 185;
}
);
unicode = 003B;
},
{
glyphname = less;
layers = (
{
layerId = "D726C5A3-D46C-4129-9A2C-DE910460F002";
name = Light;
paths = (
{
closed = 1;
nodes = (
"407 417 LINE SMOOTH",
"416 422 OFFCURVE",
"424 415 OFFCURVE",
"424 406 CURVE SMOOTH",
"424 402 OFFCURVE",
"422 399 OFFCURVE",
"418 397 CURVE SMOOTH",
"70 212 LINE",
"418 12 LINE",
"421 10 OFFCURVE",
"423 7 OFFCURVE",
"423 4 CURVE SMOOTH",
"423 -3 OFFCURVE",
"414 -10 OFFCURVE",
"407 -6 CURVE SMOOTH",
"42 204 LINE",
"42 223 LINE"
);
}
);
width = 479;
}
);
unicode = 003C;
},
{
glyphname = equal;
layers = (
{
layerId = "D726C5A3-D46C-4129-9A2C-DE910460F002";
name = Light;
paths = (
{
closed = 1;
nodes = (
"53 127 LINE SMOOTH",
"46 127 OFFCURVE",
"42 131 OFFCURVE",
"42 138 CURVE SMOOTH",
"42 146 OFFCURVE",
"46 150 OFFCURVE",
"53 150 CURVE SMOOTH",
"449 150 LINE SMOOTH",
"456 150 OFFCURVE",
"460 146 OFFCURVE",
"460 138 CURVE SMOOTH",
"460 131 OFFCURVE",
"456 127 OFFCURVE",
"449 127 CURVE SMOOTH"
);
},
{
closed = 1;
nodes = (
"47 321 LINE SMOOTH",
"40 321 OFFCURVE",
"36 325 OFFCURVE",
"36 332 CURVE SMOOTH",
"36 339 OFFCURVE",
"40 343 OFFCURVE",
"47 343 CURVE SMOOTH",
"443 343 LINE SMOOTH",
"450 343 OFFCURVE",
"454 339 OFFCURVE",
"454 332 CURVE SMOOTH",
"454 325 OFFCURVE",
"450 321 OFFCURVE",
"443 321 CURVE SMOOTH"
);
}
);
width = 499;
}
);
unicode = 003D;
},
{
glyphname = greater;
layers = (
{
layerId = "D726C5A3-D46C-4129-9A2C-DE910460F002";
name = Light;
paths = (
{
closed = 1;
nodes = (
"83 397 LINE SMOOTH",
"79 399 OFFCURVE",
"77 402 OFFCURVE",
"77 406 CURVE SMOOTH",
"77 414 OFFCURVE",
"86 422 OFFCURVE",
"94 417 CURVE",
"460 223 LINE",
"460 203 LINE",
"91 1 LINE",
"83 -4 OFFCURVE",
"74 4 OFFCURVE",
"74 12 CURVE SMOOTH",
"74 16 OFFCURVE",
"76 19 OFFCURVE",
"80 21 CURVE",
"430 213 LINE"
);
}
);
width = 499;
}
);
unicode = 003E;
},
{
glyphname = question;
lastChange = "2014-02-11 18:37:33 -0800";
layers = (
{
layerId = "D726C5A3-D46C-4129-9A2C-DE910460F002";
name = Light;
paths = (
{
closed = 1;
nodes = (
"66 509 OFFCURVE",
"63 507 OFFCURVE",
"60 507 CURVE SMOOTH",
"49 507 OFFCURVE",
"45 517 OFFCURVE",
"48 524 CURVE",
"103 624 OFFCURVE",
"170 667 OFFCURVE",
"237 667 CURVE SMOOTH",
"317 667 OFFCURVE",
"388 598 OFFCURVE",
"388 537 CURVE SMOOTH",
"388 508 OFFCURVE",
"363 472 OFFCURVE",
"313 429 CURVE",
"220 356 OFFCURVE",
"98 269 OFFCURVE",
"98 228 CURVE SMOOTH",
"98 184 OFFCURVE",
"123 167 OFFCURVE",
"162 167 CURVE SMOOTH",
"201 167 OFFCURVE",
"240 188 OFFCURVE",
"240 211 CURVE",
"238 219 LINE",
"238 226 OFFCURVE",
"245 232 OFFCURVE",
"252 232 CURVE SMOOTH",
"257 232 OFFCURVE",
"260 229 OFFCURVE",
"260 224 CURVE",
"268 179 OFFCURVE",
"216 143 OFFCURVE",
"160 143 CURVE SMOOTH",
"112 143 OFFCURVE",
"76 171 OFFCURVE",
"76 228 CURVE SMOOTH",
"76 257 OFFCURVE",
"101 293 OFFCURVE",
"151 336 CURVE SMOOTH",
"197 373 OFFCURVE",
"244 410 OFFCURVE",
"293 449 CURVE SMOOTH",
"342 488 OFFCURVE",
"366 517 OFFCURVE",
"366 537 CURVE SMOOTH",
"366 585 OFFCURVE",
"307 645 OFFCURVE",
"239 645 CURVE SMOOTH",
"182 645 OFFCURVE",
"120 605 OFFCURVE",
"68 512 CURVE"
);
},
{
closed = 1;
nodes = (
"133 50 OFFCURVE",
"146 64 OFFCURVE",
"162 64 CURVE SMOOTH",
"177 64 OFFCURVE",
"189 48 OFFCURVE",
"189 30 CURVE SMOOTH",
"189 13 OFFCURVE",
"175 0 OFFCURVE",
"159 0 CURVE SMOOTH",
"144 0 OFFCURVE",
"133 15 OFFCURVE",
"133 33 CURVE SMOOTH"
);
}
);
width = 427;
}
);
unicode = 003F;
},
{
glyphname = at;
layers = (
{
layerId = "D726C5A3-D46C-4129-9A2C-DE910460F002";
name = Light;
paths = (
{
closed = 1;
nodes = (
"471 318 OFFCURVE",
"474 321 OFFCURVE",
"480 321 CURVE SMOOTH",
"489 321 OFFCURVE",
"493 317 OFFCURVE",
"493 308 CURVE",
"490 273 OFFCURVE",
"487 224 OFFCURVE",
"487 213 CURVE SMOOTH",
"487 180 OFFCURVE",
"489 149 OFFCURVE",
"497 126 CURVE",
"518 111 OFFCURVE",
"538 103 OFFCURVE",
"558 103 CURVE SMOOTH",
"634 103 OFFCURVE",
"670 249 OFFCURVE",
"670 380 CURVE SMOOTH",
"670 525 OFFCURVE",
"612 632 OFFCURVE",
"468 632 CURVE SMOOTH",
"259 632 OFFCURVE",
"61 434 OFFCURVE",
"61 233 CURVE SMOOTH",
"61 120 OFFCURVE",
"140 18 OFFCURVE",
"252 18 CURVE SMOOTH",
"303 18 OFFCURVE",
"348 33 OFFCURVE",
"404 73 CURVE",
"409 77 OFFCURVE",
"421 75 OFFCURVE",
"421 63 CURVE SMOOTH",
"421 60 OFFCURVE",
"413 52 OFFCURVE",
"398 41 CURVE SMOOTH",
"366 18 OFFCURVE",
"305 -5 OFFCURVE",
"254 -5 CURVE SMOOTH",
"131 -5 OFFCURVE",
"39 110 OFFCURVE",
"39 233 CURVE SMOOTH",
"39 449 OFFCURVE",
"244 654 OFFCURVE",
"468 654 CURVE SMOOTH",
"625 654 OFFCURVE",
"693 532 OFFCURVE",
"693 380 CURVE SMOOTH",
"693 240 OFFCURVE",
"657 82 OFFCURVE",
"561 82 CURVE SMOOTH",
"537 82 OFFCURVE",
"512 90 OFFCURVE",
"481 110 CURVE",
"477 115 LINE",
"469 142 OFFCURVE",
"465 187 OFFCURVE",
"465 220 CURVE SMOOTH",
"465 251 OFFCURVE",
"466 272 OFFCURVE",
"467 284 CURVE SMOOTH",
"468 296 OFFCURVE",
"469 305 OFFCURVE",
"471 312 CURVE"
);
},
{
closed = 1;
nodes = (
"368 156 OFFCURVE",
"322 132 OFFCURVE",
"273 132 CURVE SMOOTH",
"254 132 OFFCURVE",
"235 136 OFFCURVE",
"217 145 CURVE",
"192 160 OFFCURVE",
"179 184 OFFCURVE",
"179 215 CURVE SMOOTH",
"179 278 OFFCURVE",
"233 368 OFFCURVE",
"294 433 CURVE SMOOTH",
"355 497 OFFCURVE",
"420 547 OFFCURVE",
"475 547 CURVE SMOOTH",
"492 547 OFFCURVE",
"510 541 OFFCURVE",
"525 529 CURVE",
"539 514 OFFCURVE",
"546 493 OFFCURVE",
"546 464 CURVE SMOOTH",
"546 399 OFFCURVE",
"505 308 OFFCURVE",
"452 247 CURVE SMOOTH"
);
},
{
closed = 1;
nodes = (
"486 317 OFFCURVE",
"525 412 OFFCURVE",
"525 471 CURVE SMOOTH",
"525 491 OFFCURVE",
"520 505 OFFCURVE",
"511 512 CURVE",
"502 521 OFFCURVE",
"491 526 OFFCURVE",
"477 526 CURVE SMOOTH",
"433 526 OFFCURVE",
"364 476 OFFCURVE",
"309 420 CURVE SMOOTH",
"254 363 OFFCURVE",
"201 265 OFFCURVE",
"201 208 CURVE SMOOTH",
"201 185 OFFCURVE",
"209 170 OFFCURVE",
"226 165 CURVE",
"238 158 OFFCURVE",
"260 154 OFFCURVE",
"273 154 CURVE SMOOTH",
"325 154 OFFCURVE",
"374 195 OFFCURVE",
"435 262 CURVE SMOOTH"
);
}
);
width = 752;
}
);
unicode = 0040;
},
{
glyphname = A;
layers = (
{
layerId = "D726C5A3-D46C-4129-9A2C-DE910460F002";
name = Light;
paths = (
{
closed = 1;
nodes = (
"185 334 LINE",
"188 343 LINE",
"317 651 LINE",
"337 650 LINE",
"449 343 LINE",
"452 332 LINE",
"572 4 LINE",
"575 -6 OFFCURVE",
"572 -11 OFFCURVE",
"561 -11 CURVE SMOOTH",
"556 -11 OFFCURVE",
"553 -9 OFFCURVE",
"551 -4 CURVE SMOOTH",
"432 323 LINE",
"204 323 LINE",
"67 -5 LINE",
"66 -9 OFFCURVE",
"63 -11 OFFCURVE",
"59 -11 CURVE SMOOTH",
"48 -11 OFFCURVE",
"44 -6 OFFCURVE",
"47 5 CURVE"
);
},
{
closed = 1;
nodes = (
"213 345 LINE",
"424 345 LINE",
"326 616 LINE"
);
}
);
width = 603;
}
);
unicode = 0041;
},
{
glyphname = B;
layers = (
{
layerId = "D726C5A3-D46C-4129-9A2C-DE910460F002";
name = Light;
paths = (
{
closed = 1;
nodes = (
"105 620 LINE",
"158 643 OFFCURVE",
"265 678 OFFCURVE",
"337 678 CURVE SMOOTH",
"393 678 OFFCURVE",
"431 661 OFFCURVE",
"443 617 CURVE",
"444 605 OFFCURVE",
"445 596 OFFCURVE",
"445 590 CURVE SMOOTH",
"445 519 OFFCURVE",
"398 467 OFFCURVE",
"319 428 CURVE",
"334 430 OFFCURVE",
"349 431 OFFCURVE",
"364 431 CURVE SMOOTH",
"448 431 OFFCURVE",
"507 401 OFFCURVE",
"526 320 CURVE",
"527 309 OFFCURVE",
"528 301 OFFCURVE",
"528 296 CURVE SMOOTH",
"528 179 OFFCURVE",
"378 88 OFFCURVE",
"226 32 CURVE SMOOTH",
"150 3 OFFCURVE",
"107 -11 OFFCURVE",
"97 -11 CURVE",
"83 0 LINE",
"83 648 LINE SMOOTH",
"83 655 OFFCURVE",
"86 658 OFFCURVE",
"91 658 CURVE SMOOTH",
"96 658 OFFCURVE",
"100 655 OFFCURVE",
"105 648 CURVE"
);
},
{
closed = 1;
nodes = (
"105 380 LINE",
"290 420 OFFCURVE",
"424 483 OFFCURVE",
"424 587 CURVE SMOOTH",
"424 595 OFFCURVE",
"423 604 OFFCURVE",
"421 613 CURVE",
"421 644 OFFCURVE",
"394 655 OFFCURVE",
"350 655 CURVE SMOOTH",
"271 655 OFFCURVE",
"178 624 OFFCURVE",
"105 596 CURVE"
);
},
{
closed = 1;
nodes = (
"105 16 LINE",
"198 44 OFFCURVE",
"325 92 OFFCURVE",
"429 169 CURVE SMOOTH",
"481 208 OFFCURVE",
"507 249 OFFCURVE",
"507 292 CURVE SMOOTH",
"507 301 OFFCURVE",
"506 309 OFFCURVE",
"504 317 CURVE",
"495 382 OFFCURVE",
"443 407 OFFCURVE",
"366 407 CURVE SMOOTH",
"327 407 OFFCURVE",
"278 400 OFFCURVE",
"221 385 CURVE SMOOTH",
"163 370 OFFCURVE",
"124 360 OFFCURVE",
"105 355 CURVE"
);
}
);
width = 570;
}
);
unicode = 0042;
},
{
glyphname = C;
layers = (
{
layerId = "D726C5A3-D46C-4129-9A2C-DE910460F002";
name = Light;
paths = (
{
closed = 1;
nodes = (
"485 548 OFFCURVE",
"482 543 OFFCURVE",
"471 543 CURVE SMOOTH",
"466 543 OFFCURVE",
"463 545 OFFCURVE",
"462 550 CURVE",
"441 614 OFFCURVE",
"383 641 OFFCURVE",
"331 641 CURVE SMOOTH",
"325 641 OFFCURVE",
"303 639 OFFCURVE",
"265 634 CURVE SMOOTH",
"188 624 OFFCURVE",
"48 492 OFFCURVE",
"48 280 CURVE SMOOTH",
"48 129 OFFCURVE",
"100 11 OFFCURVE",
"217 11 CURVE SMOOTH",
"306 11 OFFCURVE",
"410 93 OFFCURVE",
"442 150 CURVE SMOOTH",
"458 178 OFFCURVE",
"468 192 OFFCURVE",
"471 192 CURVE SMOOTH",
"478 192 OFFCURVE",
"486 183 OFFCURVE",
"481 175 CURVE",
"420 63 OFFCURVE",
"318 -11 OFFCURVE",
"217 -11 CURVE SMOOTH",
"82 -11 OFFCURVE",
"26 120 OFFCURVE",
"26 280 CURVE SMOOTH",
"26 507 OFFCURVE",
"163 662 OFFCURVE",
"324 662 CURVE",
"325 663 OFFCURVE",
"327 663 OFFCURVE",
"330 663 CURVE SMOOTH",
"389 663 OFFCURVE",
"455 633 OFFCURVE",
"482 558 CURVE"
);
}
);
width = 524;
}
);
unicode = 0043;
},
{
glyphname = D;
layers = (
{
layerId = "D726C5A3-D46C-4129-9A2C-DE910460F002";
name = Light;
paths = (
{
closed = 1;
nodes = (
"105 619 LINE",
"158 647 OFFCURVE",
"231 676 OFFCURVE",
"303 676 CURVE SMOOTH",
"399 676 OFFCURVE",
"484 615 OFFCURVE",
"511 524 CURVE SMOOTH",
"524 478 OFFCURVE",
"531 442 OFFCURVE",
"531 416 CURVE SMOOTH",
"531 256 OFFCURVE",
"378 127 OFFCURVE",
"227 48 CURVE SMOOTH",
"151 9 OFFCURVE",
"108 -11 OFFCURVE",
"98 -11 CURVE",
"83 -1 LINE",
"83 628 LINE SMOOTH",
"83 635 OFFCURVE",
"87 639 OFFCURVE",
"94 639 CURVE SMOOTH",
"101 639 OFFCURVE",
"105 635 OFFCURVE",
"105 628 CURVE SMOOTH"
);
},
{
closed = 1;
nodes = (
"105 15 LINE",
"204 58 OFFCURVE",
"328 122 OFFCURVE",
"432 234 CURVE SMOOTH",
"484 290 OFFCURVE",
"510 351 OFFCURVE",
"510 417 CURVE SMOOTH",
"510 435 OFFCURVE",
"509 448 OFFCURVE",
"508 456 CURVE",
"505 471 OFFCURVE",
"490 566 OFFCURVE",
"421 616 CURVE SMOOTH",
"386 641 OFFCURVE",
"346 653 OFFCURVE",
"301 653 CURVE SMOOTH",
"224 653 OFFCURVE",
"164 626 OFFCURVE",
"105 594 CURVE"
);
}
);
width = 565;
}
);
unicode = 0044;
},
{
glyphname = E;
layers = (
{
layerId = "D726C5A3-D46C-4129-9A2C-DE910460F002";
name = Light;
paths = (
{
closed = 1;
nodes = (
"102 344 LINE",
"102 15 LINE",
"478 55 LINE",
"486 55 OFFCURVE",
"490 51 OFFCURVE",
"490 43 CURVE SMOOTH",
"490 36 OFFCURVE",
"487 33 OFFCURVE",
"480 33 CURVE",
"92 -8 LINE",
"80 3 LINE",
"80 588 LINE",
"48 584 LINE",
"40 584 OFFCURVE",
"36 588 OFFCURVE",
"36 597 CURVE SMOOTH",
"36 604 OFFCURVE",
"39 607 OFFCURVE",
"46 607 CURVE",
"80 610 LINE",
"80 632 LINE SMOOTH",
"80 639 OFFCURVE",
"84 642 OFFCURVE",
"91 642 CURVE SMOOTH",
"98 642 OFFCURVE",
"102 639 OFFCURVE",
"102 632 CURVE SMOOTH",
"102 613 LINE",
"442 651 LINE",
"450 651 OFFCURVE",
"454 647 OFFCURVE",
"454 639 CURVE SMOOTH",
"454 632 OFFCURVE",
"451 629 OFFCURVE",
"444 629 CURVE",
"102 591 LINE",
"102 367 LINE",
"406 391 LINE",
"414 391 OFFCURVE",
"418 387 OFFCURVE",
"418 378 CURVE SMOOTH",
"418 371 OFFCURVE",
"415 368 OFFCURVE",
"408 368 CURVE"
);
}
);
width = 523;
}
);
unicode = 0045;
},
{
glyphname = F;
layers = (
{
layerId = "D726C5A3-D46C-4129-9A2C-DE910460F002";
name = Light;
paths = (
{
closed = 1;
nodes = (
"105 596 LINE",
"105 369 LINE",
"404 391 LINE",
"411 391 OFFCURVE",
"415 387 OFFCURVE",
"415 378 CURVE SMOOTH",
"415 371 OFFCURVE",
"412 368 OFFCURVE",
"405 368 CURVE",
"105 347 LINE",
"105 14 LINE SMOOTH",
"105 7 OFFCURVE",
"101 3 OFFCURVE",
"94 3 CURVE SMOOTH",
"87 3 OFFCURVE",
"83 7 OFFCURVE",
"83 14 CURVE SMOOTH",
"83 594 LINE",
"48 590 LINE",
"40 590 OFFCURVE",
"36 594 OFFCURVE",
"36 602 CURVE SMOOTH",
"36 609 OFFCURVE",
"39 612 OFFCURVE",
"46 612 CURVE",
"83 616 LINE",
"83 643 LINE SMOOTH",
"83 650 OFFCURVE",
"87 653 OFFCURVE",
"94 653 CURVE SMOOTH",
"101 653 OFFCURVE",
"105 650 OFFCURVE",
"105 643 CURVE SMOOTH",
"105 618 LINE",
"451 651 LINE",
"458 651 OFFCURVE",
"462 647 OFFCURVE",
"462 639 CURVE SMOOTH",
"462 632 OFFCURVE",
"459 629 OFFCURVE",
"452 629 CURVE"
);
}
);
width = 483;
}
);
unicode = 0046;
},
{
glyphname = G;
layers = (
{
layerId = "D726C5A3-D46C-4129-9A2C-DE910460F002";
name = Light;
paths = (
{
closed = 1;
nodes = (
"617 556 OFFCURVE",
"615 544 OFFCURVE",
"604 544 CURVE SMOOTH",
"600 544 OFFCURVE",
"592 553 OFFCURVE",
"580 570 CURVE SMOOTH",
"556 605 OFFCURVE",
"483 643 OFFCURVE",
"406 643 CURVE SMOOTH",
"230 643 OFFCURVE",
"58 485 OFFCURVE",
"58 252 CURVE SMOOTH",
"58 103 OFFCURVE",
"161 10 OFFCURVE",
"284 10 CURVE SMOOTH",
"291 10 OFFCURVE",
"300 10 OFFCURVE",
"310 11 CURVE",
"319 11 OFFCURVE",
"348 18 OFFCURVE",
"396 32 CURVE SMOOTH",
"491 59 OFFCURVE",
"587 154 OFFCURVE",
"608 226 CURVE SMOOTH",
"619 262 OFFCURVE",
"624 297 OFFCURVE",
"624 331 CURVE",
"366 275 LINE",
"357 275 OFFCURVE",
"352 280 OFFCURVE",
"352 290 CURVE SMOOTH",
"352 295 OFFCURVE",
"355 297 OFFCURVE",
"360 297 CURVE",
"632 356 LINE",
"645 346 LINE",
"646 338 OFFCURVE",
"647 329 OFFCURVE",
"647 318 CURVE SMOOTH",
"647 249 OFFCURVE",
"625 165 OFFCURVE",
"538 87 CURVE SMOOTH",
"451 9 OFFCURVE",
"331 -14 OFFCURVE",
"286 -14 CURVE SMOOTH",
"151 -14 OFFCURVE",
"36 90 OFFCURVE",
"36 254 CURVE SMOOTH",
"36 497 OFFCURVE",
"216 665 OFFCURVE",
"404 665 CURVE SMOOTH",
"488 665 OFFCURVE",
"562 632 OFFCURVE",
"613 561 CURVE"
);
}
);
width = 690;
}
);
unicode = 0047;
},
{
glyphname = H;
layers = (
{
layerId = "D726C5A3-D46C-4129-9A2C-DE910460F002";
name = Light;
paths = (
{
closed = 1;
nodes = (
"70 363 LINE",
"439 363 LINE",
"439 629 LINE SMOOTH",
"439 636 OFFCURVE",
"443 640 OFFCURVE",
"450 640 CURVE SMOOTH",
"457 640 OFFCURVE",
"461 636 OFFCURVE",
"461 629 CURVE SMOOTH",
"461 0 LINE SMOOTH",
"461 -7 OFFCURVE",
"457 -11 OFFCURVE",
"450 -11 CURVE SMOOTH",
"443 -11 OFFCURVE",
"439 -7 OFFCURVE",
"439 0 CURVE SMOOTH",
"439 341 LINE",
"70 341 LINE",
"70 -3 LINE SMOOTH",
"70 -10 OFFCURVE",
"66 -14 OFFCURVE",
"59 -14 CURVE SMOOTH",
"52 -14 OFFCURVE",
"48 -10 OFFCURVE",
"48 -3 CURVE SMOOTH",
"48 629 LINE SMOOTH",
"48 636 OFFCURVE",
"52 640 OFFCURVE",
"59 640 CURVE SMOOTH",
"66 640 OFFCURVE",
"70 636 OFFCURVE",
"70 629 CURVE SMOOTH"
);
}
);
width = 504;
}
);
unicode = 0048;
},
{
glyphname = I;
layers = (
{
layerId = "D726C5A3-D46C-4129-9A2C-DE910460F002";
name = Light;
paths = (
{
closed = 1;
nodes = (
"86 21 LINE",
"49 11 LINE",
"44 10 OFFCURVE",
"42 7 OFFCURVE",
"42 1 CURVE SMOOTH",
"42 -9 OFFCURVE",
"46 -13 OFFCURVE",
"54 -11 CURVE SMOOTH",
"154 17 LINE",
"159 19 OFFCURVE",
"162 22 OFFCURVE",
"162 27 CURVE SMOOTH",
"162 34 OFFCURVE",
"156 40 OFFCURVE",
"149 39 CURVE",
"108 28 LINE"
);
},
{
closed = 1;
nodes = (
"108 28 LINE",
"86 21 LINE",
"86 627 LINE",
"47 617 LINE SMOOTH",
"38 615 OFFCURVE",
"34 619 OFFCURVE",
"34 628 CURVE SMOOTH",
"34 633 OFFCURVE",
"37 637 OFFCURVE",
"42 639 CURVE",
"141 667 LINE",
"150 669 OFFCURVE",
"155 665 OFFCURVE",
"155 654 CURVE SMOOTH",
"155 649 OFFCURVE",
"152 646 OFFCURVE",
"147 645 CURVE",
"108 633 LINE"
);
}
);
width = 192;
}
);
unicode = 0049;
},
{
glyphname = J;
layers = (
{
layerId = "D726C5A3-D46C-4129-9A2C-DE910460F002";
name = Light;
paths = (
{
closed = 1;
nodes = (
"39 191 OFFCURVE",
"42 194 OFFCURVE",
"49 194 CURVE SMOOTH",
"65 194 OFFCURVE",
"60 176 OFFCURVE",
"60 162 CURVE",
"59 155 OFFCURVE",
"59 149 OFFCURVE",
"59 146 CURVE SMOOTH",
"59 49 OFFCURVE",
"109 11 OFFCURVE",
"186 11 CURVE SMOOTH",
"293 11 OFFCURVE",
"391 88 OFFCURVE",
"391 188 CURVE SMOOTH",
"391 643 LINE SMOOTH",
"391 650 OFFCURVE",
"395 653 OFFCURVE",
"402 653 CURVE SMOOTH",
"409 653 OFFCURVE",
"413 650 OFFCURVE",
"413 643 CURVE SMOOTH",
"413 188 LINE SMOOTH",
"413 73 OFFCURVE",
"305 -11 OFFCURVE",
"186 -11 CURVE SMOOTH",
"101 -11 OFFCURVE",
"36 40 OFFCURVE",
"36 144 CURVE SMOOTH",
"36 157 OFFCURVE",
"37 170 OFFCURVE",
"39 184 CURVE"
);
}
);
width = 465;
}
);
unicode = 004A;
},
{
glyphname = K;
layers = (
{
layerId = "D726C5A3-D46C-4129-9A2C-DE910460F002";
name = Light;
paths = (
{
closed = 1;
nodes = (
"403 648 LINE",
"408 652 OFFCURVE",
"421 651 OFFCURVE",
"421 639 CURVE SMOOTH",
"421 636 OFFCURVE",
"420 634 OFFCURVE",
"417 632 CURVE",
"132 371 LINE",
"498 8 LINE SMOOTH",
"507 -1 OFFCURVE",
"494 -19 OFFCURVE",
"483 -8 CURVE SMOOTH",
"109 363 LINE",
"109 380 LINE"
);
},
{
closed = 1;
nodes = (
"86 643 LINE SMOOTH",
"86 650 OFFCURVE",
"90 653 OFFCURVE",
"97 653 CURVE SMOOTH",
"104 653 OFFCURVE",
"108 650 OFFCURVE",
"108 643 CURVE SMOOTH",
"108 0 LINE SMOOTH",
"108 -7 OFFCURVE",
"104 -11 OFFCURVE",
"97 -11 CURVE SMOOTH",
"90 -11 OFFCURVE",
"86 -7 OFFCURVE",
"86 0 CURVE SMOOTH"
);
}
);
width = 536;
}
);
unicode = 004B;
},
{
glyphname = L;
layers = (
{
layerId = "D726C5A3-D46C-4129-9A2C-DE910460F002";
name = Light;
paths = (
{
closed = 1;
nodes = (
"86 643 LINE SMOOTH",
"86 650 OFFCURVE",
"90 653 OFFCURVE",
"97 653 CURVE SMOOTH",
"104 653 OFFCURVE",
"108 650 OFFCURVE",
"108 643 CURVE SMOOTH",
"108 13 LINE",
"372 53 LINE",
"379 53 OFFCURVE",
"385 46 OFFCURVE",
"385 39 CURVE SMOOTH",
"385 33 OFFCURVE",
"382 30 OFFCURVE",
"376 30 CURVE",
"99 -11 LINE",
"86 0 LINE"
);
}
);
width = 431;
}
);
unicode = 004C;
},
{
glyphname = M;
layers = (
{
layerId = "D726C5A3-D46C-4129-9A2C-DE910460F002";
name = Light;
paths = (
{
closed = 1;
nodes = (
"105 -3 LINE SMOOTH",
"105 -10 OFFCURVE",
"101 -14 OFFCURVE",
"94 -14 CURVE SMOOTH",
"87 -14 OFFCURVE",
"83 -10 OFFCURVE",
"83 -3 CURVE SMOOTH",
"83 637 LINE",
"104 641 LINE",
"111 624 OFFCURVE",
"120 601 OFFCURVE",
"131 573 CURVE SMOOTH",
"154 516 OFFCURVE",
"209 392 OFFCURVE",
"252 310 CURVE SMOOTH",
"295 228 OFFCURVE",
"309 184 OFFCURVE",
"326 104 CURVE",
"342 196 OFFCURVE",
"383 270 OFFCURVE",
"449 351 CURVE SMOOTH",
"515 431 OFFCURVE",
"570 527 OFFCURVE",
"594 580 CURVE SMOOTH",
"606 607 OFFCURVE",
"615 627 OFFCURVE",
"621 641 CURVE",
"643 637 LINE",
"643 0 LINE SMOOTH",
"643 -7 OFFCURVE",
"639 -11 OFFCURVE",
"632 -11 CURVE SMOOTH",
"624 -11 OFFCURVE",
"620 -7 OFFCURVE",
"620 0 CURVE SMOOTH",
"620 583 LINE",
"588 511 OFFCURVE",
"533 417 OFFCURVE",
"460 330 CURVE SMOOTH",
"387 242 OFFCURVE",
"341 143 OFFCURVE",
"341 22 CURVE",
"319 20 LINE",
"303 129 OFFCURVE",
"279 209 OFFCURVE",
"235 293 CURVE SMOOTH",
"191 377 OFFCURVE",
"144 484 OFFCURVE",
"105 579 CURVE"
);
}
);
width = 709;
}
);
unicode = 004D;
},
{
glyphname = N;
layers = (
{
layerId = "D726C5A3-D46C-4129-9A2C-DE910460F002";
name = Light;
paths = (
{
closed = 1;
nodes = (
"102 0 LINE SMOOTH",
"102 -7 OFFCURVE",
"98 -11 OFFCURVE",
"91 -11 CURVE SMOOTH",
"84 -11 OFFCURVE",
"80 -7 OFFCURVE",
"80 0 CURVE SMOOTH",
"80 634 LINE",
"101 641 LINE",
"182 493 OFFCURVE",
"215 431 OFFCURVE",
"291 343 CURVE SMOOTH",
"366 254 OFFCURVE",
"430 165 OFFCURVE",
"465 74 CURVE",
"465 634 LINE SMOOTH",
"465 641 OFFCURVE",
"469 645 OFFCURVE",
"477 645 CURVE SMOOTH",
"484 645 OFFCURVE",
"488 641 OFFCURVE",
"488 634 CURVE SMOOTH",
"488 0 LINE",
"465 -3 LINE",
"446 78 OFFCURVE",
"407 154 OFFCURVE",
"356 225 CURVE SMOOTH",
"330 260 OFFCURVE",
"300 299 OFFCURVE",
"265 340 CURVE SMOOTH",
"195 423 OFFCURVE",
"146 515 OFFCURVE",
"102 595 CURVE"
);
}
);
width = 527;
}
);
unicode = 004E;
},
{
glyphname = O;
layers = (
{
layerId = "D726C5A3-D46C-4129-9A2C-DE910460F002";
name = Light;
paths = (
{
closed = 1;
nodes = (
"476 634 OFFCURVE",
"526 540 OFFCURVE",
"526 352 CURVE SMOOTH",
"526 181 OFFCURVE",
"379 -11 OFFCURVE",
"248 -11 CURVE SMOOTH",
"238 -11 OFFCURVE",
"216 -7 OFFCURVE",
"181 2 CURVE SMOOTH",
"112 19 OFFCURVE",
"42 137 OFFCURVE",
"42 274 CURVE SMOOTH",
"42 447 OFFCURVE",
"190 664 OFFCURVE",
"329 664 CURVE SMOOTH",
"340 664 OFFCURVE",
"349 663 OFFCURVE",
"355 662 CURVE"
);
},
{
closed = 1;
nodes = (
"341 642 OFFCURVE",
"333 643 OFFCURVE",
"324 643 CURVE SMOOTH",
"209 643 OFFCURVE",
"64 433 OFFCURVE",
"64 274 CURVE SMOOTH",
"64 142 OFFCURVE",
"128 39 OFFCURVE",
"190 23 CURVE SMOOTH",
"221 15 OFFCURVE",
"240 11 OFFCURVE",
"249 11 CURVE SMOOTH",
"360 11 OFFCURVE",
"504 196 OFFCURVE",
"504 352 CURVE SMOOTH",
"504 539 OFFCURVE",
"462 613 OFFCURVE",
"349 640 CURVE SMOOTH"
);
}
);
width = 560;
}
);
unicode = 004F;
},
{
glyphname = P;
layers = (
{
layerId = "D726C5A3-D46C-4129-9A2C-DE910460F002";
name = Light;
paths = (
{
closed = 1;
nodes = (
"144 570 LINE",
"239 627 OFFCURVE",
"343 676 OFFCURVE",
"422 676 CURVE SMOOTH",
"467 676 OFFCURVE",
"498 664 OFFCURVE",
"517 628 CURVE",
"522 617 OFFCURVE",
"524 604 OFFCURVE",
"524 591 CURVE SMOOTH",
"524 472 OFFCURVE",
"293 347 OFFCURVE",
"144 327 CURVE",
"144 3 LINE SMOOTH",
"144 -4 OFFCURVE",
"140 -8 OFFCURVE",
"133 -8 CURVE SMOOTH",
"126 -8 OFFCURVE",
"122 -4 OFFCURVE",
"122 3 CURVE SMOOTH",
"122 528 LINE",
"95 512 LINE",
"90 508 OFFCURVE",
"77 511 OFFCURVE",
"77 522 CURVE SMOOTH",
"77 525 OFFCURVE",
"79 528 OFFCURVE",
"82 530 CURVE SMOOTH",
"122 556 LINE",
"122 637 LINE SMOOTH",
"122 644 OFFCURVE",
"126 648 OFFCURVE",
"133 648 CURVE SMOOTH",
"140 648 OFFCURVE",
"144 644 OFFCURVE",
"144 637 CURVE SMOOTH"
);
},
{
closed = 1;
nodes = (
"144 349 LINE",
"276 365 OFFCURVE",
"504 496 OFFCURVE",
"504 589 CURVE SMOOTH",
"504 600 OFFCURVE",
"502 610 OFFCURVE",
"497 619 CURVE",
"489 644 OFFCURVE",
"468 656 OFFCURVE",
"433 656 CURVE SMOOTH",
"349 656 OFFCURVE",
"209 580 OFFCURVE",
"144 541 CURVE"
);
}
);
width = 584;
}
);
unicode = 0050;
},
{
glyphname = Q;
layers = (
{
layerId = "D726C5A3-D46C-4129-9A2C-DE910460F002";
name = Light;
paths = (
{
closed = 1;
nodes = (
"526 280 OFFCURVE",
"493 191 OFFCURVE",
"438 118 CURVE",
"565 -12 LINE",
"572 -20 OFFCURVE",
"564 -30 OFFCURVE",
"555 -30 CURVE SMOOTH",
"552 -30 OFFCURVE",
"550 -29 OFFCURVE",
"548 -27 CURVE SMOOTH",
"424 100 LINE",
"369 33 OFFCURVE",
"305 -6 OFFCURVE",
"245 -6 CURVE SMOOTH",
"237 -6 OFFCURVE",
"216 -1 OFFCURVE",
"181 8 CURVE SMOOTH",
"112 26 OFFCURVE",
"42 146 OFFCURVE",
"42 285 CURVE SMOOTH",
"42 456 OFFCURVE",
"186 654 OFFCURVE",
"323 654 CURVE SMOOTH",
"332 654 OFFCURVE",
"355 650 OFFCURVE",
"391 643 CURVE SMOOTH",
"463 627 OFFCURVE",
"526 547 OFFCURVE",
"526 363 CURVE SMOOTH"
);
},
{
closed = 1;
nodes = (
"232 17 OFFCURVE",
"240 16 OFFCURVE",
"248 16 CURVE SMOOTH",
"297 16 OFFCURVE",
"356 56 OFFCURVE",
"407 117 CURVE",
"316 211 LINE",
"312 216 OFFCURVE",
"313 229 OFFCURVE",
"325 229 CURVE SMOOTH",
"328 229 OFFCURVE",
"330 228 OFFCURVE",
"332 226 CURVE SMOOTH",
"421 136 LINE",
"470 203 OFFCURVE",
"504 288 OFFCURVE",
"504 363 CURVE SMOOTH",
"504 453 OFFCURVE",
"493 516 OFFCURVE",
"470 553 CURVE SMOOTH",
"424 625 OFFCURVE",
"336 632 OFFCURVE",
"320 632 CURVE SMOOTH",
"203 632 OFFCURVE",
"64 444 OFFCURVE",
"64 285 CURVE SMOOTH",
"64 154 OFFCURVE",
"117 47 OFFCURVE",
"224 19 CURVE SMOOTH"
);
}
);
width = 603;
}
);
unicode = 0051;
},
{
glyphname = R;
layers = (
{
layerId = "D726C5A3-D46C-4129-9A2C-DE910460F002";
name = Light;
paths = (
{
closed = 1;
nodes = (
"100 596 LINE",
"175 632 OFFCURVE",
"260 662 OFFCURVE",
"332 662 CURVE SMOOTH",
"385 662 OFFCURVE",
"427 644 OFFCURVE",
"448 603 CURVE",
"453 591 OFFCURVE",
"455 578 OFFCURVE",
"455 565 CURVE SMOOTH",
"455 456 OFFCURVE",
"263 357 OFFCURVE",
"123 357 CURVE",
"498 8 LINE",
"507 -1 OFFCURVE",
"494 -19 OFFCURVE",
"483 -8 CURVE",
"100 348 LINE",
"100 6 LINE SMOOTH",
"100 -1 OFFCURVE",
"96 -5 OFFCURVE",
"89 -5 CURVE SMOOTH",
"82 -5 OFFCURVE",
"78 -1 OFFCURVE",
"78 6 CURVE SMOOTH",
"78 560 LINE",
"50 546 LINE",
"46 543 OFFCURVE",
"34 547 OFFCURVE",
"34 558 CURVE SMOOTH",
"34 561 OFFCURVE",
"36 564 OFFCURVE",
"39 566 CURVE",
"78 586 LINE",
"78 640 LINE SMOOTH",
"78 647 OFFCURVE",
"82 651 OFFCURVE",
"89 651 CURVE SMOOTH",
"96 651 OFFCURVE",
"100 647 OFFCURVE",
"100 640 CURVE SMOOTH"
);
},
{
closed = 1;
nodes = (
"100 381 LINE",
"110 378 OFFCURVE",
"122 377 OFFCURVE",
"136 377 CURVE SMOOTH",
"255 377 OFFCURVE",
"436 479 OFFCURVE",
"436 564 CURVE SMOOTH",
"436 573 OFFCURVE",
"433 583 OFFCURVE",
"428 594 CURVE",
"416 626 OFFCURVE",
"388 639 OFFCURVE",
"343 639 CURVE SMOOTH",
"278 639 OFFCURVE",
"184 605 OFFCURVE",
"100 569 CURVE"
);
}
);
width = 550;
}
);
unicode = 0052;
},
{
glyphname = S;
layers = (
{
layerId = "D726C5A3-D46C-4129-9A2C-DE910460F002";
name = Light;
paths = (
{
closed = 1;
nodes = (
"520 575 OFFCURVE",
"503 560 OFFCURVE",
"494 571 CURVE",
"457 610 OFFCURVE",
"417 624 OFFCURVE",
"376 624 CURVE SMOOTH",
"368 624 OFFCURVE",
"359 623 OFFCURVE",
"348 622 CURVE SMOOTH",
"337 621 OFFCURVE",
"312 617 OFFCURVE",
"274 610 CURVE SMOOTH",
"198 597 OFFCURVE",
"106 512 OFFCURVE",
"106 433 CURVE SMOOTH",
"106 380 OFFCURVE",
"144 342 OFFCURVE",
"211 342 CURVE SMOOTH",
"244 342 OFFCURVE",
"269 346 OFFCURVE",
"334 373 CURVE SMOOTH",
"366 386 OFFCURVE",
"401 393 OFFCURVE",
"438 393 CURVE SMOOTH",
"526 393 OFFCURVE",
"578 335 OFFCURVE",
"578 255 CURVE SMOOTH",
"578 172 OFFCURVE",
"516 80 OFFCURVE",
"441 40 CURVE SMOOTH",
"366 -1 OFFCURVE",
"317 -12 OFFCURVE",
"268 -12 CURVE SMOOTH",
"163 -12 OFFCURVE",
"80 47 OFFCURVE",
"80 126 CURVE SMOOTH",
"80 133 OFFCURVE",
"84 137 OFFCURVE",
"91 137 CURVE SMOOTH",
"98 137 OFFCURVE",
"102 133 OFFCURVE",
"102 126 CURVE SMOOTH",
"102 63 OFFCURVE",
"175 10 OFFCURVE",
"271 10 CURVE SMOOTH",
"319 10 OFFCURVE",
"354 17 OFFCURVE",
"427 59 CURVE SMOOTH",
"499 101 OFFCURVE",
"557 186 OFFCURVE",
"557 259 CURVE SMOOTH",
"557 324 OFFCURVE",
"512 370 OFFCURVE",
"436 370 CURVE SMOOTH",
"402 370 OFFCURVE",
"364 362 OFFCURVE",
"323 345 CURVE SMOOTH",
"282 328 OFFCURVE",
"243 319 OFFCURVE",
"208 319 CURVE SMOOTH",
"131 319 OFFCURVE",
"86 366 OFFCURVE",
"86 433 CURVE SMOOTH",
"86 525 OFFCURVE",
"187 624 OFFCURVE",
"263 634 CURVE SMOOTH",
"301 639 OFFCURVE",
"326 642 OFFCURVE",
"338 644 CURVE",
"350 645 OFFCURVE",
"362 646 OFFCURVE",
"373 646 CURVE SMOOTH",
"422 646 OFFCURVE",
"468 630 OFFCURVE",
"511 586 CURVE"
);
}
);
width = 642;
}
);
unicode = 0053;
},
{
glyphname = T;
layers = (
{
layerId = "D726C5A3-D46C-4129-9A2C-DE910460F002";
name = Light;
paths = (
{
closed = 1;
nodes = (
"211 606 LINE",
"211 609 OFFCURVE",
"214 611 OFFCURVE",
"220 611 CURVE SMOOTH",
"224 611 OFFCURVE",
"227 610 OFFCURVE",
"229 608 CURVE",
"457 653 LINE",
"466 653 OFFCURVE",
"470 649 OFFCURVE",
"470 640 CURVE SMOOTH",
"470 634 OFFCURVE",
"467 631 OFFCURVE",
"461 631 CURVE",
"233 587 LINE",
"233 0 LINE SMOOTH",
"233 -7 OFFCURVE",
"229 -11 OFFCURVE",
"222 -11 CURVE SMOOTH",
"215 -11 OFFCURVE",
"211 -7 OFFCURVE",
"211 0 CURVE SMOOTH",
"211 583 LINE",
"27 548 LINE",
"18 548 OFFCURVE",
"14 552 OFFCURVE",
"14 561 CURVE SMOOTH",
"14 567 OFFCURVE",
"17 570 OFFCURVE",
"23 570 CURVE"
);
}
);
width = 499;
}
);
unicode = 0054;
},
{
glyphname = U;
layers = (
{
layerId = "D726C5A3-D46C-4129-9A2C-DE910460F002";
name = Light;
paths = (
{
closed = 1;
nodes = (
"84 637 LINE SMOOTH",
"84 644 OFFCURVE",
"88 648 OFFCURVE",
"95 648 CURVE SMOOTH",
"102 648 OFFCURVE",
"106 644 OFFCURVE",
"106 637 CURVE SMOOTH",
"105 180 LINE SMOOTH",
"105 68 OFFCURVE",
"129 11 OFFCURVE",
"249 11 CURVE SMOOTH",
"338 11 OFFCURVE",
"464 130 OFFCURVE",
"464 245 CURVE SMOOTH",
"464 639 LINE SMOOTH",
"464 646 OFFCURVE",
"468 650 OFFCURVE",
"476 650 CURVE SMOOTH",
"483 650 OFFCURVE",
"487 646 OFFCURVE",
"487 639 CURVE SMOOTH",
"487 245 LINE SMOOTH",
"487 113 OFFCURVE",
"354 -11 OFFCURVE",
"249 -11 CURVE SMOOTH",
"117 -11 OFFCURVE",
"83 65 OFFCURVE",
"83 180 CURVE SMOOTH"
);
}
);
width = 547;
}
);
unicode = 0055;
},
{
glyphname = V;
layers = (
{
layerId = "D726C5A3-D46C-4129-9A2C-DE910460F002";
name = Light;
paths = (
{
closed = 1;
nodes = (
"6 644 OFFCURVE",
"9 649 OFFCURVE",
"20 649 CURVE SMOOTH",
"25 649 OFFCURVE",
"30 641 OFFCURVE",
"36 626 CURVE",
"41 610 OFFCURVE",
"53 569 OFFCURVE",
"71 504 CURVE SMOOTH",
"106 372 OFFCURVE",
"155 170 OFFCURVE",
"172 75 CURVE",
"200 212 OFFCURVE",
"257 332 OFFCURVE",
"331 462 CURVE SMOOTH",
"368 527 OFFCURVE",
"394 574 OFFCURVE",
"411 603 CURVE SMOOTH",
"428 632 OFFCURVE",
"438 647 OFFCURVE",
"442 647 CURVE SMOOTH",
"450 647 OFFCURVE",
"458 638 OFFCURVE",
"453 630 CURVE",
"382 507 OFFCURVE",
"296 365 OFFCURVE",
"238 219 CURVE SMOOTH",
"209 146 OFFCURVE",
"190 73 OFFCURVE",
"183 0 CURVE",
"161 0 LINE",
"153 81 OFFCURVE",
"105 289 OFFCURVE",
"60 459 CURVE SMOOTH",
"37 544 OFFCURVE",
"20 602 OFFCURVE",
"9 634 CURVE"
);
}
);
width = 499;
}
);
unicode = 0056;
},
{
glyphname = W;
layers = (
{
layerId = "D726C5A3-D46C-4129-9A2C-DE910460F002";
name = Light;
paths = (
{
closed = 1;
nodes = (
"44 642 OFFCURVE",
"48 646 OFFCURVE",
"55 646 CURVE SMOOTH",
"62 646 OFFCURVE",
"66 642 OFFCURVE",
"66 635 CURVE SMOOTH",
"66 616 OFFCURVE",
"73 572 OFFCURVE",
"88 504 CURVE SMOOTH",
"102 436 OFFCURVE",
"118 361 OFFCURVE",
"135 279 CURVE SMOOTH",
"152 197 OFFCURVE",
"164 133 OFFCURVE",
"171 87 CURVE",
"182 138 OFFCURVE",
"204 217 OFFCURVE",
"237 324 CURVE SMOOTH",
"270 431 OFFCURVE",
"292 504 OFFCURVE",
"303 542 CURVE SMOOTH",
"314 580 OFFCURVE",
"319 611 OFFCURVE",
"319 635 CURVE",
"341 635 LINE",
"341 608 OFFCURVE",
"348 568 OFFCURVE",
"361 515 CURVE SMOOTH",
"374 462 OFFCURVE",
"394 385 OFFCURVE",
"423 282 CURVE SMOOTH",
"451 179 OFFCURVE",
"469 107 OFFCURVE",
"478 68 CURVE",
"488 117 OFFCURVE",
"505 184 OFFCURVE",
"528 267 CURVE SMOOTH",
"574 434 OFFCURVE",
"623 605 OFFCURVE",
"623 641 CURVE SMOOTH",
"623 648 OFFCURVE",
"627 652 OFFCURVE",
"634 652 CURVE SMOOTH",
"641 652 OFFCURVE",
"645 648 OFFCURVE",
"645 641 CURVE SMOOTH",
"645 616 OFFCURVE",
"633 560 OFFCURVE",
"609 474 CURVE SMOOTH",
"561 301 OFFCURVE",
"499 92 OFFCURVE",
"490 3 CURVE",
"468 2 LINE",
"463 37 OFFCURVE",
"456 75 OFFCURVE",
"445 116 CURVE SMOOTH",
"434 157 OFFCURVE",
"414 230 OFFCURVE",
"385 337 CURVE SMOOTH",
"356 444 OFFCURVE",
"337 517 OFFCURVE",
"329 557 CURVE",
"321 521 OFFCURVE",
"302 457 OFFCURVE",
"272 366 CURVE SMOOTH",
"212 182 OFFCURVE",
"180 80 OFFCURVE",
"180 0 CURVE",
"158 0 LINE",
"158 103 OFFCURVE",
"134 204 OFFCURVE",
"83 432 CURVE SMOOTH",
"57 546 OFFCURVE",
"44 614 OFFCURVE",
"44 635 CURVE SMOOTH"
);
}
);
width = 699;
}
);
unicode = 0057;
},
{
glyphname = X;
layers = (
{
layerId = "D726C5A3-D46C-4129-9A2C-DE910460F002";
name = Light;
paths = (
{
closed = 1;
nodes = (
"151 462 OFFCURVE",
"81 593 OFFCURVE",
"68 633 CURVE SMOOTH",
"65 642 OFFCURVE",
"72 648 OFFCURVE",
"80 648 CURVE SMOOTH",
"85 648 OFFCURVE",
"90 642 OFFCURVE",
"93 631 CURVE SMOOTH",
"96 620 OFFCURVE",
"105 599 OFFCURVE",
"121 568 CURVE SMOOTH",
"137 537 OFFCURVE",
"172 470 OFFCURVE",
"225 369 CURVE",
"274 447 OFFCURVE",
"312 510 OFFCURVE",
"339 557 CURVE SMOOTH",
"366 604 OFFCURVE",
"380 632 OFFCURVE",
"380 643 CURVE SMOOTH",
"380 650 OFFCURVE",
"384 653 OFFCURVE",
"392 653 CURVE SMOOTH",
"399 653 OFFCURVE",
"403 650 OFFCURVE",
"403 643 CURVE SMOOTH",
"403 631 OFFCURVE",
"397 614 OFFCURVE",
"386 591 CURVE SMOOTH",
"362 545 OFFCURVE",
"298 437 OFFCURVE",
"239 345 CURVE",
"295 242 OFFCURVE",
"337 162 OFFCURVE",
"370 87 CURVE SMOOTH",
"387 50 OFFCURVE",
"397 22 OFFCURVE",
"400 5 CURVE",
"400 -4 OFFCURVE",
"396 -8 OFFCURVE",
"387 -8 CURVE SMOOTH",
"381 -8 OFFCURVE",
"378 -5 OFFCURVE",
"378 1 CURVE",
"370 37 OFFCURVE",
"335 114 OFFCURVE",
"303 178 CURVE",
"286 209 OFFCURVE",
"260 258 OFFCURVE",
"225 323 CURVE",
"174 240 OFFCURVE",
"140 184 OFFCURVE",
"123 157 CURVE SMOOTH",
"90 101 OFFCURVE",
"51 28 OFFCURVE",
"51 1 CURVE SMOOTH",
"51 -7 OFFCURVE",
"48 -11 OFFCURVE",
"41 -11 CURVE SMOOTH",
"33 -11 OFFCURVE",
"29 -7 OFFCURVE",
"29 1 CURVE",
"33 33 OFFCURVE",
"76 117 OFFCURVE",
"120 193 CURVE SMOOTH",
"142 231 OFFCURVE",
"173 282 OFFCURVE",
"212 347 CURVE"
);
}
);
width = 445;
}
);
unicode = 0058;
},
{
glyphname = Y;
layers = (
{
layerId = "D726C5A3-D46C-4129-9A2C-DE910460F002";
name = Light;
paths = (
{
closed = 1;
nodes = (
"310 390 LINE",
"572 648 LINE",
"577 652 OFFCURVE",
"589 651 OFFCURVE",
"589 639 CURVE SMOOTH",
"589 636 OFFCURVE",
"588 634 OFFCURVE",
"586 632 CURVE SMOOTH",
"321 369 LINE",
"321 0 LINE SMOOTH",
"321 -7 OFFCURVE",
"317 -11 OFFCURVE",
"310 -11 CURVE SMOOTH",
"303 -11 OFFCURVE",
"299 -7 OFFCURVE",
"299 0 CURVE SMOOTH",
"299 369 LINE",
"26 634 LINE SMOOTH",
"17 643 OFFCURVE",
"30 659 OFFCURVE",
"41 651 CURVE"
);
}
);
width = 627;
}
);
unicode = 0059;
},
{
glyphname = Z;
layers = (
{
layerId = "D726C5A3-D46C-4129-9A2C-DE910460F002";
name = Light;
paths = (
{
closed = 1;
nodes = (
"105 570 LINE",
"105 563 OFFCURVE",
"102 560 OFFCURVE",
"95 560 CURVE SMOOTH",
"87 560 OFFCURVE",
"83 564 OFFCURVE",
"83 572 CURVE",
"86 633 LINE",
"97 643 LINE",
"452 654 LINE",
"461 637 LINE",
"67 12 LINE",
"422 25 LINE",
"429 77 LINE",
"429 83 OFFCURVE",
"432 86 OFFCURVE",
"439 86 CURVE SMOOTH",
"448 86 OFFCURVE",
"452 82 OFFCURVE",
"452 73 CURVE",
"443 12 LINE",
"432 3 LINE",
"47 -11 LINE",
"38 6 LINE",
"431 632 LINE",
"370 632 OFFCURVE",
"224 625 OFFCURVE",
"108 620 CURVE"
);
}
);
width = 499;
}
);
unicode = 005A;
},
{
glyphname = bracketleft;
layers = (
{
layerId = "D726C5A3-D46C-4129-9A2C-DE910460F002";
name = Light;
paths = (
{
closed = 1;
nodes = (
"250 648 LINE",
"259 648 OFFCURVE",
"263 644 OFFCURVE",
"263 635 CURVE SMOOTH",
"263 629 OFFCURVE",
"260 626 OFFCURVE",
"254 626 CURVE",
"66 586 LINE",
"66 -194 LINE",
"253 -158 LINE",
"262 -158 OFFCURVE",
"266 -162 OFFCURVE",
"266 -171 CURVE SMOOTH",
"266 -177 OFFCURVE",
"263 -180 OFFCURVE",
"257 -180 CURVE",
"57 -219 LINE",
"44 -208 LINE",
"44 596 LINE",
"54 607 LINE"
);
}
);
width = 297;
}
);
unicode = 005B;
},
{
glyphname = backslash;
layers = (
{
layerId = "D726C5A3-D46C-4129-9A2C-DE910460F002";
name = Light;
paths = (
{
closed = 1;
nodes = (
"45 636 LINE SMOOTH",
"42 645 OFFCURVE",
"49 651 OFFCURVE",
"57 651 CURVE SMOOTH",
"62 651 OFFCURVE",
"65 649 OFFCURVE",
"66 644 CURVE",
"262 18 LINE SMOOTH",
"265 8 OFFCURVE",
"262 3 OFFCURVE",
"251 3 CURVE SMOOTH",
"246 3 OFFCURVE",
"243 5 OFFCURVE",
"242 10 CURVE"
);
}
);
width = 307;
}
);
unicode = 005C;
},
{
glyphname = bracketright;
layers = (
{
layerId = "D726C5A3-D46C-4129-9A2C-DE910460F002";
name = Light;
paths = (
{
closed = 1;
nodes = (
"52 587 LINE",
"43 587 OFFCURVE",
"39 591 OFFCURVE",
"39 600 CURVE SMOOTH",
"39 606 OFFCURVE",
"42 609 OFFCURVE",
"48 609 CURVE",
"253 651 LINE",
"266 640 LINE",
"266 -163 LINE",
"258 -175 LINE",
"53 -222 LINE",
"44 -222 OFFCURVE",
"39 -217 OFFCURVE",
"39 -207 CURVE SMOOTH",
"39 -202 OFFCURVE",
"42 -199 OFFCURVE",
"47 -199 CURVE",
"244 -154 LINE",
"244 626 LINE"
);
}
);
width = 312;
}
);
unicode = 005D;
},
{
glyphname = asciicircum;
layers = (
{
layerId = "D726C5A3-D46C-4129-9A2C-DE910460F002";
name = Light;
paths = (
{
closed = 1;
nodes = (
"103 431 LINE",
"101 428 OFFCURVE",
"99 427 OFFCURVE",
"96 427 CURVE SMOOTH",
"88 427 OFFCURVE",
"80 436 OFFCURVE",
"85 444 CURVE",
"237 649 LINE",
"255 649 LINE",
"416 444 LINE SMOOTH",
"420 439 OFFCURVE",
"418 427 OFFCURVE",
"406 427 CURVE SMOOTH",
"403 427 OFFCURVE",
"401 428 OFFCURVE",
"399 431 CURVE",
"247 625 LINE"
);
}
);
width = 470;
}
);
unicode = 005E;
},
{
glyphname = underscore;
layers = (
{
layerId = "D726C5A3-D46C-4129-9A2C-DE910460F002";
name = Light;
paths = (
{
closed = 1;
nodes = (
"14 -102 LINE SMOOTH",
"7 -102 OFFCURVE",
"3 -98 OFFCURVE",
"3 -91 CURVE SMOOTH",
"3 -84 OFFCURVE",
"7 -80 OFFCURVE",
"14 -80 CURVE SMOOTH",
"474 -80 LINE SMOOTH",
"481 -80 OFFCURVE",
"485 -84 OFFCURVE",
"485 -91 CURVE SMOOTH",
"485 -98 OFFCURVE",
"481 -102 OFFCURVE",
"474 -102 CURVE SMOOTH"
);
}
);
width = 484;
}
);
unicode = 005F;
},
{
glyphname = grave;
layers = (
{
layerId = "D726C5A3-D46C-4129-9A2C-DE910460F002";
name = Light;
paths = (
{
closed = 1;
nodes = (
"45 632 LINE",
"36 640 OFFCURVE",
"51 656 OFFCURVE",
"60 648 CURVE",
"190 521 LINE",
"199 513 OFFCURVE",
"186 496 OFFCURVE",
"175 504 CURVE"
);
}
);
width = 226;
}
);
unicode = 0060;
},
{
glyphname = a;
layers = (
{
layerId = "D726C5A3-D46C-4129-9A2C-DE910460F002";
name = Light;
paths = (
{
closed = 1;
nodes = (
"39 134 OFFCURVE",
"159 223 OFFCURVE",
"367 223 CURVE",
"367 296 LINE SMOOTH",
"367 377 OFFCURVE",
"340 428 OFFCURVE",
"276 428 CURVE SMOOTH",
"232 428 OFFCURVE",
"170 380 OFFCURVE",
"137 341 CURVE SMOOTH",
"120 321 OFFCURVE",
"110 311 OFFCURVE",
"107 311 CURVE SMOOTH",
"100 311 OFFCURVE",
"96 315 OFFCURVE",
"96 323 CURVE SMOOTH",
"96 326 OFFCURVE",
"105 337 OFFCURVE",
"124 358 CURVE SMOOTH",
"160 399 OFFCURVE",
"220 450 OFFCURVE",
"276 450 CURVE SMOOTH",
"355 450 OFFCURVE",
"390 384 OFFCURVE",
"390 296 CURVE SMOOTH",
"390 0 LINE SMOOTH",
"390 -7 OFFCURVE",
"386 -11 OFFCURVE",
"379 -11 CURVE SMOOTH",
"371 -11 OFFCURVE",
"367 -7 OFFCURVE",
"367 0 CURVE SMOOTH",
"367 85 LINE",
"282 21 OFFCURVE",
"198 -10 OFFCURVE",
"133 -10 CURVE SMOOTH",
"80 -10 OFFCURVE",
"44 12 OFFCURVE",
"39 45 CURVE"
);
},
{
closed = 1;
nodes = (
"367 201 LINE",
"267 201 OFFCURVE",
"190 184 OFFCURVE",
"136 150 CURVE SMOOTH",
"82 115 OFFCURVE",
"57 81 OFFCURVE",
"61 47 CURVE",
"58 38 OFFCURVE",
"64 30 OFFCURVE",
"78 23 CURVE SMOOTH",
"91 16 OFFCURVE",
"110 12 OFFCURVE",
"133 12 CURVE SMOOTH",
"200 12 OFFCURVE",
"279 40 OFFCURVE",
"367 113 CURVE"
);
}
);
width = 448;
}
);
unicode = 0061;
},
{
glyphname = b;
layers = (
{
layerId = "D726C5A3-D46C-4129-9A2C-DE910460F002";
name = Light;
paths = (
{
closed = 1;
nodes = (
"62 298 LINE",
"137 395 OFFCURVE",
"222 449 OFFCURVE",
"286 449 CURVE SMOOTH",
"374 449 OFFCURVE",
"369 377 OFFCURVE",
"370 360 CURVE",
"371 351 OFFCURVE",
"371 343 OFFCURVE",
"371 336 CURVE SMOOTH",
"371 199 OFFCURVE",
"259 95 OFFCURVE",
"149 35 CURVE SMOOTH",
"94 4 OFFCURVE",
"62 -11 OFFCURVE",
"54 -11 CURVE",
"40 -1 LINE",
"40 252 LINE",
"37 257 OFFCURVE",
"36 261 OFFCURVE",
"39 266 CURVE",
"40 303 OFFCURVE",
"41 388 OFFCURVE",
"41 412 CURVE SMOOTH",
"41 449 LINE",
"41 481 LINE",
"41 508 LINE",
"41 531 LINE",
"41 549 LINE",
"41 564 LINE",
"41 576 LINE SMOOTH",
"41 586 OFFCURVE",
"41 595 OFFCURVE",
"41 602 CURVE SMOOTH",
"41 609 OFFCURVE",
"41 614 OFFCURVE",
"40 619 CURVE",
"40 626 OFFCURVE",
"44 630 OFFCURVE",
"51 630 CURVE SMOOTH",
"58 630 OFFCURVE",
"62 626 OFFCURVE",
"62 619 CURVE SMOOTH"
);
},
{
closed = 1;
nodes = (
"62 16 LINE",
"239 93 OFFCURVE",
"348 213 OFFCURVE",
"348 334 CURVE SMOOTH",
"348 339 OFFCURVE",
"348 345 OFFCURVE",
"348 352 CURVE",
"347 365 OFFCURVE",
"357 427 OFFCURVE",
"286 427 CURVE SMOOTH",
"223 427 OFFCURVE",
"141 374 OFFCURVE",
"62 261 CURVE"
);
}
);
width = 411;
}
);
unicode = 0062;
},
{
glyphname = c;
layers = (
{
layerId = "D726C5A3-D46C-4129-9A2C-DE910460F002";
name = Light;
paths = (
{
closed = 1;
nodes = (
"375 369 OFFCURVE",
"367 360 OFFCURVE",
"359 360 CURVE SMOOTH",
"355 360 OFFCURVE",
"349 368 OFFCURVE",
"341 383 CURVE SMOOTH",
"325 414 OFFCURVE",
"290 443 OFFCURVE",
"254 443 CURVE SMOOTH",
"166 443 OFFCURVE",
"64 282 OFFCURVE",
"64 169 CURVE SMOOTH",
"64 60 OFFCURVE",
"108 12 OFFCURVE",
"172 12 CURVE SMOOTH",
"240 12 OFFCURVE",
"327 76 OFFCURVE",
"347 113 CURVE",
"356 132 OFFCURVE",
"363 141 OFFCURVE",
"368 141 CURVE SMOOTH",
"375 141 OFFCURVE",
"382 134 OFFCURVE",
"379 126 CURVE",
"344 55 OFFCURVE",
"250 -9 OFFCURVE",
"170 -9 CURVE SMOOTH",
"94 -9 OFFCURVE",
"42 44 OFFCURVE",
"42 169 CURVE SMOOTH",
"42 289 OFFCURVE",
"152 464 OFFCURVE",
"252 464 CURVE SMOOTH",
"296 464 OFFCURVE",
"334 440 OFFCURVE",
"370 377 CURVE"
);
}
);
width = 441;
}
);
unicode = 0063;
},
{
glyphname = d;
layers = (
{
layerId = "D726C5A3-D46C-4129-9A2C-DE910460F002";
name = Light;
paths = (
{
closed = 1;
nodes = (
"416 306 LINE",
"416 276 LINE",
"416 0 LINE SMOOTH",
"416 -7 OFFCURVE",
"412 -11 OFFCURVE",
"405 -11 CURVE SMOOTH",
"397 -11 OFFCURVE",
"393 -7 OFFCURVE",
"393 0 CURVE SMOOTH",
"393 200 LINE",
"342 93 OFFCURVE",
"223 -8 OFFCURVE",
"132 -8 CURVE SMOOTH",
"111 -8 OFFCURVE",
"93 -3 OFFCURVE",
"77 7 CURVE",
"48 31 OFFCURVE",
"36 60 OFFCURVE",
"36 103 CURVE SMOOTH",
"36 231 OFFCURVE",
"186 402 OFFCURVE",
"309 402 CURVE SMOOTH",
"335 402 OFFCURVE",
"358 395 OFFCURVE",
"379 380 CURVE",
"393 363 LINE",
"393 634 LINE SMOOTH",
"393 641 OFFCURVE",
"397 645 OFFCURVE",
"405 645 CURVE SMOOTH",
"412 645 OFFCURVE",
"416 641 OFFCURVE",
"416 634 CURVE SMOOTH"
);
},
{
closed = 1;
nodes = (
"102 16 OFFCURVE",
"117 11 OFFCURVE",
"134 11 CURVE SMOOTH",
"223 11 OFFCURVE",
"369 156 OFFCURVE",
"393 265 CURVE",
"393 322 LINE",
"388 340 OFFCURVE",
"378 354 OFFCURVE",
"364 363 CURVE",
"349 376 OFFCURVE",
"331 383 OFFCURVE",
"310 383 CURVE SMOOTH",
"207 383 OFFCURVE",
"54 210 OFFCURVE",
"54 98 CURVE SMOOTH",
"54 65 OFFCURVE",
"66 41 OFFCURVE",
"90 26 CURVE"
);
}
);
width = 475;
}
);
unicode = 0064;
},
{
glyphname = e;
layers = (
{
layerId = "D726C5A3-D46C-4129-9A2C-DE910460F002";
name = Light;
paths = (
{
closed = 1;
nodes = (
"65 248 LINE",
"56 219 OFFCURVE",
"52 191 OFFCURVE",
"52 165 CURVE SMOOTH",
"52 120 OFFCURVE",
"64 81 OFFCURVE",
"89 50 CURVE",
"102 29 OFFCURVE",
"137 16 OFFCURVE",
"174 16 CURVE SMOOTH",
"261 16 OFFCURVE",
"365 86 OFFCURVE",
"383 142 CURVE SMOOTH",
"392 169 OFFCURVE",
"398 183 OFFCURVE",
"403 183 CURVE SMOOTH",
"412 183 OFFCURVE",
"416 178 OFFCURVE",
"414 168 CURVE",
"378 59 OFFCURVE",
"272 -6 OFFCURVE",
"176 -6 CURVE SMOOTH",
"129 -6 OFFCURVE",
"94 6 OFFCURVE",
"69 40 CURVE SMOOTH",
"44 74 OFFCURVE",
"29 123 OFFCURVE",
"29 172 CURVE SMOOTH",
"29 295 OFFCURVE",
"119 425 OFFCURVE",
"178 440 CURVE SMOOTH",
"207 447 OFFCURVE",
"225 451 OFFCURVE",
"231 452 CURVE",
"237 452 OFFCURVE",
"242 452 OFFCURVE",
"245 452 CURVE SMOOTH",
"313 452 OFFCURVE",
"374 415 OFFCURVE",
"402 354 CURVE",
"394 338 LINE"
);
},
{
closed = 1;
nodes = (
"376 355 LINE",
"349 402 OFFCURVE",
"301 429 OFFCURVE",
"244 429 CURVE SMOOTH",
"217 429 OFFCURVE",
"183 431 OFFCURVE",
"133 375 CURVE SMOOTH",
"108 346 OFFCURVE",
"88 313 OFFCURVE",
"73 274 CURVE"
);
}
);
width = 455;
}
);
unicode = 0065;
},
{
glyphname = f;
layers = (
{
layerId = "D726C5A3-D46C-4129-9A2C-DE910460F002";
name = Light;
paths = (
{
closed = 1;
nodes = (
"177 393 LINE",
"177 0 LINE SMOOTH",
"177 -7 OFFCURVE",
"173 -11 OFFCURVE",
"166 -11 CURVE SMOOTH",
"159 -11 OFFCURVE",
"155 -7 OFFCURVE",
"155 0 CURVE SMOOTH",
"155 385 LINE",
"47 356 LINE",
"38 354 OFFCURVE",
"34 358 OFFCURVE",
"34 367 CURVE SMOOTH",
"34 372 OFFCURVE",
"37 376 OFFCURVE",
"42 378 CURVE",
"155 410 LINE",
"155 569 LINE SMOOTH",
"155 632 OFFCURVE",
"193 665 OFFCURVE",
"244 665 CURVE SMOOTH",
"285 665 OFFCURVE",
"322 643 OFFCURVE",
"334 600 CURVE SMOOTH",
"337 590 OFFCURVE",
"334 585 OFFCURVE",
"323 585 CURVE SMOOTH",
"319 585 OFFCURVE",
"315 590 OFFCURVE",
"312 600 CURVE",
"305 620 OFFCURVE",
"273 642 OFFCURVE",
"244 642 CURVE SMOOTH",
"207 642 OFFCURVE",
"177 617 OFFCURVE",
"177 569 CURVE SMOOTH",
"177 417 LINE",
"324 458 LINE",
"333 460 OFFCURVE",
"338 456 OFFCURVE",
"338 446 CURVE SMOOTH",
"338 441 OFFCURVE",
"335 438 OFFCURVE",
"330 436 CURVE"
);
}
);
width = 374;
}
);
unicode = 0066;
},
{
glyphname = g;
layers = (
{
layerId = "D726C5A3-D46C-4129-9A2C-DE910460F002";
name = Light;
paths = (
{
closed = 1;
nodes = (
"369 429 OFFCURVE",
"373 423 OFFCURVE",
"373 419 CURVE",
"378 419 OFFCURVE",
"380 416 OFFCURVE",
"380 409 CURVE SMOOTH",
"380 -35 LINE SMOOTH",
"380 -128 OFFCURVE",
"315 -173 OFFCURVE",
"234 -173 CURVE SMOOTH",
"173 -173 OFFCURVE",
"114 -145 OFFCURVE",
"99 -102 CURVE",
"99 -93 OFFCURVE",
"104 -88 OFFCURVE",
"113 -88 CURVE SMOOTH",
"117 -88 OFFCURVE",
"119 -90 OFFCURVE",
"119 -95 CURVE",
"128 -128 OFFCURVE",
"175 -150 OFFCURVE",
"230 -150 CURVE SMOOTH",
"299 -150 OFFCURVE",
"358 -112 OFFCURVE",
"358 -35 CURVE",
"357 299 LINE",
"348 268 OFFCURVE",
"332 232 OFFCURVE",
"295 155 CURVE",
"242 63 OFFCURVE",
"171 -4 OFFCURVE",
"112 -4 CURVE SMOOTH",
"103 -4 OFFCURVE",
"93 -2 OFFCURVE",
"84 2 CURVE",
"59 17 OFFCURVE",
"47 56 OFFCURVE",
"47 104 CURVE SMOOTH",
"47 176 OFFCURVE",
"69 258 OFFCURVE",
"129 326 CURVE SMOOTH",
"188 393 OFFCURVE",
"282 440 OFFCURVE",
"338 440 CURVE SMOOTH",
"349 440 OFFCURVE",
"357 439 OFFCURVE",
"362 436 CURVE"
);
},
{
closed = 1;
nodes = (
"93 254 OFFCURVE",
"69 168 OFFCURVE",
"69 96 CURVE SMOOTH",
"69 52 OFFCURVE",
"77 27 OFFCURVE",
"93 22 CURVE",
"98 19 OFFCURVE",
"104 17 OFFCURVE",
"111 17 CURVE SMOOTH",
"156 17 OFFCURVE",
"230 82 OFFCURVE",
"276 166 CURVE SMOOTH",
"322 249 OFFCURVE",
"357 357 OFFCURVE",
"357 402 CURVE SMOOTH",
"357 412 OFFCURVE",
"355 417 OFFCURVE",
"351 417 CURVE",
"350 418 OFFCURVE",
"346 419 OFFCURVE",
"340 419 CURVE SMOOTH",
"295 419 OFFCURVE",
"204 381 OFFCURVE",
"132 297 CURVE SMOOTH"
);
}
);
width = 436;
}
);
unicode = 0067;
},
{
glyphname = h;
layers = (
{
layerId = "D726C5A3-D46C-4129-9A2C-DE910460F002";
name = Light;
paths = (
{
closed = 1;
nodes = (
"105 322 LINE",
"161 401 OFFCURVE",
"241 464 OFFCURVE",
"300 464 CURVE SMOOTH",
"348 464 OFFCURVE",
"377 425 OFFCURVE",
"377 332 CURVE SMOOTH",
"377 0 LINE SMOOTH",
"377 -7 OFFCURVE",
"373 -11 OFFCURVE",
"366 -11 CURVE SMOOTH",
"359 -11 OFFCURVE",
"355 -7 OFFCURVE",
"355 0 CURVE SMOOTH",
"355 332 LINE SMOOTH",
"355 408 OFFCURVE",
"332 442 OFFCURVE",
"295 442 CURVE SMOOTH",
"242 442 OFFCURVE",
"162 371 OFFCURVE",
"105 283 CURVE",
"105 0 LINE SMOOTH",
"105 -7 OFFCURVE",
"101 -11 OFFCURVE",
"94 -11 CURVE SMOOTH",
"87 -11 OFFCURVE",
"83 -7 OFFCURVE",
"83 0 CURVE SMOOTH",
"83 637 LINE SMOOTH",
"83 644 OFFCURVE",
"87 648 OFFCURVE",
"94 648 CURVE SMOOTH",
"101 648 OFFCURVE",
"105 644 OFFCURVE",
"105 637 CURVE SMOOTH"
);
}
);
width = 436;
}
);
unicode = 0068;
},
{
glyphname = i;
layers = (
{
layerId = "D726C5A3-D46C-4129-9A2C-DE910460F002";
name = Light;
paths = (
{
closed = 1;
nodes = (
"84 597 LINE SMOOTH",
"84 604 OFFCURVE",
"88 608 OFFCURVE",
"95 608 CURVE SMOOTH",
"102 608 OFFCURVE",
"106 604 OFFCURVE",
"106 597 CURVE SMOOTH",
"106 562 LINE SMOOTH",
"106 555 OFFCURVE",
"102 551 OFFCURVE",
"95 551 CURVE SMOOTH",
"88 551 OFFCURVE",
"84 555 OFFCURVE",
"84 562 CURVE SMOOTH"
);
},
{
closed = 1;
nodes = (
"86 443 LINE SMOOTH",
"86 450 OFFCURVE",
"90 454 OFFCURVE",
"97 454 CURVE SMOOTH",
"104 454 OFFCURVE",
"108 450 OFFCURVE",
"108 443 CURVE SMOOTH",
"108 0 LINE SMOOTH",
"108 -7 OFFCURVE",
"104 -11 OFFCURVE",
"97 -11 CURVE SMOOTH",
"90 -11 OFFCURVE",
"86 -7 OFFCURVE",
"86 0 CURVE SMOOTH"
);
}
);
width = 183;
}
);
unicode = 0069;
},
{
glyphname = j;
layers = (
{
layerId = "D726C5A3-D46C-4129-9A2C-DE910460F002";
name = Light;
paths = (
{
closed = 1;
nodes = (
"239 601 LINE SMOOTH",
"239 608 OFFCURVE",
"243 612 OFFCURVE",
"250 612 CURVE SMOOTH",
"257 612 OFFCURVE",
"261 608 OFFCURVE",
"261 601 CURVE SMOOTH",
"261 562 LINE SMOOTH",
"261 555 OFFCURVE",
"257 551 OFFCURVE",
"250 551 CURVE SMOOTH",
"243 551 OFFCURVE",
"239 555 OFFCURVE",
"239 562 CURVE SMOOTH"
);
},
{
closed = 1;
nodes = (
"236 446 LINE SMOOTH",
"236 453 OFFCURVE",
"240 457 OFFCURVE",
"248 457 CURVE SMOOTH",
"255 457 OFFCURVE",
"259 453 OFFCURVE",
"259 446 CURVE SMOOTH",
"259 44 LINE",
"259 -25 LINE SMOOTH",
"259 -108 OFFCURVE",
"208 -153 OFFCURVE",
"148 -153 CURVE SMOOTH",
"93 -153 OFFCURVE",
"45 -114 OFFCURVE",
"45 -53 CURVE SMOOTH",
"45 -46 OFFCURVE",
"49 -42 OFFCURVE",
"56 -42 CURVE SMOOTH",
"63 -42 OFFCURVE",
"67 -46 OFFCURVE",
"67 -53 CURVE SMOOTH",
"67 -100 OFFCURVE",
"105 -131 OFFCURVE",
"149 -131 CURVE SMOOTH",
"197 -131 OFFCURVE",
"236 -96 OFFCURVE",
"236 -25 CURVE SMOOTH",
"236 44 LINE"
);
}
);
width = 326;
}
);
unicode = 006A;
},
{
glyphname = k;
layers = (
{
layerId = "D726C5A3-D46C-4129-9A2C-DE910460F002";
name = Light;
paths = (
{
closed = 1;
nodes = (
"66 266 LINE",
"283 457 LINE",
"288 461 OFFCURVE",
"302 460 OFFCURVE",
"302 448 CURVE SMOOTH",
"302 445 OFFCURVE",
"301 442 OFFCURVE",
"298 440 CURVE",
"80 249 LINE",
"334 11 LINE SMOOTH",
"343 3 OFFCURVE",
"330 -14 OFFCURVE",
"319 -6 CURVE",
"66 232 LINE",
"66 3 LINE SMOOTH",
"66 -4 OFFCURVE",
"62 -8 OFFCURVE",
"55 -8 CURVE SMOOTH",
"47 -8 OFFCURVE",
"43 -4 OFFCURVE",
"43 3 CURVE SMOOTH",
"44 634 LINE SMOOTH",
"44 641 OFFCURVE",
"48 645 OFFCURVE",
"55 645 CURVE SMOOTH",
"62 645 OFFCURVE",
"66 641 OFFCURVE",
"66 634 CURVE SMOOTH"
);
}
);
width = 391;
}
);
unicode = 006B;
},
{
glyphname = l;
layers = (
{
layerId = "D726C5A3-D46C-4129-9A2C-DE910460F002";
name = Light;
paths = (
{
closed = 1;
nodes = (
"86 640 LINE SMOOTH",
"86 647 OFFCURVE",
"90 651 OFFCURVE",
"97 651 CURVE SMOOTH",
"104 651 OFFCURVE",
"108 647 OFFCURVE",
"108 640 CURVE SMOOTH",
"108 0 LINE SMOOTH",
"108 -7 OFFCURVE",
"104 -11 OFFCURVE",
"97 -11 CURVE SMOOTH",
"90 -11 OFFCURVE",
"86 -7 OFFCURVE",
"86 0 CURVE SMOOTH"
);
}
);
width = 174;
}
);
unicode = 006C;
},
{
glyphname = m;
layers = (
{
layerId = "D726C5A3-D46C-4129-9A2C-DE910460F002";
name = Light;
paths = (
{
closed = 1;
nodes = (
"584 363 LINE",
"585 367 OFFCURVE",
"585 371 OFFCURVE",
"585 375 CURVE SMOOTH",
"585 379 OFFCURVE",
"585 382 OFFCURVE",
"585 384 CURVE SMOOTH",
"585 408 OFFCURVE",
"576 420 OFFCURVE",
"559 420 CURVE SMOOTH",
"508 420 OFFCURVE",
"387 305 OFFCURVE",
"338 229 CURVE",
"338 0 LINE SMOOTH",
"338 -7 OFFCURVE",
"334 -11 OFFCURVE",
"327 -11 CURVE SMOOTH",
"320 -11 OFFCURVE",
"316 -7 OFFCURVE",
"316 0 CURVE SMOOTH",
"316 220 LINE",
"315 233 LINE",
"316 363 LINE",
"317 367 OFFCURVE",
"317 371 OFFCURVE",
"317 375 CURVE SMOOTH",
"317 379 OFFCURVE",
"317 382 OFFCURVE",
"317 384 CURVE SMOOTH",
"317 408 OFFCURVE",
"308 420 OFFCURVE",
"291 420 CURVE SMOOTH",
"239 420 OFFCURVE",
"111 299 OFFCURVE",
"66 224 CURVE",
"66 0 LINE SMOOTH",
"66 -7 OFFCURVE",
"62 -11 OFFCURVE",
"55 -11 CURVE SMOOTH",
"48 -11 OFFCURVE",
"44 -7 OFFCURVE",
"44 0 CURVE SMOOTH",
"44 446 LINE SMOOTH",
"44 453 OFFCURVE",
"48 457 OFFCURVE",
"55 457 CURVE SMOOTH",
"62 457 OFFCURVE",
"66 453 OFFCURVE",
"66 446 CURVE SMOOTH",
"66 260 LINE",
"137 351 OFFCURVE",
"227 440 OFFCURVE",
"283 440 CURVE SMOOTH",
"314 440 OFFCURVE",
"333 418 OFFCURVE",
"338 363 CURVE",
"337 264 LINE",
"408 355 OFFCURVE",
"495 440 OFFCURVE",
"551 440 CURVE SMOOTH",
"582 440 OFFCURVE",
"602 419 OFFCURVE",
"607 363 CURVE",
"607 0 LINE SMOOTH",
"607 -7 OFFCURVE",
"603 -11 OFFCURVE",
"596 -11 CURVE SMOOTH",
"588 -11 OFFCURVE",
"584 -7 OFFCURVE",
"584 0 CURVE SMOOTH"
);
}
);
width = 660;
}
);
unicode = 006D;
},
{
glyphname = n;
layers = (
{
layerId = "D726C5A3-D46C-4129-9A2C-DE910460F002";
name = Light;
paths = (
{
closed = 1;
nodes = (
"72 263 LINE",
"133 355 OFFCURVE",
"228 442 OFFCURVE",
"285 442 CURVE SMOOTH",
"318 442 OFFCURVE",
"338 419 OFFCURVE",
"343 360 CURVE",
"343 -3 LINE SMOOTH",
"343 -10 OFFCURVE",
"339 -14 OFFCURVE",
"332 -14 CURVE SMOOTH",
"325 -14 OFFCURVE",
"321 -10 OFFCURVE",
"321 -3 CURVE SMOOTH",
"321 360 LINE",
"322 365 OFFCURVE",
"322 371 OFFCURVE",
"322 379 CURVE SMOOTH",
"322 407 OFFCURVE",
"312 421 OFFCURVE",
"291 421 CURVE SMOOTH",
"236 421 OFFCURVE",
"124 318 OFFCURVE",
"71 221 CURVE",
"72 -3 LINE SMOOTH",
"72 -10 OFFCURVE",
"68 -14 OFFCURVE",
"61 -14 CURVE SMOOTH",
"54 -14 OFFCURVE",
"50 -10 OFFCURVE",
"50 -3 CURVE SMOOTH",
"50 223 LINE",
"50 227 LINE",
"50 443 LINE SMOOTH",
"50 450 OFFCURVE",
"54 454 OFFCURVE",
"61 454 CURVE SMOOTH",
"68 454 OFFCURVE",
"72 450 OFFCURVE",
"72 443 CURVE SMOOTH"
);
}
);
width = 389;
}
);
unicode = 006E;
},
{
glyphname = o;
layers = (
{
layerId = "D726C5A3-D46C-4129-9A2C-DE910460F002";
name = Light;
paths = (
{
closed = 1;
nodes = (
"56 52 OFFCURVE",
"35 103 OFFCURVE",
"35 156 CURVE SMOOTH",
"35 292 OFFCURVE",
"152 443 OFFCURVE",
"276 443 CURVE SMOOTH",
"309 443 OFFCURVE",
"341 432 OFFCURVE",
"372 411 CURVE",
"405 384 OFFCURVE",
"420 345 OFFCURVE",
"420 294 CURVE SMOOTH",
"420 157 OFFCURVE",
"305 -7 OFFCURVE",
"182 -7 CURVE SMOOTH",
"153 -7 OFFCURVE",
"125 2 OFFCURVE",
"96 21 CURVE"
);
},
{
closed = 1;
nodes = (
"132 22 OFFCURVE",
"156 13 OFFCURVE",
"182 13 CURVE SMOOTH",
"287 13 OFFCURVE",
"400 176 OFFCURVE",
"400 299 CURVE SMOOTH",
"400 342 OFFCURVE",
"388 373 OFFCURVE",
"359 392 CURVE",
"334 412 OFFCURVE",
"305 422 OFFCURVE",
"276 422 CURVE SMOOTH",
"167 422 OFFCURVE",
"56 276 OFFCURVE",
"56 152 CURVE SMOOTH",
"56 104 OFFCURVE",
"72 65 OFFCURVE",
"109 40 CURVE"
);
}
);
width = 460;
}
);
unicode = 006F;
},
{
glyphname = p;
layers = (
{
layerId = "D726C5A3-D46C-4129-9A2C-DE910460F002";
name = Light;
paths = (
{
closed = 1;
nodes = (
"63 332 LINE",
"106 411 OFFCURVE",
"185 483 OFFCURVE",
"254 483 CURVE SMOOTH",
"287 483 OFFCURVE",
"314 470 OFFCURVE",
"338 435 CURVE",
"353 409 OFFCURVE",
"361 375 OFFCURVE",
"361 334 CURVE SMOOTH",
"361 183 OFFCURVE",
"256 2 OFFCURVE",
"147 2 CURVE SMOOTH",
"118 2 OFFCURVE",
"89 13 OFFCURVE",
"62 38 CURVE",
"63 -216 LINE SMOOTH",
"63 -223 OFFCURVE",
"59 -227 OFFCURVE",
"52 -227 CURVE SMOOTH",
"45 -227 OFFCURVE",
"41 -223 OFFCURVE",
"41 -216 CURVE SMOOTH",
"41 449 LINE SMOOTH",
"41 456 OFFCURVE",
"45 460 OFFCURVE",
"52 460 CURVE SMOOTH",
"59 460 OFFCURVE",
"63 456 OFFCURVE",
"63 449 CURVE SMOOTH"
);
},
{
closed = 1;
nodes = (
"63 275 LINE",
"63 70 LINE",
"87 37 OFFCURVE",
"116 21 OFFCURVE",
"144 21 CURVE SMOOTH",
"237 21 OFFCURVE",
"341 199 OFFCURVE",
"341 336 CURVE SMOOTH",
"341 372 OFFCURVE",
"334 401 OFFCURVE",
"319 424 CURVE",
"306 449 OFFCURVE",
"286 462 OFFCURVE",
"260 462 CURVE SMOOTH",
"188 462 OFFCURVE",
"83 357 OFFCURVE",
"66 280 CURVE"
);
}
);
width = 399;
}
);
unicode = 0070;
},
{
glyphname = q;
layers = (
{
layerId = "D726C5A3-D46C-4129-9A2C-DE910460F002";
name = Light;
paths = (
{
closed = 1;
nodes = (
"427 453 OFFCURVE",
"432 449 OFFCURVE",
"432 443 CURVE SMOOTH",
"432 -186 LINE",
"510 -106 LINE SMOOTH",
"519 -97 OFFCURVE",
"537 -110 OFFCURVE",
"526 -121 CURVE SMOOTH",
"429 -221 LINE",
"410 -213 LINE",
"409 373 LINE",
"366 204 OFFCURVE",
"259 -1 OFFCURVE",
"152 -1 CURVE SMOOTH",
"123 -1 OFFCURVE",
"96 13 OFFCURVE",
"69 40 CURVE",
"48 65 OFFCURVE",
"35 113 OFFCURVE",
"35 158 CURVE SMOOTH",
"35 311 OFFCURVE",
"142 465 OFFCURVE",
"325 465 CURVE SMOOTH",
"358 465 OFFCURVE",
"379 463 OFFCURVE",
"416 454 CURVE"
);
},
{
closed = 1;
nodes = (
"106 26 OFFCURVE",
"126 14 OFFCURVE",
"149 14 CURVE SMOOTH",
"218 14 OFFCURVE",
"301 147 OFFCURVE",
"359 287 CURVE SMOOTH",
"388 356 OFFCURVE",
"405 403 OFFCURVE",
"410 427 CURVE",
"410 432 LINE",
"381 439 OFFCURVE",
"351 443 OFFCURVE",
"321 443 CURVE SMOOTH",
"154 443 OFFCURVE",
"57 296 OFFCURVE",
"57 156 CURVE SMOOTH",
"57 111 OFFCURVE",
"67 77 OFFCURVE",
"86 54 CURVE"
);
}
);
width = 574;
}
);
unicode = 0071;
},
{
glyphname = r;
layers = (
{
layerId = "D726C5A3-D46C-4129-9A2C-DE910460F002";
name = Light;
paths = (
{
closed = 1;
nodes = (
"105 295 LINE",
"157 352 OFFCURVE",
"250 467 OFFCURVE",
"306 467 CURVE SMOOTH",
"314 467 OFFCURVE",
"322 464 OFFCURVE",
"331 459 CURVE",
"344 443 OFFCURVE",
"346 386 OFFCURVE",
"346 379 CURVE SMOOTH",
"346 374 OFFCURVE",
"346 371 OFFCURVE",
"346 370 CURVE SMOOTH",
"346 369 OFFCURVE",
"346 366 OFFCURVE",
"346 363 CURVE SMOOTH",
"346 359 OFFCURVE",
"342 357 OFFCURVE",
"335 357 CURVE SMOOTH",
"328 357 OFFCURVE",
"324 361 OFFCURVE",
"324 368 CURVE",
"323 385 OFFCURVE",
"322 402 OFFCURVE",
"321 419 CURVE SMOOTH",
"320 436 OFFCURVE",
"319 444 OFFCURVE",
"317 444 CURVE",
"315 448 OFFCURVE",
"312 450 OFFCURVE",
"308 450 CURVE SMOOTH",
"279 450 OFFCURVE",
"182 354 OFFCURVE",
"105 261 CURVE",
"105 0 LINE SMOOTH",
"105 -7 OFFCURVE",
"101 -11 OFFCURVE",
"94 -11 CURVE SMOOTH",
"87 -11 OFFCURVE",
"83 -7 OFFCURVE",
"83 0 CURVE SMOOTH",
"83 449 LINE SMOOTH",
"83 456 OFFCURVE",
"87 460 OFFCURVE",
"94 460 CURVE SMOOTH",
"101 460 OFFCURVE",
"105 456 OFFCURVE",
"105 449 CURVE SMOOTH"
);
}
);
width = 364;
}
);
unicode = 0072;
},
{
glyphname = s;
layers = (
{
layerId = "D726C5A3-D46C-4129-9A2C-DE910460F002";
name = Light;
paths = (
{
closed = 1;
nodes = (
"362 454 OFFCURVE",
"365 451 OFFCURVE",
"365 445 CURVE SMOOTH",
"365 436 OFFCURVE",
"361 432 OFFCURVE",
"353 432 CURVE",
"322 437 OFFCURVE",
"301 438 OFFCURVE",
"270 438 CURVE SMOOTH",
"131 438 OFFCURVE",
"55 370 OFFCURVE",
"55 302 CURVE SMOOTH",
"55 269 OFFCURVE",
"75 246 OFFCURVE",
"112 246 CURVE SMOOTH",
"131 246 OFFCURVE",
"160 257 OFFCURVE",
"199 278 CURVE SMOOTH",
"237 299 OFFCURVE",
"276 309 OFFCURVE",
"316 309 CURVE SMOOTH",
"384 309 OFFCURVE",
"422 265 OFFCURVE",
"422 205 CURVE SMOOTH",
"422 150 OFFCURVE",
"390 94 OFFCURVE",
"334 55 CURVE SMOOTH",
"277 16 OFFCURVE",
"219 -6 OFFCURVE",
"166 -6 CURVE SMOOTH",
"114 -6 OFFCURVE",
"72 16 OFFCURVE",
"51 67 CURVE",
"48 78 OFFCURVE",
"51 83 OFFCURVE",
"62 83 CURVE SMOOTH",
"66 83 OFFCURVE",
"71 77 OFFCURVE",
"76 65 CURVE SMOOTH",
"86 40 OFFCURVE",
"122 16 OFFCURVE",
"167 16 CURVE SMOOTH",
"211 16 OFFCURVE",
"267 37 OFFCURVE",
"318 73 CURVE",
"373 117 OFFCURVE",
"402 168 OFFCURVE",
"402 212 CURVE SMOOTH",
"402 255 OFFCURVE",
"374 283 OFFCURVE",
"319 283 CURVE SMOOTH",
"282 283 OFFCURVE",
"247 274 OFFCURVE",
"189 247 CURVE SMOOTH",
"160 233 OFFCURVE",
"133 226 OFFCURVE",
"108 226 CURVE SMOOTH",
"61 226 OFFCURVE",
"34 257 OFFCURVE",
"34 298 CURVE SMOOTH",
"34 378 OFFCURVE",
"123 463 OFFCURVE",
"267 463 CURVE SMOOTH",
"294 463 OFFCURVE",
"324 460 OFFCURVE",
"356 454 CURVE"
);
}
);
width = 479;
}
);
unicode = 0073;
},
{
glyphname = t;
layers = (
{
layerId = "D726C5A3-D46C-4129-9A2C-DE910460F002";
name = Light;
paths = (
{
closed = 1;
nodes = (
"180 390 LINE",
"180 15 LINE",
"281 54 OFFCURVE",
"317 76 OFFCURVE",
"398 155 CURVE",
"406 162 OFFCURVE",
"416 154 OFFCURVE",
"416 145 CURVE SMOOTH",
"416 142 OFFCURVE",
"405 131 OFFCURVE",
"383 110 CURVE SMOOTH",
"339 68 OFFCURVE",
"290 34 OFFCURVE",
"173 -11 CURVE",
"158 -1 LINE",
"158 384 LINE",
"47 354 LINE",
"38 354 OFFCURVE",
"34 359 OFFCURVE",
"34 369 CURVE SMOOTH",
"34 374 OFFCURVE",
"37 377 OFFCURVE",
"42 377 CURVE",
"158 407 LINE",
"158 532 LINE SMOOTH",
"158 539 OFFCURVE",
"162 543 OFFCURVE",
"169 543 CURVE SMOOTH",
"176 543 OFFCURVE",
"180 539 OFFCURVE",
"180 532 CURVE SMOOTH",
"180 413 LINE",
"367 463 LINE",
"376 463 OFFCURVE",
"381 458 OFFCURVE",
"381 448 CURVE SMOOTH",
"381 443 OFFCURVE",
"378 440 OFFCURVE",
"373 440 CURVE"
);
}
);
width = 443;
}
);
unicode = 0074;
},
{
glyphname = u;
layers = (
{
layerId = "D726C5A3-D46C-4129-9A2C-DE910460F002";
name = Light;
paths = (
{
closed = 1;
nodes = (
"324 103 LINE",
"284 40 OFFCURVE",
"202 -12 OFFCURVE",
"139 -12 CURVE SMOOTH",
"84 -12 OFFCURVE",
"50 21 OFFCURVE",
"50 97 CURVE SMOOTH",
"50 443 LINE SMOOTH",
"50 450 OFFCURVE",
"54 454 OFFCURVE",
"61 454 CURVE SMOOTH",
"68 454 OFFCURVE",
"72 450 OFFCURVE",
"72 443 CURVE SMOOTH",
"72 97 LINE SMOOTH",
"72 41 OFFCURVE",
"97 17 OFFCURVE",
"137 17 CURVE SMOOTH",
"212 17 OFFCURVE",
"324 108 OFFCURVE",
"324 171 CURVE SMOOTH",
"324 443 LINE SMOOTH",
"324 450 OFFCURVE",
"328 454 OFFCURVE",
"335 454 CURVE SMOOTH",
"342 454 OFFCURVE",
"346 450 OFFCURVE",
"346 443 CURVE SMOOTH",
"346 -6 LINE SMOOTH",
"346 -13 OFFCURVE",
"342 -17 OFFCURVE",
"335 -17 CURVE SMOOTH",
"328 -17 OFFCURVE",
"324 -13 OFFCURVE",
"324 -6 CURVE SMOOTH"
);
}
);
width = 397;
}
);
unicode = 0075;
},
{
glyphname = v;
layers = (
{
layerId = "D726C5A3-D46C-4129-9A2C-DE910460F002";
name = Light;
paths = (
{
closed = 1;
nodes = (
"42 455 OFFCURVE",
"46 459 OFFCURVE",
"55 459 CURVE SMOOTH",
"61 459 OFFCURVE",
"64 456 OFFCURVE",
"64 451 CURVE",
"69 403 OFFCURVE",
"81 313 OFFCURVE",
"100 206 CURVE SMOOTH",
"109 152 OFFCURVE",
"120 99 OFFCURVE",
"133 46 CURVE",
"162 151 OFFCURVE",
"223 234 OFFCURVE",
"304 354 CURVE SMOOTH",
"345 414 OFFCURVE",
"367 444 OFFCURVE",
"371 444 CURVE SMOOTH",
"380 444 OFFCURVE",
"387 435 OFFCURVE",
"380 426 CURVE",
"253 245 OFFCURVE",
"147 81 OFFCURVE",
"147 -6 CURVE",
"126 -9 LINE",
"99 74 OFFCURVE",
"73 229 OFFCURVE",
"59 329 CURVE SMOOTH",
"52 378 OFFCURVE",
"46 418 OFFCURVE",
"42 447 CURVE"
);
}
);
width = 422;
}
);
unicode = 0076;
},
{
glyphname = w;
layers = (
{
layerId = "D726C5A3-D46C-4129-9A2C-DE910460F002";
name = Light;
paths = (
{
closed = 1;
nodes = (
"44 459 OFFCURVE",
"48 463 OFFCURVE",
"55 463 CURVE SMOOTH",
"62 463 OFFCURVE",
"66 459 OFFCURVE",
"66 452 CURVE SMOOTH",
"66 405 OFFCURVE",
"102 179 OFFCURVE",
"133 48 CURVE",
"140 74 OFFCURVE",
"160 135 OFFCURVE",
"191 230 CURVE SMOOTH",
"222 325 OFFCURVE",
"238 399 OFFCURVE",
"238 452 CURVE",
"260 453 LINE",
"260 388 OFFCURVE",
"284 305 OFFCURVE",
"318 203 CURVE SMOOTH",
"335 152 OFFCURVE",
"351 103 OFFCURVE",
"367 58 CURVE",
"374 89 OFFCURVE",
"395 139 OFFCURVE",
"428 208 CURVE SMOOTH",
"494 347 OFFCURVE",
"510 374 OFFCURVE",
"510 446 CURVE SMOOTH",
"510 457 OFFCURVE",
"513 463 OFFCURVE",
"520 463 CURVE SMOOTH",
"528 463 OFFCURVE",
"532 459 OFFCURVE",
"532 452 CURVE",
"521 360 OFFCURVE",
"464 239 OFFCURVE",
"417 130 CURVE SMOOTH",
"394 75 OFFCURVE",
"382 35 OFFCURVE",
"382 8 CURVE",
"361 5 LINE",
"352 34 OFFCURVE",
"334 89 OFFCURVE",
"307 170 CURVE SMOOTH",
"280 250 OFFCURVE",
"262 315 OFFCURVE",
"251 365 CURVE",
"244 326 OFFCURVE",
"232 284 OFFCURVE",
"217 237 CURVE SMOOTH",
"186 144 OFFCURVE",
"152 43 OFFCURVE",
"144 -2 CURVE",
"122 -3 LINE",
"91 113 OFFCURVE",
"44 393 OFFCURVE",
"44 452 CURVE SMOOTH"
);
}
);
width = 570;
}
);
unicode = 0077;
},
{
glyphname = x;
layers = (
{
layerId = "D726C5A3-D46C-4129-9A2C-DE910460F002";
name = Light;
paths = (
{
closed = 1;
nodes = (
"374 446 OFFCURVE",
"364 429 OFFCURVE",
"346 403 CURVE SMOOTH",
"327 377 OFFCURVE",
"290 328 OFFCURVE",
"235 257 CURVE",
"291 192 OFFCURVE",
"328 141 OFFCURVE",
"346 104 CURVE SMOOTH",
"364 67 OFFCURVE",
"373 32 OFFCURVE",
"373 0 CURVE SMOOTH",
"373 -7 OFFCURVE",
"369 -11 OFFCURVE",
"362 -11 CURVE SMOOTH",
"355 -11 OFFCURVE",
"351 -7 OFFCURVE",
"351 0 CURVE SMOOTH",
"351 72 OFFCURVE",
"306 137 OFFCURVE",
"222 237 CURVE",
"206 216 OFFCURVE",
"183 185 OFFCURVE",
"153 145 CURVE SMOOTH",
"123 105 OFFCURVE",
"100 73 OFFCURVE",
"84 49 CURVE SMOOTH",
"68 25 OFFCURVE",
"58 7 OFFCURVE",
"54 -4 CURVE",
"53 -9 OFFCURVE",
"50 -11 OFFCURVE",
"45 -11 CURVE SMOOTH",
"36 -11 OFFCURVE",
"32 -6 OFFCURVE",
"34 4 CURVE",
"41 24 OFFCURVE",
"60 56 OFFCURVE",
"91 99 CURVE SMOOTH",
"122 142 OFFCURVE",
"160 193 OFFCURVE",
"207 254 CURVE",
"120 357 OFFCURVE",
"88 397 OFFCURVE",
"71 454 CURVE",
"71 463 OFFCURVE",
"76 468 OFFCURVE",
"86 468 CURVE SMOOTH",
"91 468 OFFCURVE",
"93 465 OFFCURVE",
"93 460 CURVE",
"108 401 OFFCURVE",
"154 352 OFFCURVE",
"221 273 CURVE",
"265 330 OFFCURVE",
"298 373 OFFCURVE",
"321 403 CURVE SMOOTH",
"344 432 OFFCURVE",
"355 451 OFFCURVE",
"355 460 CURVE SMOOTH",
"355 465 OFFCURVE",
"358 468 OFFCURVE",
"363 468 CURVE SMOOTH",
"372 468 OFFCURVE",
"377 463 OFFCURVE",
"377 454 CURVE"
);
}
);
width = 431;
}
);
unicode = 0078;
},
{
glyphname = y;
layers = (
{
layerId = "D726C5A3-D46C-4129-9A2C-DE910460F002";
name = Light;
paths = (
{
closed = 1;
nodes = (
"433 425 OFFCURVE",
"418 389 OFFCURVE",
"399 341 CURVE SMOOTH",
"360 244 OFFCURVE",
"315 137 OFFCURVE",
"266 26 CURVE",
"263 18 LINE",
"251 -9 OFFCURVE",
"216 -83 OFFCURVE",
"205 -104 CURVE",
"193 -125 OFFCURVE",
"153 -149 OFFCURVE",
"114 -149 CURVE SMOOTH",
"67 -149 OFFCURVE",
"31 -117 OFFCURVE",
"31 -49 CURVE SMOOTH",
"31 -42 OFFCURVE",
"35 -38 OFFCURVE",
"43 -38 CURVE SMOOTH",
"50 -38 OFFCURVE",
"54 -42 OFFCURVE",
"54 -49 CURVE SMOOTH",
"54 -104 OFFCURVE",
"78 -127 OFFCURVE",
"115 -127 CURVE SMOOTH",
"144 -127 OFFCURVE",
"172 -114 OFFCURVE",
"193 -79 CURVE SMOOTH",
"203 -62 OFFCURVE",
"220 -26 OFFCURVE",
"243 27 CURVE",
"66 448 LINE",
"63 458 OFFCURVE",
"66 463 OFFCURVE",
"77 463 CURVE SMOOTH",
"81 463 OFFCURVE",
"84 461 OFFCURVE",
"86 457 CURVE",
"256 54 LINE",
"292 138 OFFCURVE",
"392 379 OFFCURVE",
"402 404 CURVE SMOOTH",
"412 428 OFFCURVE",
"424 463 OFFCURVE",
"433 463 CURVE SMOOTH",
"437 463 OFFCURVE",
"447 458 OFFCURVE",
"443 449 CURVE SMOOTH"
);
}
);
width = 485;
}
);
unicode = 0079;
},
{
glyphname = z;
layers = (
{
layerId = "D726C5A3-D46C-4129-9A2C-DE910460F002";
name = Light;
paths = (
{
closed = 1;
nodes = (
"104 410 LINE SMOOTH",
"104 403 OFFCURVE",
"100 399 OFFCURVE",
"93 399 CURVE SMOOTH",
"86 399 OFFCURVE",
"82 403 OFFCURVE",
"82 410 CURVE SMOOTH",
"82 437 LINE",
"93 448 LINE",
"193 449 OFFCURVE",
"317 450 OFFCURVE",
"364 466 CURVE",
"377 450 LINE",
"337 390 OFFCURVE",
"233 235 OFFCURVE",
"169 141 CURVE SMOOTH",
"136 94 OFFCURVE",
"106 52 OFFCURVE",
"79 17 CURVE",
"132 25 OFFCURVE",
"226 29 OFFCURVE",
"346 29 CURVE",
"346 41 LINE SMOOTH",
"346 48 OFFCURVE",
"350 51 OFFCURVE",
"357 51 CURVE SMOOTH",
"364 51 OFFCURVE",
"368 48 OFFCURVE",
"368 41 CURVE SMOOTH",
"368 18 LINE",
"357 7 LINE",
"353 7 OFFCURVE",
"348 7 OFFCURVE",
"341 7 CURVE SMOOTH",
"334 7 OFFCURVE",
"326 7 OFFCURVE",
"319 7 CURVE SMOOTH",
"214 7 OFFCURVE",
"95 2 OFFCURVE",
"54 -11 CURVE",
"42 7 LINE",
"49 13 OFFCURVE",
"71 42 OFFCURVE",
"107 93 CURVE SMOOTH",
"179 196 OFFCURVE",
"286 354 OFFCURVE",
"343 439 CURVE",
"296 431 OFFCURVE",
"201 426 OFFCURVE",
"104 426 CURVE"
);
}
);
width = 427;
}
);
unicode = 007A;
},
{
glyphname = braceleft;
layers = (
{
layerId = "D726C5A3-D46C-4129-9A2C-DE910460F002";
name = Light;
paths = (
{
closed = 1;
nodes = (
"339 648 OFFCURVE",
"343 644 OFFCURVE",
"343 637 CURVE SMOOTH",
"343 630 OFFCURVE",
"339 626 OFFCURVE",
"332 626 CURVE SMOOTH",
"199 626 OFFCURVE",
"182 593 OFFCURVE",
"182 421 CURVE SMOOTH",
"182 403 OFFCURVE",
"182 385 OFFCURVE",
"182 366 CURVE SMOOTH",
"182 347 OFFCURVE",
"182 327 OFFCURVE",
"183 307 CURVE",
"183 258 OFFCURVE",
"164 228 OFFCURVE",
"135 213 CURVE",
"167 198 OFFCURVE",
"186 173 OFFCURVE",
"186 122 CURVE SMOOTH",
"186 108 OFFCURVE",
"186 94 OFFCURVE",
"186 80 CURVE",
"185 66 OFFCURVE",
"185 52 OFFCURVE",
"185 38 CURVE SMOOTH",
"185 -157 OFFCURVE",
"235 -199 OFFCURVE",
"332 -199 CURVE SMOOTH",
"339 -199 OFFCURVE",
"343 -203 OFFCURVE",
"343 -211 CURVE SMOOTH",
"343 -218 OFFCURVE",
"339 -222 OFFCURVE",
"332 -222 CURVE SMOOTH",
"223 -222 OFFCURVE",
"162 -168 OFFCURVE",
"162 41 CURVE SMOOTH",
"162 54 OFFCURVE",
"162 68 OFFCURVE",
"162 82 CURVE SMOOTH",
"162 95 OFFCURVE",
"162 109 OFFCURVE",
"163 122 CURVE",
"163 185 OFFCURVE",
"127 201 OFFCURVE",
"76 201 CURVE SMOOTH",
"68 201 OFFCURVE",
"61 201 OFFCURVE",
"56 201 CURVE",
"51 200 OFFCURVE",
"46 200 OFFCURVE",
"43 200 CURVE",
"43 223 LINE",
"56 222 OFFCURVE",
"67 222 OFFCURVE",
"75 222 CURVE SMOOTH",
"124 222 OFFCURVE",
"161 239 OFFCURVE",
"161 307 CURVE SMOOTH",
"161 397 LINE SMOOTH",
"161 597 OFFCURVE",
"179 648 OFFCURVE",
"332 648 CURVE SMOOTH"
);
}
);
width = 393;
}
);
unicode = 007B;
},
{
glyphname = bar;
layers = (
{
layerId = "D726C5A3-D46C-4129-9A2C-DE910460F002";
name = Light;
paths = (
{
closed = 1;
nodes = (
"57 643 LINE SMOOTH",
"57 650 OFFCURVE",
"61 653 OFFCURVE",
"68 653 CURVE SMOOTH",
"75 653 OFFCURVE",
"79 650 OFFCURVE",
"79 643 CURVE SMOOTH",
"79 0 LINE SMOOTH",
"79 -7 OFFCURVE",
"75 -11 OFFCURVE",
"68 -11 CURVE SMOOTH",
"61 -11 OFFCURVE",
"57 -7 OFFCURVE",
"57 0 CURVE SMOOTH"
);
}
);
width = 130;
}
);
unicode = 007C;
},
{
glyphname = braceright;
layers = (
{
layerId = "D726C5A3-D46C-4129-9A2C-DE910460F002";
name = Light;
paths = (
{
closed = 1;
nodes = (
"30 626 OFFCURVE",
"26 630 OFFCURVE",
"26 637 CURVE SMOOTH",
"26 644 OFFCURVE",
"30 648 OFFCURVE",
"37 648 CURVE SMOOTH",
"189 648 OFFCURVE",
"209 596 OFFCURVE",
"209 396 CURVE SMOOTH",
"209 307 LINE SMOOTH",
"209 239 OFFCURVE",
"245 222 OFFCURVE",
"294 222 CURVE SMOOTH",
"300 222 OFFCURVE",
"306 222 OFFCURVE",
"311 222 CURVE SMOOTH",
"316 222 OFFCURVE",
"321 222 OFFCURVE",
"326 223 CURVE",
"326 200 LINE",
"313 201 OFFCURVE",
"303 201 OFFCURVE",
"294 201 CURVE SMOOTH",
"243 201 OFFCURVE",
"206 185 OFFCURVE",
"206 122 CURVE SMOOTH",
"206 108 OFFCURVE",
"206 94 OFFCURVE",
"206 79 CURVE SMOOTH",
"206 64 OFFCURVE",
"206 50 OFFCURVE",
"207 35 CURVE",
"207 -172 OFFCURVE",
"148 -222 OFFCURVE",
"37 -222 CURVE SMOOTH",
"30 -222 OFFCURVE",
"26 -218 OFFCURVE",
"26 -211 CURVE SMOOTH",
"26 -203 OFFCURVE",
"30 -199 OFFCURVE",
"37 -199 CURVE SMOOTH",
"134 -199 OFFCURVE",
"185 -157 OFFCURVE",
"185 44 CURVE SMOOTH",
"185 55 OFFCURVE",
"185 67 OFFCURVE",
"185 78 CURVE",
"184 89 OFFCURVE",
"184 101 OFFCURVE",
"184 112 CURVE SMOOTH",
"184 122 LINE SMOOTH",
"184 171 OFFCURVE",
"204 199 OFFCURVE",
"235 212 CURVE",
"204 228 OFFCURVE",
"187 256 OFFCURVE",
"187 307 CURVE SMOOTH",
"187 326 OFFCURVE",
"187 345 OFFCURVE",
"187 363 CURVE SMOOTH",
"187 381 OFFCURVE",
"187 399 OFFCURVE",
"188 416 CURVE",
"188 593 OFFCURVE",
"173 626 OFFCURVE",
"37 626 CURVE SMOOTH"
);
}
);
width = 384;
}
);
unicode = 007D;
},
{
glyphname = asciitilde;
layers = (
{
layerId = "D726C5A3-D46C-4129-9A2C-DE910460F002";
name = Light;
paths = (
{
closed = 1;
nodes = (
"66 159 OFFCURVE",
"62 155 OFFCURVE",
"55 155 CURVE SMOOTH",
"48 155 OFFCURVE",
"44 159 OFFCURVE",
"44 166 CURVE SMOOTH",
"44 258 OFFCURVE",
"103 310 OFFCURVE",
"168 310 CURVE SMOOTH",
"220 310 OFFCURVE",
"263 277 OFFCURVE",
"263 224 CURVE SMOOTH",
"263 196 OFFCURVE",
"295 174 OFFCURVE",
"332 174 CURVE SMOOTH",
"387 174 OFFCURVE",
"432 214 OFFCURVE",
"432 302 CURVE SMOOTH",
"432 309 OFFCURVE",
"436 313 OFFCURVE",
"443 313 CURVE SMOOTH",
"450 313 OFFCURVE",
"454 309 OFFCURVE",
"454 302 CURVE SMOOTH",
"454 203 OFFCURVE",
"395 152 OFFCURVE",
"328 152 CURVE SMOOTH",
"280 152 OFFCURVE",
"241 180 OFFCURVE",
"241 224 CURVE SMOOTH",
"241 261 OFFCURVE",
"207 287 OFFCURVE",
"164 287 CURVE SMOOTH",
"109 287 OFFCURVE",
"66 249 OFFCURVE",
"66 166 CURVE SMOOTH"
);
}
);
width = 499;
}
);
unicode = 007E;
},
{
glyphname = dagger;
layers = (
{
layerId = "D726C5A3-D46C-4129-9A2C-DE910460F002";
name = Light;
paths = (
{
closed = 1;
nodes = (
"224 434 LINE",
"224 0 LINE SMOOTH",
"224 -7 OFFCURVE",
"220 -11 OFFCURVE",
"213 -11 CURVE SMOOTH",
"206 -11 OFFCURVE",
"202 -7 OFFCURVE",
"202 0 CURVE SMOOTH",
"202 434 LINE",
"42 434 LINE SMOOTH",
"35 434 OFFCURVE",
"31 438 OFFCURVE",
"31 445 CURVE SMOOTH",
"31 452 OFFCURVE",
"35 456 OFFCURVE",
"42 456 CURVE SMOOTH",
"202 456 LINE",
"202 644 LINE SMOOTH",
"202 651 OFFCURVE",
"206 655 OFFCURVE",
"213 655 CURVE SMOOTH",
"220 655 OFFCURVE",
"224 651 OFFCURVE",
"224 644 CURVE SMOOTH",
"224 456 LINE",
"377 456 LINE SMOOTH",
"384 456 OFFCURVE",
"388 452 OFFCURVE",
"388 445 CURVE SMOOTH",
"388 438 OFFCURVE",
"384 434 OFFCURVE",
"377 434 CURVE SMOOTH"
);
}
);
width = 422;
}
);
unicode = 2020;
},
{
glyphname = degree;
layers = (
{
layerId = "D726C5A3-D46C-4129-9A2C-DE910460F002";
name = Light;
paths = (
{
closed = 1;
nodes = (
"181 651 OFFCURVE",
"221 611 OFFCURVE",
"221 560 CURVE SMOOTH",
"221 509 OFFCURVE",
"181 471 OFFCURVE",
"130 471 CURVE SMOOTH",
"79 471 OFFCURVE",
"40 511 OFFCURVE",
"40 560 CURVE SMOOTH",
"40 609 OFFCURVE",
"79 651 OFFCURVE",
"130 651 CURVE SMOOTH"
);
},
{
closed = 1;
nodes = (
"93 629 OFFCURVE",
"62 599 OFFCURVE",
"62 560 CURVE SMOOTH",
"62 524 OFFCURVE",
"93 493 OFFCURVE",
"130 493 CURVE SMOOTH",
"166 493 OFFCURVE",
"199 524 OFFCURVE",
"199 560 CURVE SMOOTH",
"199 597 OFFCURVE",
"167 629 OFFCURVE",
"130 629 CURVE SMOOTH"
);
}
);
width = 259;
}
);
unicode = 00B0;
},
{
glyphname = cent;
layers = (
{
layerId = "D726C5A3-D46C-4129-9A2C-DE910460F002";
name = Light;
paths = (
{
closed = 1;
nodes = (
"244 570 LINE",
"253 571 OFFCURVE",
"260 572 OFFCURVE",
"264 572 CURVE SMOOTH",
"307 572 OFFCURVE",
"348 544 OFFCURVE",
"384 481 CURVE",
"389 473 OFFCURVE",
"381 464 OFFCURVE",
"373 464 CURVE SMOOTH",
"369 464 OFFCURVE",
"363 472 OFFCURVE",
"355 488 CURVE SMOOTH",
"339 520 OFFCURVE",
"303 549 OFFCURVE",
"264 549 CURVE SMOOTH",
"255 549 OFFCURVE",
"249 548 OFFCURVE",
"244 547 CURVE",
"244 150 LINE",
"296 173 OFFCURVE",
"346 217 OFFCURVE",
"361 245 CURVE SMOOTH",
"368 258 OFFCURVE",
"374 265 OFFCURVE",
"379 265 CURVE SMOOTH",
"386 265 OFFCURVE",
"393 258 OFFCURVE",
"390 250 CURVE",
"365 198 OFFCURVE",
"305 148 OFFCURVE",
"244 127 CURVE",
"244 0 LINE SMOOTH",
"244 -7 OFFCURVE",
"240 -11 OFFCURVE",
"233 -11 CURVE SMOOTH",
"226 -11 OFFCURVE",
"222 -7 OFFCURVE",
"222 0 CURVE SMOOTH",
"222 120 LINE",
"207 117 OFFCURVE",
"194 115 OFFCURVE",
"182 115 CURVE SMOOTH",
"106 115 OFFCURVE",
"53 169 OFFCURVE",
"53 293 CURVE SMOOTH",
"53 389 OFFCURVE",
"134 530 OFFCURVE",
"222 563 CURVE",
"222 644 LINE SMOOTH",
"222 651 OFFCURVE",
"226 655 OFFCURVE",
"233 655 CURVE SMOOTH",
"240 655 OFFCURVE",
"244 651 OFFCURVE",
"244 644 CURVE SMOOTH"
);
},
{
closed = 1;
nodes = (
"222 538 LINE",
"145 501 OFFCURVE",
"75 381 OFFCURVE",
"75 293 CURVE SMOOTH",
"75 185 OFFCURVE",
"120 136 OFFCURVE",
"183 136 CURVE SMOOTH",
"196 136 OFFCURVE",
"209 138 OFFCURVE",
"222 142 CURVE"
);
}
);
width = 441;
}
);
unicode = 00A2;
},
{
glyphname = sterling;
layers = (
{
layerId = "D726C5A3-D46C-4129-9A2C-DE910460F002";
name = Light;
paths = (
{
closed = 1;
nodes = (
"199 352 LINE",
"199 512 OFFCURVE",
"261 654 OFFCURVE",
"352 654 CURVE SMOOTH",
"393 654 OFFCURVE",
"441 627 OFFCURVE",
"490 564 CURVE",
"497 557 OFFCURVE",
"489 545 OFFCURVE",
"481 545 CURVE SMOOTH",
"478 545 OFFCURVE",
"471 553 OFFCURVE",
"459 568 CURVE SMOOTH",
"434 599 OFFCURVE",
"386 631 OFFCURVE",
"349 631 CURVE SMOOTH",
"272 631 OFFCURVE",
"222 511 OFFCURVE",
"222 355 CURVE",
"448 382 LINE",
"456 382 OFFCURVE",
"460 378 OFFCURVE",
"460 370 CURVE SMOOTH",
"460 363 OFFCURVE",
"457 360 OFFCURVE",
"450 360 CURVE",
"222 332 LINE",
"222 217 OFFCURVE",
"193 125 OFFCURVE",
"148 65 CURVE",
"169 72 OFFCURVE",
"194 74 OFFCURVE",
"211 74 CURVE SMOOTH",
"236 74 OFFCURVE",
"267 66 OFFCURVE",
"303 51 CURVE SMOOTH",
"339 36 OFFCURVE",
"365 28 OFFCURVE",
"382 28 CURVE SMOOTH",
"454 28 OFFCURVE",
"504 68 OFFCURVE",
"504 147 CURVE SMOOTH",
"504 154 OFFCURVE",
"508 158 OFFCURVE",
"515 158 CURVE SMOOTH",
"522 158 OFFCURVE",
"526 154 OFFCURVE",
"526 147 CURVE SMOOTH",
"526 58 OFFCURVE",
"465 6 OFFCURVE",
"382 6 CURVE SMOOTH",
"359 6 OFFCURVE",
"330 14 OFFCURVE",
"293 29 CURVE SMOOTH",
"256 44 OFFCURVE",
"229 51 OFFCURVE",
"210 51 CURVE SMOOTH",
"167 51 OFFCURVE",
"123 37 OFFCURVE",
"50 -4 CURVE",
"42 17 LINE",
"125 32 OFFCURVE",
"199 146 OFFCURVE",
"199 330 CURVE",
"87 316 LINE",
"79 316 OFFCURVE",
"75 320 OFFCURVE",
"75 328 CURVE SMOOTH",
"75 335 OFFCURVE",
"78 338 OFFCURVE",
"85 338 CURVE"
);
}
);
width = 575;
}
);
unicode = 00A3;
},
{
glyphname = section;
layers = (
{
layerId = "D726C5A3-D46C-4129-9A2C-DE910460F002";
name = Light;
paths = (
{
closed = 1;
nodes = (
"293 411 OFFCURVE",
"317 414 OFFCURVE",
"342 414 CURVE SMOOTH",
"426 414 OFFCURVE",
"490 385 OFFCURVE",
"490 306 CURVE SMOOTH",
"490 280 OFFCURVE",
"483 250 OFFCURVE",
"469 217 CURVE",
"483 200 OFFCURVE",
"490 178 OFFCURVE",
"490 153 CURVE SMOOTH",
"490 76 OFFCURVE",
"429 -3 OFFCURVE",
"350 -3 CURVE",
"313 -7 OFFCURVE",
"273 -12 OFFCURVE",
"244 -12 CURVE SMOOTH",
"165 -12 OFFCURVE",
"110 8 OFFCURVE",
"50 76 CURVE",
"46 80 OFFCURVE",
"50 94 OFFCURVE",
"59 94 CURVE SMOOTH",
"62 94 OFFCURVE",
"70 86 OFFCURVE",
"85 70 CURVE SMOOTH",
"113 38 OFFCURVE",
"173 11 OFFCURVE",
"242 11 CURVE SMOOTH",
"277 11 OFFCURVE",
"316 16 OFFCURVE",
"363 22 CURVE SMOOTH",
"410 28 OFFCURVE",
"470 95 OFFCURVE",
"470 155 CURVE SMOOTH",
"470 200 OFFCURVE",
"440 230 OFFCURVE",
"373 230 CURVE SMOOTH",
"344 230 OFFCURVE",
"317 226 OFFCURVE",
"290 218 CURVE SMOOTH",
"263 209 OFFCURVE",
"243 204 OFFCURVE",
"230 202 CURVE SMOOTH",
"217 200 OFFCURVE",
"205 199 OFFCURVE",
"196 199 CURVE SMOOTH",
"120 199 OFFCURVE",
"74 252 OFFCURVE",
"74 317 CURVE SMOOTH",
"74 351 OFFCURVE",
"85 379 OFFCURVE",
"106 401 CURVE",
"80 416 OFFCURVE",
"67 436 OFFCURVE",
"67 463 CURVE SMOOTH",
"67 540 OFFCURVE",
"178 632 OFFCURVE",
"303 632 CURVE SMOOTH",
"359 632 OFFCURVE",
"411 616 OFFCURVE",
"440 597 CURVE SMOOTH",
"455 587 OFFCURVE",
"462 580 OFFCURVE",
"462 577 CURVE SMOOTH",
"462 570 OFFCURVE",
"453 563 OFFCURVE",
"446 567 CURVE SMOOTH",
"397 596 OFFCURVE",
"347 608 OFFCURVE",
"298 608 CURVE SMOOTH",
"185 608 OFFCURVE",
"89 532 OFFCURVE",
"89 465 CURVE SMOOTH",
"89 426 OFFCURVE",
"123 400 OFFCURVE",
"198 400 CURVE SMOOTH",
"227 400 OFFCURVE",
"235 400 OFFCURVE",
"272 407 CURVE SMOOTH"
);
},
{
closed = 1;
nodes = (
"256 382 OFFCURVE",
"228 381 OFFCURVE",
"208 381 CURVE SMOOTH",
"173 381 OFFCURVE",
"146 385 OFFCURVE",
"127 392 CURVE",
"106 371 OFFCURVE",
"96 345 OFFCURVE",
"96 314 CURVE SMOOTH",
"96 263 OFFCURVE",
"132 222 OFFCURVE",
"197 222 CURVE SMOOTH",
"216 222 OFFCURVE",
"243 227 OFFCURVE",
"276 238 CURVE SMOOTH",
"309 249 OFFCURVE",
"342 254 OFFCURVE",
"375 254 CURVE SMOOTH",
"406 254 OFFCURVE",
"431 247 OFFCURVE",
"452 233 CURVE",
"463 263 OFFCURVE",
"468 288 OFFCURVE",
"468 309 CURVE SMOOTH",
"468 370 OFFCURVE",
"422 390 OFFCURVE",
"350 390 CURVE SMOOTH",
"327 390 OFFCURVE",
"303 388 OFFCURVE",
"276 385 CURVE"
);
}
);
width = 569;
}
);
unicode = 00A7;
},
{
glyphname = bullet;
layers = (
{
layerId = "D726C5A3-D46C-4129-9A2C-DE910460F002";
name = Light;
paths = (
{
closed = 1;
nodes = (
"352 415 OFFCURVE",
"366 377 OFFCURVE",
"366 337 CURVE SMOOTH",
"366 289 OFFCURVE",
"347 239 OFFCURVE",
"294 196 CURVE SMOOTH",
"267 174 OFFCURVE",
"235 163 OFFCURVE",
"196 163 CURVE SMOOTH",
"137 163 OFFCURVE",
"93 200 OFFCURVE",
"76 239 CURVE SMOOTH",
"67 258 OFFCURVE",
"63 279 OFFCURVE",
"63 301 CURVE SMOOTH",
"63 346 OFFCURVE",
"78 388 OFFCURVE",
"128 437 CURVE SMOOTH",
"153 461 OFFCURVE",
"187 473 OFFCURVE",
"231 473 CURVE SMOOTH",
"265 473 OFFCURVE",
"295 462 OFFCURVE",
"321 440 CURVE SMOOTH"
);
}
);
width = 431;
}
);
unicode = 2022;
},
{
glyphname = paragraph;
layers = (
{
layerId = "D726C5A3-D46C-4129-9A2C-DE910460F002";
name = Light;
paths = (
{
closed = 1;
nodes = (
"315 354 LINE",
"279 346 OFFCURVE",
"245 342 OFFCURVE",
"214 342 CURVE SMOOTH",
"113 342 OFFCURVE",
"43 379 OFFCURVE",
"43 438 CURVE SMOOTH",
"43 537 OFFCURVE",
"187 600 OFFCURVE",
"320 631 CURVE SMOOTH",
"387 646 OFFCURVE",
"427 654 OFFCURVE",
"440 654 CURVE",
"453 643 LINE",
"453 0 LINE SMOOTH",
"453 -7 OFFCURVE",
"449 -11 OFFCURVE",
"442 -11 CURVE SMOOTH",
"435 -11 OFFCURVE",
"431 -7 OFFCURVE",
"431 0 CURVE SMOOTH",
"431 629 LINE",
"416 629 OFFCURVE",
"378 620 OFFCURVE",
"337 609 CURVE",
"337 0 LINE SMOOTH",
"337 -7 OFFCURVE",
"333 -11 OFFCURVE",
"326 -11 CURVE SMOOTH",
"319 -11 OFFCURVE",
"315 -7 OFFCURVE",
"315 0 CURVE SMOOTH"
);
},
{
closed = 1;
nodes = (
"315 603 LINE",
"178 566 OFFCURVE",
"66 513 OFFCURVE",
"66 438 CURVE",
"64 419 OFFCURVE",
"78 402 OFFCURVE",
"107 387 CURVE SMOOTH",
"136 372 OFFCURVE",
"173 365 OFFCURVE",
"219 365 CURVE SMOOTH",
"249 365 OFFCURVE",
"281 369 OFFCURVE",
"315 377 CURVE"
);
}
);
width = 508;
}
);
unicode = 00B6;
},
{
glyphname = registered;
layers = (
{
layerId = "D726C5A3-D46C-4129-9A2C-DE910460F002";
name = Light;
paths = (
{
closed = 1;
nodes = (
"567 654 OFFCURVE",
"687 544 OFFCURVE",
"687 352 CURVE SMOOTH",
"687 160 OFFCURVE",
"548 11 OFFCURVE",
"347 11 CURVE SMOOTH",
"176 11 OFFCURVE",
"80 137 OFFCURVE",
"80 296 CURVE SMOOTH",
"80 487 OFFCURVE",
"216 654 OFFCURVE",
"400 654 CURVE SMOOTH"
);
},
{
closed = 1;
nodes = (
"230 632 OFFCURVE",
"102 476 OFFCURVE",
"102 296 CURVE SMOOTH",
"102 145 OFFCURVE",
"188 33 OFFCURVE",
"345 33 CURVE SMOOTH",
"536 33 OFFCURVE",
"665 171 OFFCURVE",
"665 352 CURVE SMOOTH",
"665 533 OFFCURVE",
"559 632 OFFCURVE",
"398 632 CURVE SMOOTH"
);
},
{
closed = 1;
nodes = (
"299 451 LINE",
"344 476 OFFCURVE",
"401 501 OFFCURVE",
"445 501 CURVE SMOOTH",
"467 501 OFFCURVE",
"483 495 OFFCURVE",
"493 482 CURVE",
"497 472 OFFCURVE",
"499 462 OFFCURVE",
"499 452 CURVE SMOOTH",
"499 385 OFFCURVE",
"402 309 OFFCURVE",
"309 268 CURVE",
"354 220 OFFCURVE",
"400 187 OFFCURVE",
"433 187 CURVE SMOOTH",
"452 187 OFFCURVE",
"465 199 OFFCURVE",
"472 222 CURVE",
"474 227 OFFCURVE",
"477 229 OFFCURVE",
"482 229 CURVE SMOOTH",
"493 229 OFFCURVE",
"496 221 OFFCURVE",
"492 214 CURVE",
"477 179 OFFCURVE",
"457 165 OFFCURVE",
"430 165 CURVE SMOOTH",
"391 165 OFFCURVE",
"343 201 OFFCURVE",
"299 246 CURVE",
"299 136 LINE SMOOTH",
"299 129 OFFCURVE",
"295 125 OFFCURVE",
"288 125 CURVE SMOOTH",
"281 125 OFFCURVE",
"277 129 OFFCURVE",
"277 136 CURVE SMOOTH",
"277 485 LINE SMOOTH",
"277 492 OFFCURVE",
"281 496 OFFCURVE",
"288 496 CURVE SMOOTH",
"295 496 OFFCURVE",
"299 492 OFFCURVE",
"299 485 CURVE SMOOTH"
);
},
{
closed = 1;
nodes = (
"299 287 LINE",
"378 320 OFFCURVE",
"481 404 OFFCURVE",
"481 452 CURVE SMOOTH",
"481 459 OFFCURVE",
"479 466 OFFCURVE",
"475 471 CURVE",
"473 478 OFFCURVE",
"466 481 OFFCURVE",
"455 481 CURVE SMOOTH",
"426 481 OFFCURVE",
"368 460 OFFCURVE",
"299 425 CURVE"
);
}
);
width = 738;
}
);
unicode = 00AE;
},
{
glyphname = copyright;
layers = (
{
layerId = "D726C5A3-D46C-4129-9A2C-DE910460F002";
name = Light;
paths = (
{
closed = 1;
nodes = (
"520 645 OFFCURVE",
"640 535 OFFCURVE",
"640 343 CURVE SMOOTH",
"640 152 OFFCURVE",
"501 3 OFFCURVE",
"300 3 CURVE SMOOTH",
"129 3 OFFCURVE",
"33 129 OFFCURVE",
"33 288 CURVE SMOOTH",
"33 479 OFFCURVE",
"168 645 OFFCURVE",
"353 645 CURVE SMOOTH"
);
},
{
closed = 1;
nodes = (
"184 623 OFFCURVE",
"55 467 OFFCURVE",
"55 288 CURVE SMOOTH",
"55 137 OFFCURVE",
"141 25 OFFCURVE",
"298 25 CURVE SMOOTH",
"489 25 OFFCURVE",
"618 163 OFFCURVE",
"618 343 CURVE SMOOTH",
"618 526 OFFCURVE",
"511 623 OFFCURVE",
"351 623 CURVE SMOOTH"
);
},
{
closed = 1;
nodes = (
"457 468 OFFCURVE",
"460 465 OFFCURVE",
"460 461 CURVE SMOOTH",
"460 452 OFFCURVE",
"455 448 OFFCURVE",
"445 450 CURVE",
"413 461 OFFCURVE",
"381 466 OFFCURVE",
"350 466 CURVE SMOOTH",
"239 466 OFFCURVE",
"179 385 OFFCURVE",
"179 298 CURVE SMOOTH",
"179 242 OFFCURVE",
"210 181 OFFCURVE",
"289 181 CURVE SMOOTH",
"353 181 OFFCURVE",
"430 232 OFFCURVE",
"459 277 CURVE SMOOTH",
"474 300 OFFCURVE",
"483 311 OFFCURVE",
"487 311 CURVE SMOOTH",
"494 311 OFFCURVE",
"502 301 OFFCURVE",
"497 293 CURVE",
"438 206 OFFCURVE",
"361 159 OFFCURVE",
"289 159 CURVE SMOOTH",
"197 159 OFFCURVE",
"157 226 OFFCURVE",
"157 297 CURVE SMOOTH",
"157 394 OFFCURVE",
"228 488 OFFCURVE",
"349 488 CURVE SMOOTH",
"380 488 OFFCURVE",
"414 482 OFFCURVE",
"452 470 CURVE"
);
}
);
width = 686;
}
);
unicode = 00A9;
},
{
glyphname = trademark;
layers = (
{
layerId = "D726C5A3-D46C-4129-9A2C-DE910460F002";
name = Light;
paths = (
{
closed = 1;
nodes = (
"158 604 LINE",
"49 587 LINE",
"40 587 OFFCURVE",
"36 591 OFFCURVE",
"36 600 CURVE SMOOTH",
"36 606 OFFCURVE",
"39 609 OFFCURVE",
"45 609 CURVE",
"163 628 LINE",
"170 628 LINE",
"297 648 LINE",
"306 648 OFFCURVE",
"310 644 OFFCURVE",
"310 635 CURVE SMOOTH",
"310 629 OFFCURVE",
"307 626 OFFCURVE",
"301 626 CURVE",
"180 608 LINE",
"180 323 LINE SMOOTH",
"180 316 OFFCURVE",
"176 312 OFFCURVE",
"169 312 CURVE SMOOTH",
"162 312 OFFCURVE",
"158 316 OFFCURVE",
"158 323 CURVE SMOOTH"
);
},
{
closed = 1;
nodes = (
"377 323 LINE SMOOTH",
"377 316 OFFCURVE",
"373 312 OFFCURVE",
"366 312 CURVE SMOOTH",
"359 312 OFFCURVE",
"355 316 OFFCURVE",
"355 323 CURVE SMOOTH",
"355 640 LINE",
"376 645 LINE",
"524 357 LINE",
"663 647 LINE",
"684 643 LINE",
"684 323 LINE SMOOTH",
"684 316 OFFCURVE",
"680 312 OFFCURVE",
"673 312 CURVE SMOOTH",
"666 312 OFFCURVE",
"662 316 OFFCURVE",
"662 323 CURVE SMOOTH",
"662 594 LINE",
"534 328 LINE",
"513 328 LINE",
"377 595 LINE"
);
}
);
width = 765;
}
);
unicode = 2122;
},
{
glyphname = acute;
layers = (
{
layerId = "D726C5A3-D46C-4129-9A2C-DE910460F002";
name = Light;
paths = (
{
closed = 1;
nodes = (
"167 650 LINE SMOOTH",
"175 658 OFFCURVE",
"185 651 OFFCURVE",
"185 642 CURVE SMOOTH",
"185 639 OFFCURVE",
"184 637 OFFCURVE",
"182 635 CURVE SMOOTH",
"57 511 LINE",
"55 508 OFFCURVE",
"52 507 OFFCURVE",
"49 507 CURVE SMOOTH",
"42 507 OFFCURVE",
"39 510 OFFCURVE",
"39 517 CURVE SMOOTH",
"39 520 OFFCURVE",
"40 523 OFFCURVE",
"42 525 CURVE SMOOTH"
);
}
);
width = 235;
}
);
unicode = 00B4;
},
{
glyphname = dieresis;
layers = (
{
layerId = "D726C5A3-D46C-4129-9A2C-DE910460F002";
name = Light;
paths = (
{
closed = 1;
nodes = (
"243 601 OFFCURVE",
"249 595 OFFCURVE",
"249 582 CURVE SMOOTH",
"249 571 OFFCURVE",
"242 562 OFFCURVE",
"230 562 CURVE SMOOTH",
"217 562 OFFCURVE",
"211 569 OFFCURVE",
"211 582 CURVE SMOOTH",
"211 595 OFFCURVE",
"217 601 OFFCURVE",
"230 601 CURVE SMOOTH"
);
},
{
closed = 1;
nodes = (
"85 601 OFFCURVE",
"91 595 OFFCURVE",
"91 582 CURVE SMOOTH",
"91 571 OFFCURVE",
"84 562 OFFCURVE",
"72 562 CURVE SMOOTH",
"59 562 OFFCURVE",
"53 569 OFFCURVE",
"53 582 CURVE SMOOTH",
"53 595 OFFCURVE",
"59 601 OFFCURVE",
"72 601 CURVE SMOOTH"
);
},
{
closed = 1;
nodes = (
"230 579 LINE",
"233 582 LINE",
"230 584 LINE",
"227 582 LINE"
);
},
{
closed = 1;
nodes = (
"72 579 LINE",
"75 582 LINE",
"72 584 LINE",
"69 582 LINE"
);
}
);
width = 302;
}
);
unicode = 00A8;
},
{
glyphname = notequal;
layers = (
{
layerId = "D726C5A3-D46C-4129-9A2C-DE910460F002";
name = Light;
paths = (
{
closed = 1;
nodes = (
"313 343 LINE",
"398 488 LINE",
"400 491 OFFCURVE",
"403 493 OFFCURVE",
"406 493 CURVE SMOOTH",
"413 493 OFFCURVE",
"421 484 OFFCURVE",
"416 476 CURVE SMOOTH",
"338 343 LINE",
"443 343 LINE SMOOTH",
"450 343 OFFCURVE",
"454 339 OFFCURVE",
"454 332 CURVE SMOOTH",
"454 325 OFFCURVE",
"450 321 OFFCURVE",
"443 321 CURVE SMOOTH",
"325 321 LINE",
"224 150 LINE",
"449 150 LINE SMOOTH",
"456 150 OFFCURVE",
"460 146 OFFCURVE",
"460 138 CURVE SMOOTH",
"460 131 OFFCURVE",
"456 127 OFFCURVE",
"449 127 CURVE SMOOTH",
"211 127 LINE",
"148 19 LINE",
"146 16 OFFCURVE",
"143 14 OFFCURVE",
"139 14 CURVE SMOOTH",
"132 14 OFFCURVE",
"125 22 OFFCURVE",
"129 30 CURVE",
"187 127 LINE",
"53 127 LINE SMOOTH",
"46 127 OFFCURVE",
"42 131 OFFCURVE",
"42 138 CURVE SMOOTH",
"42 146 OFFCURVE",
"46 150 OFFCURVE",
"53 150 CURVE SMOOTH",
"199 150 LINE",
"300 321 LINE",
"47 321 LINE SMOOTH",
"40 321 OFFCURVE",
"36 325 OFFCURVE",
"36 332 CURVE SMOOTH",
"36 339 OFFCURVE",
"40 343 OFFCURVE",
"47 343 CURVE SMOOTH"
);
}
);
width = 541;
}
);
unicode = 2260;
},
{
glyphname = AE;
layers = (
{
layerId = "D726C5A3-D46C-4129-9A2C-DE910460F002";
name = Light;
paths = (
{
closed = 1;
nodes = (
"416 313 LINE",
"418 14 LINE",
"716 72 LINE",
"724 72 OFFCURVE",
"728 68 OFFCURVE",
"728 59 CURVE SMOOTH",
"728 53 OFFCURVE",
"725 50 OFFCURVE",
"719 50 CURVE",
"409 -11 LINE",
"396 0 LINE",
"393 309 LINE",
"216 279 LINE",
"63 -6 LINE",
"61 -9 OFFCURVE",
"58 -11 OFFCURVE",
"54 -11 CURVE SMOOTH",
"43 -11 OFFCURVE",
"39 -1 OFFCURVE",
"42 6 CURVE",
"195 287 LINE",
"195 295 OFFCURVE",
"197 299 OFFCURVE",
"200 299 CURVE",
"392 651 LINE",
"413 645 LINE",
"413 611 LINE",
"718 651 LINE",
"727 651 OFFCURVE",
"731 647 OFFCURVE",
"731 638 CURVE SMOOTH",
"731 632 OFFCURVE",
"728 629 OFFCURVE",
"722 629 CURVE",
"413 588 LINE",
"416 336 LINE",
"680 382 LINE",
"688 382 OFFCURVE",
"692 378 OFFCURVE",
"692 369 CURVE SMOOTH",
"692 363 OFFCURVE",
"689 360 OFFCURVE",
"683 360 CURVE"
);
},
{
closed = 1;
nodes = (
"230 304 LINE",
"393 332 LINE",
"391 586 LINE",
"382 585 LINE"
);
}
);
width = 776;
}
);
unicode = 00C6;
},
{
glyphname = Oslash;
layers = (
{
layerId = "D726C5A3-D46C-4129-9A2C-DE910460F002";
name = Light;
paths = (
{
closed = 1;
nodes = (
"571 545 LINE",
"596 493 OFFCURVE",
"609 432 OFFCURVE",
"609 368 CURVE SMOOTH",
"609 177 OFFCURVE",
"492 6 OFFCURVE",
"316 6 CURVE SMOOTH",
"243 6 OFFCURVE",
"192 43 OFFCURVE",
"160 104 CURVE",
"66 4 LINE",
"61 -3 OFFCURVE",
"38 5 OFFCURVE",
"50 18 CURVE SMOOTH",
"150 127 LINE",
"133 167 OFFCURVE",
"125 220 OFFCURVE",
"125 269 CURVE SMOOTH",
"125 453 OFFCURVE",
"281 645 OFFCURVE",
"424 645 CURVE SMOOTH",
"480 645 OFFCURVE",
"527 615 OFFCURVE",
"559 566 CURVE",
"634 647 LINE",
"637 649 OFFCURVE",
"640 650 OFFCURVE",
"642 650 CURVE SMOOTH",
"650 650 OFFCURVE",
"658 640 OFFCURVE",
"651 633 CURVE"
);
},
{
closed = 1;
nodes = (
"587 427 OFFCURVE",
"577 480 OFFCURVE",
"553 527 CURVE",
"176 122 LINE",
"203 63 OFFCURVE",
"251 28 OFFCURVE",
"316 28 CURVE SMOOTH",
"473 28 OFFCURVE",
"587 189 OFFCURVE",
"587 368 CURVE SMOOTH"
);
},
{
closed = 1;
nodes = (
"147 223 OFFCURVE",
"154 181 OFFCURVE",
"167 144 CURVE",
"542 548 LINE",
"513 597 OFFCURVE",
"476 623 OFFCURVE",
"424 623 CURVE SMOOTH",
"301 623 OFFCURVE",
"147 438 OFFCURVE",
"147 269 CURVE SMOOTH"
);
}
);
width = 714;
}
);
unicode = 00D8;
},
{
glyphname = infinity;
layers = (
{
layerId = "D726C5A3-D46C-4129-9A2C-DE910460F002";
name = Light;
paths = (
{
closed = 1;
nodes = (
"36 352 OFFCURVE",
"85 407 OFFCURVE",
"144 407 CURVE SMOOTH",
"215 407 OFFCURVE",
"238 382 OFFCURVE",
"305 315 CURVE",
"354 371 OFFCURVE",
"390 406 OFFCURVE",
"453 406 CURVE SMOOTH",
"518 406 OFFCURVE",
"578 356 OFFCURVE",
"578 296 CURVE SMOOTH",
"578 220 OFFCURVE",
"529 180 OFFCURVE",
"465 180 CURVE SMOOTH",
"404 180 OFFCURVE",
"371 210 OFFCURVE",
"304 283 CURVE",
"251 218 OFFCURVE",
"212 180 OFFCURVE",
"149 180 CURVE SMOOTH",
"88 180 OFFCURVE",
"36 230 OFFCURVE",
"36 291 CURVE SMOOTH"
);
},
{
closed = 1;
nodes = (
"406 384 OFFCURVE",
"376 353 OFFCURVE",
"320 297 CURVE",
"359 256 OFFCURVE",
"388 230 OFFCURVE",
"407 219 CURVE SMOOTH",
"426 208 OFFCURVE",
"445 202 OFFCURVE",
"465 202 CURVE SMOOTH",
"521 202 OFFCURVE",
"556 229 OFFCURVE",
"556 296 CURVE SMOOTH",
"556 340 OFFCURVE",
"505 384 OFFCURVE",
"453 384 CURVE SMOOTH"
);
},
{
closed = 1;
nodes = (
"239 353 OFFCURVE",
"188 385 OFFCURVE",
"144 385 CURVE SMOOTH",
"100 385 OFFCURVE",
"58 340 OFFCURVE",
"58 291 CURVE SMOOTH",
"58 242 OFFCURVE",
"100 202 OFFCURVE",
"149 202 CURVE SMOOTH",
"201 202 OFFCURVE",
"242 237 OFFCURVE",
"290 298 CURVE"
);
}
);
width = 595;
}
);
unicode = 221E;
},
{
glyphname = plusminus;
layers = (
{
layerId = "D726C5A3-D46C-4129-9A2C-DE910460F002";
name = Light;
paths = (
{
closed = 1;
nodes = (
"238 97 LINE",
"238 244 LINE",
"50 244 LINE",
"50 266 LINE",
"238 266 LINE",
"238 410 LINE",
"260 410 LINE",
"260 266 LINE",
"443 266 LINE",
"443 244 LINE",
"260 244 LINE",
"260 97 LINE"
);
},
{
closed = 1;
nodes = (
"50 11 LINE",
"50 33 LINE",
"443 33 LINE",
"443 11 LINE"
);
}
);
width = 483;
}
);
unicode = 00B1;
},
{
glyphname = lessequal;
layers = (
{
layerId = "D726C5A3-D46C-4129-9A2C-DE910460F002";
name = Light;
paths = (
{
closed = 1;
nodes = (
"484 50 LINE SMOOTH",
"491 50 OFFCURVE",
"495 46 OFFCURVE",
"495 39 CURVE SMOOTH",
"495 32 OFFCURVE",
"491 28 OFFCURVE",
"484 28 CURVE SMOOTH",
"57 28 LINE SMOOTH",
"50 28 OFFCURVE",
"46 32 OFFCURVE",
"46 39 CURVE SMOOTH",
"46 46 OFFCURVE",
"50 50 OFFCURVE",
"57 50 CURVE SMOOTH"
);
},
{
closed = 1;
nodes = (
"476 581 LINE SMOOTH",
"484 585 OFFCURVE",
"493 577 OFFCURVE",
"493 569 CURVE SMOOTH",
"493 565 OFFCURVE",
"491 562 OFFCURVE",
"487 560 CURVE SMOOTH",
"83 349 LINE",
"486 160 LINE SMOOTH",
"490 158 OFFCURVE",
"492 155 OFFCURVE",
"492 151 CURVE SMOOTH",
"492 140 OFFCURVE",
"487 136 OFFCURVE",
"476 139 CURVE",
"53 339 LINE",
"52 359 LINE"
);
}
);
width = 560;
}
);
unicode = 2264;
},
{
glyphname = greaterequal;
layers = (
{
layerId = "D726C5A3-D46C-4129-9A2C-DE910460F002";
name = Light;
paths = (
{
closed = 1;
nodes = (
"37 30 LINE SMOOTH",
"30 30 OFFCURVE",
"26 34 OFFCURVE",
"26 41 CURVE SMOOTH",
"26 49 OFFCURVE",
"30 53 OFFCURVE",
"37 53 CURVE SMOOTH",
"472 53 LINE SMOOTH",
"479 53 OFFCURVE",
"483 49 OFFCURVE",
"483 41 CURVE SMOOTH",
"483 34 OFFCURVE",
"479 30 OFFCURVE",
"472 30 CURVE SMOOTH"
);
},
{
closed = 1;
nodes = (
"42 555 LINE",
"39 557 OFFCURVE",
"37 560 OFFCURVE",
"37 564 CURVE SMOOTH",
"37 568 OFFCURVE",
"43 580 OFFCURVE",
"54 575 CURVE",
"461 359 LINE",
"460 339 LINE",
"47 139 LINE",
"39 136 OFFCURVE",
"32 143 OFFCURVE",
"32 151 CURVE SMOOTH",
"32 155 OFFCURVE",
"34 158 OFFCURVE",
"38 160 CURVE SMOOTH",
"430 349 LINE"
);
}
);
width = 532;
}
);
unicode = 2265;
},
{
glyphname = yen;
layers = (
{
layerId = "D726C5A3-D46C-4129-9A2C-DE910460F002";
name = Light;
paths = (
{
closed = 1;
nodes = (
"329 326 LINE",
"329 263 LINE",
"475 263 LINE SMOOTH",
"482 263 OFFCURVE",
"486 259 OFFCURVE",
"486 252 CURVE SMOOTH",
"486 245 OFFCURVE",
"482 241 OFFCURVE",
"475 241 CURVE SMOOTH",
"329 241 LINE",
"329 147 LINE",
"475 147 LINE SMOOTH",
"482 147 OFFCURVE",
"486 143 OFFCURVE",
"486 136 CURVE SMOOTH",
"486 129 OFFCURVE",
"482 125 OFFCURVE",
"475 125 CURVE SMOOTH",
"329 125 LINE",
"329 11 LINE SMOOTH",
"329 4 OFFCURVE",
"325 0 OFFCURVE",
"318 0 CURVE SMOOTH",
"311 0 OFFCURVE",
"307 4 OFFCURVE",
"307 11 CURVE SMOOTH",
"307 125 LINE",
"156 125 LINE SMOOTH",
"149 125 OFFCURVE",
"145 129 OFFCURVE",
"145 136 CURVE SMOOTH",
"145 143 OFFCURVE",
"149 147 OFFCURVE",
"156 147 CURVE SMOOTH",
"307 147 LINE",
"307 241 LINE",
"156 241 LINE SMOOTH",
"149 241 OFFCURVE",
"145 245 OFFCURVE",
"145 252 CURVE SMOOTH",
"145 259 OFFCURVE",
"149 263 OFFCURVE",
"156 263 CURVE SMOOTH",
"307 263 LINE",
"307 324 LINE",
"34 635 LINE",
"27 642 OFFCURVE",
"35 654 OFFCURVE",
"44 654 CURVE SMOOTH",
"47 654 OFFCURVE",
"49 653 OFFCURVE",
"51 650 CURVE",
"317 346 LINE",
"580 650 LINE",
"582 653 OFFCURVE",
"585 654 OFFCURVE",
"588 654 CURVE SMOOTH",
"595 654 OFFCURVE",
"599 650 OFFCURVE",
"599 642 CURVE SMOOTH",
"599 639 OFFCURVE",
"598 637 OFFCURVE",
"596 635 CURVE"
);
}
);
width = 651;
}
);
unicode = 00A5;
},
{
glyphname = integral;
layers = (
{
layerId = "D726C5A3-D46C-4129-9A2C-DE910460F002";
name = Light;
paths = (
{
closed = 1;
nodes = (
"325 553 OFFCURVE",
"321 549 OFFCURVE",
"314 549 CURVE SMOOTH",
"307 549 OFFCURVE",
"303 553 OFFCURVE",
"303 560 CURVE SMOOTH",
"303 589 OFFCURVE",
"280 617 OFFCURVE",
"255 617 CURVE SMOOTH",
"232 617 OFFCURVE",
"215 596 OFFCURVE",
"206 555 CURVE",
"205 544 OFFCURVE",
"202 494 OFFCURVE",
"197 404 CURVE SMOOTH",
"188 224 OFFCURVE",
"173 -29 OFFCURVE",
"162 -88 CURVE",
"157 -135 OFFCURVE",
"132 -157 OFFCURVE",
"99 -157 CURVE SMOOTH",
"66 -157 OFFCURVE",
"34 -130 OFFCURVE",
"34 -94 CURVE SMOOTH",
"34 -87 OFFCURVE",
"38 -83 OFFCURVE",
"45 -83 CURVE SMOOTH",
"52 -83 OFFCURVE",
"56 -87 OFFCURVE",
"56 -94 CURVE SMOOTH",
"56 -118 OFFCURVE",
"77 -136 OFFCURVE",
"98 -136 CURVE SMOOTH",
"119 -136 OFFCURVE",
"136 -120 OFFCURVE",
"139 -85 CURVE",
"152 -21 OFFCURVE",
"168 279 OFFCURVE",
"184 558 CURVE",
"193 614 OFFCURVE",
"219 638 OFFCURVE",
"251 638 CURVE SMOOTH",
"290 638 OFFCURVE",
"325 601 OFFCURVE",
"325 560 CURVE SMOOTH"
);
}
);
width = 365;
}
);
unicode = 222B;
},
{
glyphname = ordfeminine;
layers = (
{
layerId = "D726C5A3-D46C-4129-9A2C-DE910460F002";
name = Light;
paths = (
{
closed = 1;
nodes = (
"41 355 OFFCURVE",
"40 371 OFFCURVE",
"40 380 CURVE SMOOTH",
"40 467 OFFCURVE",
"144 513 OFFCURVE",
"245 513 CURVE SMOOTH",
"282 513 OFFCURVE",
"307 507 OFFCURVE",
"320 496 CURVE",
"320 509 OFFCURVE",
"320 521 OFFCURVE",
"320 533 CURVE SMOOTH",
"320 545 OFFCURVE",
"320 557 OFFCURVE",
"321 568 CURVE",
"321 573 OFFCURVE",
"321 579 OFFCURVE",
"321 584 CURVE",
"320 591 OFFCURVE",
"319 595 OFFCURVE",
"319 597 CURVE",
"307 629 OFFCURVE",
"283 643 OFFCURVE",
"250 643 CURVE SMOOTH",
"189 643 OFFCURVE",
"101 584 OFFCURVE",
"105 559 CURVE",
"105 552 OFFCURVE",
"101 548 OFFCURVE",
"94 548 CURVE SMOOTH",
"87 548 OFFCURVE",
"83 552 OFFCURVE",
"83 559 CURVE",
"87 599 OFFCURVE",
"174 666 OFFCURVE",
"245 666 CURVE SMOOTH",
"285 666 OFFCURVE",
"318 648 OFFCURVE",
"339 604 CURVE",
"340 601 LINE",
"343 586 OFFCURVE",
"344 555 OFFCURVE",
"344 520 CURVE SMOOTH",
"344 447 OFFCURVE",
"340 370 OFFCURVE",
"336 310 CURVE",
"336 303 OFFCURVE",
"333 300 OFFCURVE",
"326 300 CURVE SMOOTH",
"318 300 OFFCURVE",
"314 304 OFFCURVE",
"314 312 CURVE",
"317 333 OFFCURVE",
"319 372 OFFCURVE",
"319 403 CURVE",
"282 347 OFFCURVE",
"193 298 OFFCURVE",
"125 298 CURVE SMOOTH",
"86 298 OFFCURVE",
"58 311 OFFCURVE",
"45 343 CURVE"
);
},
{
closed = 1;
nodes = (
"71 328 OFFCURVE",
"87 317 OFFCURVE",
"116 317 CURVE SMOOTH",
"192 317 OFFCURVE",
"320 400 OFFCURVE",
"320 453 CURVE SMOOTH",
"320 464 OFFCURVE",
"316 472 OFFCURVE",
"307 479 CURVE",
"300 488 OFFCURVE",
"283 492 OFFCURVE",
"255 492 CURVE SMOOTH",
"166 492 OFFCURVE",
"59 451 OFFCURVE",
"59 383 CURVE SMOOTH",
"59 372 OFFCURVE",
"61 361 OFFCURVE",
"66 350 CURVE"
);
}
);
width = 403;
}
);
unicode = 00AA;
},
{
glyphname = ordmasculine;
layers = (
{
layerId = "D726C5A3-D46C-4129-9A2C-DE910460F002";
name = Light;
paths = (
{
closed = 1;
nodes = (
"39 379 OFFCURVE",
"29 414 OFFCURVE",
"29 453 CURVE SMOOTH",
"29 561 OFFCURVE",
"113 662 OFFCURVE",
"206 662 CURVE SMOOTH",
"237 662 OFFCURVE",
"265 653 OFFCURVE",
"298 623 CURVE SMOOTH",
"330 593 OFFCURVE",
"347 553 OFFCURVE",
"347 512 CURVE SMOOTH",
"347 412 OFFCURVE",
"239 307 OFFCURVE",
"144 307 CURVE SMOOTH",
"109 307 OFFCURVE",
"83 317 OFFCURVE",
"60 348 CURVE"
);
},
{
closed = 1;
nodes = (
"93 337 OFFCURVE",
"114 326 OFFCURVE",
"142 326 CURVE SMOOTH",
"223 326 OFFCURVE",
"327 426 OFFCURVE",
"327 515 CURVE SMOOTH",
"327 551 OFFCURVE",
"312 582 OFFCURVE",
"281 609 CURVE",
"258 632 OFFCURVE",
"234 640 OFFCURVE",
"207 640 CURVE SMOOTH",
"128 640 OFFCURVE",
"50 546 OFFCURVE",
"50 451 CURVE SMOOTH",
"50 418 OFFCURVE",
"59 388 OFFCURVE",
"78 361 CURVE"
);
}
);
width = 389;
}
);
unicode = 00BA;
},
{
glyphname = ae;
layers = (
{
layerId = "D726C5A3-D46C-4129-9A2C-DE910460F002";
name = Light;
paths = (
{
closed = 1;
nodes = (
"397 150 OFFCURVE",
"395 136 OFFCURVE",
"391 127 CURVE SMOOTH",
"387 118 OFFCURVE",
"384 112 OFFCURVE",
"383 110 CURVE",
"381 107 OFFCURVE",
"380 105 OFFCURVE",
"380 104 CURVE",
"380 161 LINE",
"379 199 LINE",
"380 235 LINE",
"384 266 OFFCURVE",
"392 295 OFFCURVE",
"403 322 CURVE",
"403 277 LINE",
"689 352 LINE",
"676 407 OFFCURVE",
"632 436 OFFCURVE",
"580 436 CURVE SMOOTH",
"488 436 OFFCURVE",
"402 355 OFFCURVE",
"402 220 CURVE SMOOTH",
"403 176 LINE SMOOTH",
"403 149 OFFCURVE",
"406 137 OFFCURVE",
"415 93 CURVE SMOOTH",
"424 48 OFFCURVE",
"452 23 OFFCURVE",
"491 23 CURVE SMOOTH",
"554 23 OFFCURVE",
"651 95 OFFCURVE",
"676 127 CURVE SMOOTH",
"689 143 OFFCURVE",
"697 151 OFFCURVE",
"700 151 CURVE SMOOTH",
"708 151 OFFCURVE",
"715 142 OFFCURVE",
"708 135 CURVE",
"661 75 OFFCURVE",
"561 1 OFFCURVE",
"492 1 CURVE SMOOTH",
"445 1 OFFCURVE",
"413 25 OFFCURVE",
"393 86 CURVE",
"384 86 OFFCURVE",
"380 90 OFFCURVE",
"380 98 CURVE SMOOTH",
"380 104 LINE",
"343 43 OFFCURVE",
"245 0 OFFCURVE",
"160 0 CURVE SMOOTH",
"97 0 OFFCURVE",
"50 21 OFFCURVE",
"37 68 CURVE",
"29 155 OFFCURVE",
"167 223 OFFCURVE",
"288 223 CURVE SMOOTH",
"331 223 OFFCURVE",
"358 216 OFFCURVE",
"379 199 CURVE",
"380 235 LINE",
"380 360 LINE",
"380 396 LINE SMOOTH",
"380 418 OFFCURVE",
"376 431 OFFCURVE",
"368 436 CURVE",
"359 441 OFFCURVE",
"335 443 OFFCURVE",
"295 443 CURVE SMOOTH",
"238 443 OFFCURVE",
"185 399 OFFCURVE",
"151 358 CURVE SMOOTH",
"134 337 OFFCURVE",
"123 327 OFFCURVE",
"120 327 CURVE SMOOTH",
"112 327 OFFCURVE",
"105 338 OFFCURVE",
"112 345 CURVE",
"177 426 OFFCURVE",
"226 465 OFFCURVE",
"295 465 CURVE SMOOTH",
"300 465 OFFCURVE",
"305 465 OFFCURVE",
"310 466 CURVE SMOOTH",
"315 467 OFFCURVE",
"319 467 OFFCURVE",
"322 467 CURVE SMOOTH",
"387 467 OFFCURVE",
"403 433 OFFCURVE",
"403 360 CURVE SMOOTH",
"403 322 LINE",
"440 407 OFFCURVE",
"513 458 OFFCURVE",
"585 458 CURVE SMOOTH",
"646 458 OFFCURVE",
"697 420 OFFCURVE",
"714 344 CURVE",
"705 331 LINE",
"404 254 LINE",
"402 220 LINE",
"403 176 LINE",
"403 98 LINE SMOOTH",
"403 90 OFFCURVE",
"400 86 OFFCURVE",
"393 86 CURVE",
"392 91 LINE",
"392 95 OFFCURVE",
"391 100 OFFCURVE",
"390 106 CURVE",
"388 112 OFFCURVE",
"387 115 OFFCURVE",
"387 116 CURVE SMOOTH",
"387 120 OFFCURVE",
"386 127 OFFCURVE",
"384 138 CURVE",
"381 148 OFFCURVE",
"380 156 OFFCURVE",
"380 161 CURVE SMOOTH",
"380 197 LINE",
"391 189 OFFCURVE",
"397 180 OFFCURVE",
"397 170 CURVE SMOOTH"
);
},
{
closed = 1;
nodes = (
"403 277 LINE",
"398 276 LINE",
"393 276 OFFCURVE",
"390 273 OFFCURVE",
"390 268 CURVE SMOOTH",
"390 259 OFFCURVE",
"394 254 OFFCURVE",
"403 254 CURVE"
);
},
{
closed = 1;
nodes = (
"375 191 OFFCURVE",
"346 202 OFFCURVE",
"301 202 CURVE SMOOTH",
"197 202 OFFCURVE",
"57 147 OFFCURVE",
"57 86 CURVE SMOOTH",
"57 83 OFFCURVE",
"58 79 OFFCURVE",
"59 72 CURVE",
"59 39 OFFCURVE",
"93 22 OFFCURVE",
"148 22 CURVE SMOOTH",
"252 22 OFFCURVE",
"376 79 OFFCURVE",
"376 155 CURVE SMOOTH",
"376 161 OFFCURVE",
"376 165 OFFCURVE",
"375 168 CURVE"
);
}
);
width = 753;
}
);
unicode = 00E6;
},
{
glyphname = oslash;
layers = (
{
layerId = "D726C5A3-D46C-4129-9A2C-DE910460F002";
name = Light;
paths = (
{
closed = 1;
nodes = (
"457 392 LINE",
"476 367 OFFCURVE",
"485 337 OFFCURVE",
"485 302 CURVE SMOOTH",
"485 242 OFFCURVE",
"457 174 OFFCURVE",
"409 113 CURVE SMOOTH",
"361 52 OFFCURVE",
"286 1 OFFCURVE",
"214 1 CURVE SMOOTH",
"183 1 OFFCURVE",
"155 10 OFFCURVE",
"128 27 CURVE",
"109 42 LINE",
"73 6 LINE SMOOTH",
"65 -2 OFFCURVE",
"55 5 OFFCURVE",
"55 14 CURVE SMOOTH",
"55 17 OFFCURVE",
"56 19 OFFCURVE",
"58 21 CURVE SMOOTH",
"94 58 LINE",
"74 85 OFFCURVE",
"64 117 OFFCURVE",
"64 154 CURVE SMOOTH",
"64 227 OFFCURVE",
"105 311 OFFCURVE",
"161 363 CURVE SMOOTH",
"216 415 OFFCURVE",
"281 449 OFFCURVE",
"340 449 CURVE SMOOTH",
"373 449 OFFCURVE",
"402 439 OFFCURVE",
"429 419 CURVE",
"434 416 OFFCURVE",
"439 412 OFFCURVE",
"444 406 CURVE",
"496 459 LINE SMOOTH",
"504 467 OFFCURVE",
"514 460 OFFCURVE",
"514 451 CURVE SMOOTH",
"514 448 OFFCURVE",
"513 446 OFFCURVE",
"511 444 CURVE SMOOTH"
);
},
{
closed = 1;
nodes = (
"125 57 LINE",
"141 45 LINE",
"164 30 OFFCURVE",
"188 23 OFFCURVE",
"213 23 CURVE SMOOTH",
"276 23 OFFCURVE",
"347 68 OFFCURVE",
"393 128 CURVE SMOOTH",
"439 188 OFFCURVE",
"463 246 OFFCURVE",
"463 303 CURVE SMOOTH",
"463 331 OFFCURVE",
"456 355 OFFCURVE",
"441 376 CURVE"
);
},
{
closed = 1;
nodes = (
"123 298 OFFCURVE",
"86 220 OFFCURVE",
"86 153 CURVE SMOOTH",
"86 120 OFFCURVE",
"94 94 OFFCURVE",
"110 73 CURVE",
"428 391 LINE",
"421 398 OFFCURVE",
"417 401 OFFCURVE",
"416 401 CURVE",
"393 418 OFFCURVE",
"367 426 OFFCURVE",
"340 426 CURVE SMOOTH",
"287 426 OFFCURVE",
"230 396 OFFCURVE",
"178 349 CURVE SMOOTH"
);
}
);
width = 551;
}
);
unicode = 00F8;
},
{
glyphname = questiondown;
lastChange = "2014-02-11 18:38:48 -0800";
layers = (
{
layerId = "D726C5A3-D46C-4129-9A2C-DE910460F002";
name = Light;
paths = (
{
closed = 1;
nodes = (
"345 140 OFFCURVE",
"348 142 OFFCURVE",
"352 142 CURVE SMOOTH",
"359 142 OFFCURVE",
"366 134 OFFCURVE",
"362 126 CURVE",
"309 35 OFFCURVE",
"238 -4 OFFCURVE",
"171 -4 CURVE SMOOTH",
"92 -4 OFFCURVE",
"29 52 OFFCURVE",
"29 112 CURVE SMOOTH",
"29 141 OFFCURVE",
"53 175 OFFCURVE",
"100 216 CURVE",
"189 285 OFFCURVE",
"306 367 OFFCURVE",
"306 408 CURVE SMOOTH",
"306 452 OFFCURVE",
"283 470 OFFCURVE",
"248 470 CURVE SMOOTH",
"212 470 OFFCURVE",
"170 447 OFFCURVE",
"173 428 CURVE",
"173 421 OFFCURVE",
"169 417 OFFCURVE",
"162 417 CURVE SMOOTH",
"155 417 OFFCURVE",
"151 421 OFFCURVE",
"151 428 CURVE SMOOTH",
"151 461 OFFCURVE",
"202 493 OFFCURVE",
"251 493 CURVE SMOOTH",
"296 493 OFFCURVE",
"328 468 OFFCURVE",
"328 408 CURVE SMOOTH",
"328 379 OFFCURVE",
"304 344 OFFCURVE",
"255 303 CURVE",
"164 234 OFFCURVE",
"47 153 OFFCURVE",
"51 112 CURVE",
"51 67 OFFCURVE",
"105 17 OFFCURVE",
"172 17 CURVE SMOOTH",
"229 17 OFFCURVE",
"292 53 OFFCURVE",
"343 137 CURVE"
);
},
{
closed = 1;
nodes = (
"231 616 OFFCURVE",
"244 630 OFFCURVE",
"259 630 CURVE SMOOTH",
"275 630 OFFCURVE",
"286 615 OFFCURVE",
"286 597 CURVE SMOOTH",
"286 581 OFFCURVE",
"272 567 OFFCURVE",
"257 567 CURVE SMOOTH",
"240 567 OFFCURVE",
"231 581 OFFCURVE",
"231 599 CURVE SMOOTH"
);
}
);
width = 398;
}
);
unicode = 00BF;
},
{
glyphname = exclamdown;
lastChange = "2014-02-11 18:38:57 -0800";
layers = (
{
layerId = "D726C5A3-D46C-4129-9A2C-DE910460F002";
name = Light;
paths = (
{
closed = 1;
nodes = (
"114 -180 LINE SMOOTH",
"114 -187 OFFCURVE",
"110 -191 OFFCURVE",
"103 -191 CURVE SMOOTH",
"95 -191 OFFCURVE",
"91 -187 OFFCURVE",
"91 -180 CURVE SMOOTH",
"91 252 LINE SMOOTH",
"91 259 OFFCURVE",
"95 263 OFFCURVE",
"103 263 CURVE SMOOTH",
"110 263 OFFCURVE",
"114 259 OFFCURVE",
"114 252 CURVE SMOOTH"
);
},
{
closed = 1;
nodes = (
"74 419 OFFCURVE",
"87 431 OFFCURVE",
"102 431 CURVE SMOOTH",
"117 431 OFFCURVE",
"130 416 OFFCURVE",
"130 398 CURVE SMOOTH",
"130 381 OFFCURVE",
"116 368 OFFCURVE",
"100 368 CURVE SMOOTH",
"85 368 OFFCURVE",
"74 383 OFFCURVE",
"74 401 CURVE SMOOTH"
);
}
);
width = 183;
}
);
unicode = 00A1;
},
{
glyphname = logicalnot;
layers = (
{
layerId = "D726C5A3-D46C-4129-9A2C-DE910460F002";
name = Light;
paths = (
{
closed = 1;
nodes = (
"46 321 LINE SMOOTH",
"39 321 OFFCURVE",
"35 325 OFFCURVE",
"35 332 CURVE SMOOTH",
"35 339 OFFCURVE",
"39 343 OFFCURVE",
"46 343 CURVE SMOOTH",
"439 343 LINE",
"450 332 LINE",
"450 171 LINE SMOOTH",
"450 164 OFFCURVE",
"446 160 OFFCURVE",
"439 160 CURVE SMOOTH",
"432 160 OFFCURVE",
"428 164 OFFCURVE",
"428 171 CURVE SMOOTH",
"428 321 LINE"
);
}
);
width = 484;
}
);
unicode = 00AC;
},
{
glyphname = florin;
layers = (
{
layerId = "D726C5A3-D46C-4129-9A2C-DE910460F002";
name = Light;
paths = (
{
closed = 1;
nodes = (
"55 321 LINE SMOOTH",
"48 321 OFFCURVE",
"45 325 OFFCURVE",
"45 332 CURVE SMOOTH",
"45 339 OFFCURVE",
"48 343 OFFCURVE",
"55 343 CURVE SMOOTH",
"411 343 LINE SMOOTH",
"418 343 OFFCURVE",
"422 339 OFFCURVE",
"422 332 CURVE SMOOTH",
"422 325 OFFCURVE",
"418 321 OFFCURVE",
"411 321 CURVE SMOOTH"
);
},
{
closed = 1;
nodes = (
"454 557 OFFCURVE",
"450 553 OFFCURVE",
"443 553 CURVE SMOOTH",
"436 553 OFFCURVE",
"432 557 OFFCURVE",
"432 564 CURVE SMOOTH",
"432 612 OFFCURVE",
"402 638 OFFCURVE",
"362 638 CURVE SMOOTH",
"317 638 OFFCURVE",
"272 605 OFFCURVE",
"261 550 CURVE",
"253 481 OFFCURVE",
"178 115 OFFCURVE",
"134 -66 CURVE",
"127 -117 OFFCURVE",
"72 -152 OFFCURVE",
"13 -152 CURVE SMOOTH",
"-43 -152 OFFCURVE",
"-86 -121 OFFCURVE",
"-86 -57 CURVE SMOOTH",
"-86 -50 OFFCURVE",
"-82 -46 OFFCURVE",
"-75 -46 CURVE SMOOTH",
"-68 -46 OFFCURVE",
"-64 -50 OFFCURVE",
"-64 -57 CURVE SMOOTH",
"-64 -105 OFFCURVE",
"-29 -129 OFFCURVE",
"18 -129 CURVE SMOOTH",
"66 -129 OFFCURVE",
"112 -101 OFFCURVE",
"112 -62 CURVE",
"157 122 OFFCURVE",
"231 481 OFFCURVE",
"239 553 CURVE",
"251 617 OFFCURVE",
"308 660 OFFCURVE",
"365 660 CURVE SMOOTH",
"416 660 OFFCURVE",
"454 627 OFFCURVE",
"454 564 CURVE SMOOTH"
);
}
);
width = 503;
}
);
unicode = 0192;
},
{
glyphname = approxequal;
layers = (
{
layerId = "D726C5A3-D46C-4129-9A2C-DE910460F002";
name = Light;
paths = (
{
closed = 1;
nodes = (
"61 124 OFFCURVE",
"58 122 OFFCURVE",
"53 122 CURVE SMOOTH",
"44 122 OFFCURVE",
"40 127 OFFCURVE",
"42 137 CURVE",
"69 197 OFFCURVE",
"104 271 OFFCURVE",
"169 271 CURVE SMOOTH",
"198 271 OFFCURVE",
"227 250 OFFCURVE",
"255 208 CURVE SMOOTH",
"282 165 OFFCURVE",
"305 145 OFFCURVE",
"324 147 CURVE",
"377 147 OFFCURVE",
"435 215 OFFCURVE",
"435 260 CURVE SMOOTH",
"435 267 OFFCURVE",
"439 271 OFFCURVE",
"446 271 CURVE SMOOTH",
"453 271 OFFCURVE",
"457 267 OFFCURVE",
"457 260 CURVE SMOOTH",
"457 201 OFFCURVE",
"395 125 OFFCURVE",
"324 125 CURVE SMOOTH",
"293 125 OFFCURVE",
"264 146 OFFCURVE",
"238 189 CURVE SMOOTH",
"211 231 OFFCURVE",
"188 251 OFFCURVE",
"169 249 CURVE",
"125 253 OFFCURVE",
"90 185 OFFCURVE",
"63 129 CURVE"
);
},
{
closed = 1;
nodes = (
"61 279 OFFCURVE",
"58 277 OFFCURVE",
"53 277 CURVE SMOOTH",
"44 277 OFFCURVE",
"40 282 OFFCURVE",
"42 292 CURVE",
"69 352 OFFCURVE",
"104 427 OFFCURVE",
"169 427 CURVE SMOOTH",
"198 427 OFFCURVE",
"227 406 OFFCURVE",
"255 363 CURVE SMOOTH",
"282 320 OFFCURVE",
"305 300 OFFCURVE",
"324 302 CURVE",
"377 302 OFFCURVE",
"435 369 OFFCURVE",
"435 416 CURVE SMOOTH",
"435 423 OFFCURVE",
"439 426 OFFCURVE",
"446 426 CURVE SMOOTH",
"453 426 OFFCURVE",
"457 423 OFFCURVE",
"457 416 CURVE SMOOTH",
"457 357 OFFCURVE",
"395 280 OFFCURVE",
"324 280 CURVE SMOOTH",
"293 280 OFFCURVE",
"264 301 OFFCURVE",
"238 344 CURVE SMOOTH",
"211 386 OFFCURVE",
"188 406 OFFCURVE",
"169 404 CURVE",
"125 408 OFFCURVE",
"90 340 OFFCURVE",
"63 284 CURVE"
);
}
);
width = 527;
}
);
unicode = 2248;
},
{
glyphname = guillemotleft;
layers = (
{
layerId = "D726C5A3-D46C-4129-9A2C-DE910460F002";
name = Light;
paths = (
{
closed = 1;
nodes = (
"414 463 LINE SMOOTH",
"422 470 OFFCURVE",
"432 462 OFFCURVE",
"432 453 CURVE SMOOTH",
"432 450 OFFCURVE",
"431 448 OFFCURVE",
"428 446 CURVE",
"221 255 LINE",
"428 61 LINE",
"431 59 OFFCURVE",
"432 56 OFFCURVE",
"432 53 CURVE SMOOTH",
"432 45 OFFCURVE",
"422 37 OFFCURVE",
"414 44 CURVE",
"198 247 LINE",
"198 263 LINE"
);
},
{
closed = 1;
nodes = (
"253 463 LINE",
"264 472 OFFCURVE",
"279 455 OFFCURVE",
"268 446 CURVE",
"60 255 LINE",
"268 61 LINE SMOOTH",
"277 53 OFFCURVE",
"264 35 OFFCURVE",
"253 44 CURVE",
"37 247 LINE",
"37 263 LINE"
);
}
);
width = 508;
}
);
unicode = 00AB;
},
{
glyphname = guillemotright;
layers = (
{
layerId = "D726C5A3-D46C-4129-9A2C-DE910460F002";
name = Light;
paths = (
{
closed = 1;
nodes = (
"43 45 LINE SMOOTH",
"35 38 OFFCURVE",
"25 46 OFFCURVE",
"25 55 CURVE SMOOTH",
"25 58 OFFCURVE",
"26 60 OFFCURVE",
"29 62 CURVE",
"236 253 LINE",
"29 447 LINE",
"26 449 OFFCURVE",
"25 452 OFFCURVE",
"25 455 CURVE SMOOTH",
"25 463 OFFCURVE",
"36 471 OFFCURVE",
"43 464 CURVE SMOOTH",
"259 261 LINE",
"259 245 LINE"
);
},
{
closed = 1;
nodes = (
"204 45 LINE",
"193 36 OFFCURVE",
"178 53 OFFCURVE",
"189 62 CURVE",
"397 253 LINE",
"189 447 LINE SMOOTH",
"180 455 OFFCURVE",
"193 473 OFFCURVE",
"204 464 CURVE",
"420 261 LINE",
"420 245 LINE"
);
}
);
width = 461;
}
);
unicode = 00BB;
},
{
glyphname = ellipsis;
lastChange = "2014-02-11 18:39:15 -0800";
layers = (
{
layerId = "D726C5A3-D46C-4129-9A2C-DE910460F002";
name = Light;
paths = (
{
closed = 1;
nodes = (
"651 65 OFFCURVE",
"663 78 OFFCURVE",
"680 78 CURVE SMOOTH",
"694 78 OFFCURVE",
"704 63 OFFCURVE",
"704 45 CURVE SMOOTH",
"704 29 OFFCURVE",
"690 17 OFFCURVE",
"676 17 CURVE SMOOTH",
"662 17 OFFCURVE",
"651 31 OFFCURVE",
"651 49 CURVE SMOOTH"
);
},
{
closed = 1;
nodes = (
"380 65 OFFCURVE",
"392 78 OFFCURVE",
"408 78 CURVE SMOOTH",
"423 78 OFFCURVE",
"433 63 OFFCURVE",
"433 45 CURVE SMOOTH",
"433 29 OFFCURVE",
"420 17 OFFCURVE",
"404 17 CURVE SMOOTH",
"391 17 OFFCURVE",
"380 31 OFFCURVE",
"380 49 CURVE SMOOTH"
);
},
{
closed = 1;
nodes = (
"97 65 OFFCURVE",
"109 78 OFFCURVE",
"126 78 CURVE SMOOTH",
"140 78 OFFCURVE",
"150 63 OFFCURVE",
"150 45 CURVE SMOOTH",
"150 29 OFFCURVE",
"136 17 OFFCURVE",
"122 17 CURVE SMOOTH",
"108 17 OFFCURVE",
"97 31 OFFCURVE",
"97 49 CURVE SMOOTH"
);
}
);
width = 837;
}
);
unicode = 2026;
},
{
glyphname = OE;
layers = (
{
layerId = "D726C5A3-D46C-4129-9A2C-DE910460F002";
name = Light;
paths = (
{
closed = 1;
nodes = (
"480 582 LINE",
"480 362 LINE",
"752 416 LINE",
"760 416 OFFCURVE",
"764 412 OFFCURVE",
"764 403 CURVE SMOOTH",
"764 397 OFFCURVE",
"761 394 OFFCURVE",
"755 394 CURVE",
"480 340 LINE",
"480 17 LINE",
"789 71 LINE",
"798 71 OFFCURVE",
"802 67 OFFCURVE",
"802 58 CURVE SMOOTH",
"802 52 OFFCURVE",
"799 49 OFFCURVE",
"793 49 CURVE",
"471 -7 LINE",
"458 4 LINE",
"458 190 LINE",
"417 51 OFFCURVE",
"319 -11 OFFCURVE",
"208 -11 CURVE SMOOTH",
"84 -11 OFFCURVE",
"28 122 OFFCURVE",
"28 271 CURVE SMOOTH",
"28 443 OFFCURVE",
"172 640 OFFCURVE",
"308 640 CURVE SMOOTH",
"328 640 OFFCURVE",
"396 635 OFFCURVE",
"439 583 CURVE",
"434 588 OFFCURVE",
"437 599 OFFCURVE",
"445 599 CURVE",
"458 601 LINE",
"458 619 LINE SMOOTH",
"458 626 OFFCURVE",
"462 629 OFFCURVE",
"469 629 CURVE SMOOTH",
"476 629 OFFCURVE",
"480 626 OFFCURVE",
"480 619 CURVE SMOOTH",
"480 605 LINE",
"789 651 LINE",
"798 651 OFFCURVE",
"802 647 OFFCURVE",
"802 638 CURVE SMOOTH",
"802 632 OFFCURVE",
"799 629 OFFCURVE",
"793 629 CURVE"
);
},
{
closed = 1;
nodes = (
"449 577 LINE",
"446 577 OFFCURVE",
"444 577 OFFCURVE",
"443 578 CURVE SMOOTH",
"442 579 OFFCURVE",
"441 579 OFFCURVE",
"440 580 CURVE",
"447 570 OFFCURVE",
"452 559 OFFCURVE",
"457 547 CURVE",
"458 578 LINE"
);
},
{
closed = 1;
nodes = (
"323 617 OFFCURVE",
"314 618 OFFCURVE",
"306 618 CURVE SMOOTH",
"189 618 OFFCURVE",
"50 430 OFFCURVE",
"50 271 CURVE SMOOTH",
"50 132 OFFCURVE",
"104 11 OFFCURVE",
"208 11 CURVE SMOOTH",
"348 11 OFFCURVE",
"457 109 OFFCURVE",
"457 356 CURVE SMOOTH",
"457 551 OFFCURVE",
"443 587 OFFCURVE",
"332 615 CURVE SMOOTH"
);
},
{
closed = 1;
nodes = (
"439 583 LINE",
"440 580 LINE"
);
}
);
width = 852;
}
);
unicode = 0152;
},
{
glyphname = oe;
layers = (
{
layerId = "D726C5A3-D46C-4129-9A2C-DE910460F002";
name = Light;
paths = (
{
closed = 1;
nodes = (
"395 390 OFFCURVE",
"407 363 OFFCURVE",
"407 330 CURVE",
"451 414 OFFCURVE",
"510 468 OFFCURVE",
"569 468 CURVE SMOOTH",
"616 468 OFFCURVE",
"657 433 OFFCURVE",
"690 353 CURVE",
"683 339 LINE",
"400 236 LINE",
"397 223 OFFCURVE",
"390 207 OFFCURVE",
"386 199 CURVE",
"383 177 OFFCURVE",
"381 157 OFFCURVE",
"381 140 CURVE SMOOTH",
"381 117 OFFCURVE",
"383 97 OFFCURVE",
"388 78 CURVE",
"395 37 OFFCURVE",
"417 17 OFFCURVE",
"450 17 CURVE SMOOTH",
"511 17 OFFCURVE",
"611 90 OFFCURVE",
"646 127 CURVE SMOOTH",
"663 146 OFFCURVE",
"674 155 OFFCURVE",
"677 155 CURVE SMOOTH",
"685 155 OFFCURVE",
"692 144 OFFCURVE",
"685 137 CURVE SMOOTH",
"589 40 OFFCURVE",
"507 -5 OFFCURVE",
"454 -5 CURVE SMOOTH",
"413 -5 OFFCURVE",
"381 22 OFFCURVE",
"370 60 CURVE SMOOTH",
"358 98 OFFCURVE",
"359 126 OFFCURVE",
"359 138 CURVE",
"312 54 OFFCURVE",
"243 -4 OFFCURVE",
"174 -4 CURVE SMOOTH",
"143 -4 OFFCURVE",
"124 2 OFFCURVE",
"96 21 CURVE",
"55 54 OFFCURVE",
"36 100 OFFCURVE",
"36 156 CURVE SMOOTH",
"36 292 OFFCURVE",
"153 444 OFFCURVE",
"274 444 CURVE SMOOTH",
"307 444 OFFCURVE",
"341 433 OFFCURVE",
"372 410 CURVE"
);
},
{
closed = 1;
nodes = (
"129 23 OFFCURVE",
"151 14 OFFCURVE",
"174 14 CURVE SMOOTH",
"246 14 OFFCURVE",
"322 100 OFFCURVE",
"365 205 CURVE",
"368 222 OFFCURVE",
"373 246 OFFCURVE",
"386 282 CURVE",
"388 295 OFFCURVE",
"389 308 OFFCURVE",
"389 320 CURVE SMOOTH",
"389 353 OFFCURVE",
"380 378 OFFCURVE",
"359 393 CURVE",
"334 414 OFFCURVE",
"307 424 OFFCURVE",
"276 424 CURVE SMOOTH",
"168 424 OFFCURVE",
"57 276 OFFCURVE",
"57 151 CURVE SMOOTH",
"57 103 OFFCURVE",
"73 65 OFFCURVE",
"109 40 CURVE"
);
},
{
closed = 1;
nodes = (
"404 260 LINE",
"667 356 LINE",
"644 417 OFFCURVE",
"611 446 OFFCURVE",
"574 446 CURVE SMOOTH",
"513 446 OFFCURVE",
"440 367 OFFCURVE",
"404 266 CURVE"
);
}
);
width = 737;
}
);
unicode = 0153;
},
{
glyphname = endash;
layers = (
{
layerId = "D726C5A3-D46C-4129-9A2C-DE910460F002";
name = Light;
paths = (
{
closed = 1;
nodes = (
"7 244 LINE SMOOTH",
"0 244 OFFCURVE",
"-3 248 OFFCURVE",
"-3 255 CURVE SMOOTH",
"-3 262 OFFCURVE",
"0 266 OFFCURVE",
"7 266 CURVE SMOOTH",
"458 266 LINE SMOOTH",
"465 266 OFFCURVE",
"469 262 OFFCURVE",
"469 255 CURVE SMOOTH",
"469 248 OFFCURVE",
"465 244 OFFCURVE",
"458 244 CURVE SMOOTH"
);
}
);
width = 462;
}
);
unicode = 2013;
},
{
glyphname = emdash;
layers = (
{
layerId = "D726C5A3-D46C-4129-9A2C-DE910460F002";
name = Light;
paths = (
{
closed = 1;
nodes = (
"11 244 LINE SMOOTH",
"4 244 OFFCURVE",
"0 248 OFFCURVE",
"0 255 CURVE SMOOTH",
"0 262 OFFCURVE",
"4 266 OFFCURVE",
"11 266 CURVE SMOOTH",
"923 266 LINE SMOOTH",
"930 266 OFFCURVE",
"934 262 OFFCURVE",
"934 255 CURVE SMOOTH",
"934 248 OFFCURVE",
"930 244 OFFCURVE",
"923 244 CURVE SMOOTH"
);
}
);
width = 923;
}
);
unicode = 2014;
},
{
glyphname = quotedblleft;
lastChange = "2014-02-11 18:40:09 -0800";
layers = (
{
layerId = "D726C5A3-D46C-4129-9A2C-DE910460F002";
name = Light;
paths = (
{
closed = 1;
nodes = (
"150 580 OFFCURVE",
"136 567 OFFCURVE",
"118 567 CURVE SMOOTH",
"87 567 OFFCURVE",
"83 586 OFFCURVE",
"79 616 CURVE",
"79 644 OFFCURVE",
"83 662 OFFCURVE",
"102 681 CURVE SMOOTH",
"120 700 OFFCURVE",
"131 705 OFFCURVE",
"152 705 CURVE SMOOTH",
"162 705 OFFCURVE",
"167 701 OFFCURVE",
"167 692 CURVE SMOOTH",
"167 685 OFFCURVE",
"163 681 OFFCURVE",
"155 679 CURVE",
"116 664 OFFCURVE",
"109 663 OFFCURVE",
"109 632 CURVE",
"112 634 OFFCURVE",
"115 634 OFFCURVE",
"118 635 CURVE",
"121 635 OFFCURVE",
"124 635 OFFCURVE",
"126 636 CURVE",
"141 636 OFFCURVE",
"150 622 OFFCURVE",
"150 601 CURVE SMOOTH"
);
},
{
closed = 1;
nodes = (
"246 579 OFFCURVE",
"233 567 OFFCURVE",
"214 567 CURVE SMOOTH",
"181 567 OFFCURVE",
"175 592 OFFCURVE",
"175 616 CURVE SMOOTH",
"175 644 OFFCURVE",
"179 662 OFFCURVE",
"197 681 CURVE SMOOTH",
"216 700 OFFCURVE",
"227 705 OFFCURVE",
"247 705 CURVE SMOOTH",
"257 705 OFFCURVE",
"264 699 OFFCURVE",
"264 693 CURVE SMOOTH",
"264 686 OFFCURVE",
"259 681 OFFCURVE",
"249 679 CURVE",
"211 664 OFFCURVE",
"204 663 OFFCURVE",
"204 632 CURVE",
"207 634 OFFCURVE",
"210 634 OFFCURVE",
"213 635 CURVE",
"216 635 OFFCURVE",
"219 635 OFFCURVE",
"221 636 CURVE",
"238 636 OFFCURVE",
"248 623 OFFCURVE",
"246 603 CURVE"
);
}
);
width = 323;
}
);
unicode = 201C;
},
{
glyphname = quotedblright;
lastChange = "2014-02-11 18:40:19 -0800";
layers = (
{
layerId = "D726C5A3-D46C-4129-9A2C-DE910460F002";
name = Light;
paths = (
{
closed = 1;
nodes = (
"175 694 OFFCURVE",
"186 706 OFFCURVE",
"205 706 CURVE SMOOTH",
"230 706 OFFCURVE",
"242 689 OFFCURVE",
"242 658 CURVE SMOOTH",
"242 632 OFFCURVE",
"239 612 OFFCURVE",
"221 593 CURVE SMOOTH",
"202 574 OFFCURVE",
"189 569 OFFCURVE",
"171 569 CURVE SMOOTH",
"160 569 OFFCURVE",
"154 573 OFFCURVE",
"154 581 CURVE SMOOTH",
"154 588 OFFCURVE",
"159 592 OFFCURVE",
"169 594 CURVE",
"212 612 OFFCURVE",
"214 615 OFFCURVE",
"214 642 CURVE",
"208 639 OFFCURVE",
"202 637 OFFCURVE",
"197 637 CURVE SMOOTH",
"181 637 OFFCURVE",
"169 652 OFFCURVE",
"172 670 CURVE SMOOTH"
);
},
{
closed = 1;
nodes = (
"76 694 OFFCURVE",
"86 706 OFFCURVE",
"105 706 CURVE SMOOTH",
"129 706 OFFCURVE",
"143 691 OFFCURVE",
"143 658 CURVE",
"144 656 OFFCURVE",
"144 653 OFFCURVE",
"144 648 CURVE SMOOTH",
"144 629 OFFCURVE",
"138 609 OFFCURVE",
"121 592 CURVE SMOOTH",
"103 574 OFFCURVE",
"90 569 OFFCURVE",
"72 569 CURVE SMOOTH",
"61 569 OFFCURVE",
"56 573 OFFCURVE",
"56 581 CURVE SMOOTH",
"56 587 OFFCURVE",
"60 592 OFFCURVE",
"69 594 CURVE",
"105 608 OFFCURVE",
"114 609 OFFCURVE",
"114 642 CURVE",
"108 639 OFFCURVE",
"103 637 OFFCURVE",
"98 637 CURVE SMOOTH",
"80 637 OFFCURVE",
"71 652 OFFCURVE",
"73 670 CURVE SMOOTH"
);
}
);
width = 323;
}
);
unicode = 201D;
},
{
glyphname = quoteleft;
lastChange = "2014-02-11 18:40:26 -0800";
layers = (
{
layerId = "D726C5A3-D46C-4129-9A2C-DE910460F002";
name = Light;
paths = (
{
closed = 1;
nodes = (
"135 581 OFFCURVE",
"123 569 OFFCURVE",
"104 569 CURVE SMOOTH",
"79 569 OFFCURVE",
"65 586 OFFCURVE",
"65 618 CURVE SMOOTH",
"65 648 OFFCURVE",
"68 664 OFFCURVE",
"87 683 CURVE SMOOTH",
"105 702 OFFCURVE",
"118 706 OFFCURVE",
"137 706 CURVE SMOOTH",
"148 706 OFFCURVE",
"154 702 OFFCURVE",
"154 694 CURVE SMOOTH",
"154 688 OFFCURVE",
"147 682 OFFCURVE",
"133 678 CURVE SMOOTH",
"106 669 OFFCURVE",
"94 665 OFFCURVE",
"94 634 CURVE",
"97 636 OFFCURVE",
"105 638 OFFCURVE",
"111 638 CURVE SMOOTH",
"128 638 OFFCURVE",
"138 624 OFFCURVE",
"135 605 CURVE"
);
}
);
width = 189;
}
);
unicode = 2018;
},
{
glyphname = quoteright;
lastChange = "2014-02-11 18:40:32 -0800";
layers = (
{
layerId = "D726C5A3-D46C-4129-9A2C-DE910460F002";
name = Light;
paths = (
{
closed = 1;
nodes = (
"62 694 OFFCURVE",
"72 706 OFFCURVE",
"90 706 CURVE SMOOTH",
"115 706 OFFCURVE",
"129 691 OFFCURVE",
"129 658 CURVE",
"130 656 OFFCURVE",
"130 653 OFFCURVE",
"130 648 CURVE SMOOTH",
"130 629 OFFCURVE",
"124 609 OFFCURVE",
"107 592 CURVE SMOOTH",
"89 574 OFFCURVE",
"77 569 OFFCURVE",
"58 569 CURVE SMOOTH",
"47 569 OFFCURVE",
"41 573 OFFCURVE",
"41 581 CURVE SMOOTH",
"41 587 OFFCURVE",
"46 592 OFFCURVE",
"55 594 CURVE",
"91 608 OFFCURVE",
"100 609 OFFCURVE",
"100 642 CURVE",
"94 639 OFFCURVE",
"89 637 OFFCURVE",
"84 637 CURVE SMOOTH",
"66 637 OFFCURVE",
"56 652 OFFCURVE",
"59 670 CURVE SMOOTH"
);
}
);
width = 189;
}
);
unicode = 2019;
},
{
glyphname = divide;
layers = (
{
layerId = "D726C5A3-D46C-4129-9A2C-DE910460F002";
name = Light;
paths = (
{
closed = 1;
nodes = (
"47 244 LINE SMOOTH",
"40 244 OFFCURVE",
"36 248 OFFCURVE",
"36 255 CURVE SMOOTH",
"36 262 OFFCURVE",
"40 266 OFFCURVE",
"47 266 CURVE SMOOTH",
"449 266 LINE SMOOTH",
"456 266 OFFCURVE",
"460 262 OFFCURVE",
"460 255 CURVE SMOOTH",
"460 248 OFFCURVE",
"456 244 OFFCURVE",
"449 244 CURVE SMOOTH"
);
},
{
closed = 1;
nodes = (
"208 141 OFFCURVE",
"225 159 OFFCURVE",
"246 159 CURVE SMOOTH",
"266 159 OFFCURVE",
"282 138 OFFCURVE",
"282 115 CURVE SMOOTH",
"282 92 OFFCURVE",
"263 76 OFFCURVE",
"243 76 CURVE SMOOTH",
"223 76 OFFCURVE",
"208 94 OFFCURVE",
"208 118 CURVE SMOOTH"
);
},
{
closed = 1;
nodes = (
"208 427 OFFCURVE",
"225 443 OFFCURVE",
"246 443 CURVE SMOOTH",
"265 443 OFFCURVE",
"282 421 OFFCURVE",
"282 400 CURVE SMOOTH",
"282 377 OFFCURVE",
"264 360 OFFCURVE",
"243 360 CURVE SMOOTH",
"223 360 OFFCURVE",
"208 380 OFFCURVE",
"208 403 CURVE SMOOTH"
);
}
);
width = 488;
}
);
unicode = 00F7;
},
{
glyphname = lozenge;
layers = (
{
layerId = "D726C5A3-D46C-4129-9A2C-DE910460F002";
name = Light;
paths = (
{
closed = 1;
nodes = (
"430 338 LINE",
"430 327 LINE",
"240 0 LINE",
"222 0 LINE",
"32 327 LINE",
"32 338 LINE",
"222 654 LINE",
"240 654 LINE"
);
},
{
closed = 1;
nodes = (
"408 332 LINE",
"231 627 LINE",
"54 332 LINE",
"231 27 LINE"
);
}
);
width = 470;
}
);
unicode = 25CA;
},
{
glyphname = fraction;
layers = (
{
layerId = "D726C5A3-D46C-4129-9A2C-DE910460F002";
name = Light;
paths = (
{
closed = 1;
nodes = (
"254 653 LINE SMOOTH",
"256 657 OFFCURVE",
"259 659 OFFCURVE",
"264 659 CURVE SMOOTH",
"269 659 OFFCURVE",
"279 655 OFFCURVE",
"274 644 CURVE",
"-47 4 LINE SMOOTH",
"-49 0 OFFCURVE",
"-52 -2 OFFCURVE",
"-57 -2 CURVE SMOOTH",
"-64 -2 OFFCURVE",
"-74 1 OFFCURVE",
"-67 13 CURVE"
);
}
);
width = 239;
}
);
unicode = 2215;
},
{
glyphname = currency;
layers = (
{
layerId = "D726C5A3-D46C-4129-9A2C-DE910460F002";
name = Light;
paths = (
{
closed = 1;
nodes = (
"120 376 LINE",
"155 406 OFFCURVE",
"196 421 OFFCURVE",
"241 421 CURVE SMOOTH",
"288 421 OFFCURVE",
"332 404 OFFCURVE",
"365 372 CURVE",
"425 429 LINE SMOOTH",
"432 436 OFFCURVE",
"443 428 OFFCURVE",
"443 420 CURVE SMOOTH",
"443 417 OFFCURVE",
"442 415 OFFCURVE",
"440 413 CURVE SMOOTH",
"380 355 LINE",
"413 318 OFFCURVE",
"432 274 OFFCURVE",
"432 223 CURVE SMOOTH",
"432 162 OFFCURVE",
"421 113 OFFCURVE",
"390 68 CURVE",
"443 9 LINE",
"452 -2 OFFCURVE",
"436 -17 OFFCURVE",
"427 -6 CURVE",
"376 51 LINE",
"341 12 OFFCURVE",
"293 -11 OFFCURVE",
"241 -11 CURVE SMOOTH",
"190 -11 OFFCURVE",
"146 7 OFFCURVE",
"111 44 CURVE",
"61 -7 LINE",
"59 -10 OFFCURVE",
"56 -11 OFFCURVE",
"53 -11 CURVE SMOOTH",
"45 -11 OFFCURVE",
"37 -1 OFFCURVE",
"44 7 CURVE",
"96 62 LINE",
"63 103 OFFCURVE",
"47 161 OFFCURVE",
"47 220 CURVE SMOOTH",
"47 273 OFFCURVE",
"67 320 OFFCURVE",
"104 360 CURVE",
"48 413 LINE SMOOTH",
"39 422 OFFCURVE",
"52 440 OFFCURVE",
"63 429 CURVE"
);
},
{
closed = 1;
nodes = (
"145 399 OFFCURVE",
"69 318 OFFCURVE",
"69 218 CURVE SMOOTH",
"69 107 OFFCURVE",
"141 11 OFFCURVE",
"241 11 CURVE SMOOTH",
"340 11 OFFCURVE",
"410 109 OFFCURVE",
"410 221 CURVE SMOOTH",
"410 318 OFFCURVE",
"334 399 OFFCURVE",
"241 399 CURVE SMOOTH"
);
}
);
width = 494;
}
);
unicode = 00A4;
},
{
glyphname = guilsinglleft;
layers = (
{
layerId = "D726C5A3-D46C-4129-9A2C-DE910460F002";
name = Light;
paths = (
{
closed = 1;
nodes = (
"253 465 LINE SMOOTH",
"260 472 OFFCURVE",
"271 464 OFFCURVE",
"271 456 CURVE SMOOTH",
"271 453 OFFCURVE",
"270 451 OFFCURVE",
"268 449 CURVE SMOOTH",
"60 252 LINE",
"271 58 LINE",
"280 49 OFFCURVE",
"267 31 OFFCURVE",
"256 42 CURVE",
"37 244 LINE",
"37 260 LINE"
);
}
);
width = 345;
}
);
unicode = 2039;
},
{
glyphname = guilsinglright;
layers = (
{
layerId = "D726C5A3-D46C-4129-9A2C-DE910460F002";
name = Light;
paths = (
{
closed = 1;
nodes = (
"48 41 LINE SMOOTH",
"41 34 OFFCURVE",
"30 42 OFFCURVE",
"30 50 CURVE SMOOTH",
"30 53 OFFCURVE",
"31 55 OFFCURVE",
"33 57 CURVE SMOOTH",
"241 254 LINE",
"30 448 LINE",
"21 457 OFFCURVE",
"34 475 OFFCURVE",
"45 464 CURVE",
"264 262 LINE",
"264 246 LINE"
);
}
);
width = 298;
}
);
unicode = 203A;
},
{
glyphname = fi;
layers = (
{
layerId = "D726C5A3-D46C-4129-9A2C-DE910460F002";
name = Light;
paths = (
{
closed = 1;
nodes = (
"392 440 LINE",
"182 387 LINE",
"182 0 LINE SMOOTH",
"182 -7 OFFCURVE",
"178 -11 OFFCURVE",
"171 -11 CURVE SMOOTH",
"164 -11 OFFCURVE",
"160 -7 OFFCURVE",
"160 0 CURVE SMOOTH",
"160 381 LINE",
"52 355 LINE",
"43 355 OFFCURVE",
"38 360 OFFCURVE",
"38 370 CURVE SMOOTH",
"38 375 OFFCURVE",
"41 377 OFFCURVE",
"46 377 CURVE",
"160 405 LINE",
"160 568 LINE SMOOTH",
"160 631 OFFCURVE",
"209 669 OFFCURVE",
"270 669 CURVE SMOOTH",
"346 669 OFFCURVE",
"414 613 OFFCURVE",
"414 513 CURVE SMOOTH",
"414 506 OFFCURVE",
"410 502 OFFCURVE",
"402 502 CURVE SMOOTH",
"395 502 OFFCURVE",
"392 505 OFFCURVE",
"392 512 CURVE SMOOTH",
"392 600 OFFCURVE",
"337 646 OFFCURVE",
"272 646 CURVE SMOOTH",
"221 646 OFFCURVE",
"182 617 OFFCURVE",
"182 568 CURVE SMOOTH",
"182 411 LINE",
"400 465 LINE",
"414 454 LINE",
"415 0 LINE SMOOTH",
"415 -7 OFFCURVE",
"411 -11 OFFCURVE",
"404 -11 CURVE SMOOTH",
"396 -11 OFFCURVE",
"392 -7 OFFCURVE",
"392 0 CURVE SMOOTH"
);
}
);
width = 464;
}
);
unicode = F001;
},
{
glyphname = fl;
layers = (
{
layerId = "D726C5A3-D46C-4129-9A2C-DE910460F002";
name = Light;
paths = (
{
closed = 1;
nodes = (
"161 382 LINE",
"53 355 LINE",
"44 355 OFFCURVE",
"39 360 OFFCURVE",
"39 370 CURVE SMOOTH",
"39 375 OFFCURVE",
"42 377 OFFCURVE",
"47 377 CURVE",
"161 405 LINE",
"161 568 LINE SMOOTH",
"161 631 OFFCURVE",
"209 669 OFFCURVE",
"266 669 CURVE SMOOTH",
"318 669 OFFCURVE",
"366 642 OFFCURVE",
"394 589 CURVE",
"394 609 LINE SMOOTH",
"394 616 OFFCURVE",
"398 620 OFFCURVE",
"405 620 CURVE SMOOTH",
"412 620 OFFCURVE",
"416 616 OFFCURVE",
"416 609 CURVE SMOOTH",
"416 0 LINE SMOOTH",
"416 -7 OFFCURVE",
"412 -11 OFFCURVE",
"405 -11 CURVE SMOOTH",
"397 -11 OFFCURVE",
"393 -7 OFFCURVE",
"393 0 CURVE SMOOTH",
"394 442 LINE",
"183 388 LINE",
"183 0 LINE SMOOTH",
"183 -7 OFFCURVE",
"179 -11 OFFCURVE",
"172 -11 CURVE SMOOTH",
"165 -11 OFFCURVE",
"161 -7 OFFCURVE",
"161 0 CURVE SMOOTH"
);
},
{
closed = 1;
nodes = (
"183 411 LINE",
"394 465 LINE",
"394 505 LINE",
"392 512 LINE",
"392 599 OFFCURVE",
"337 646 OFFCURVE",
"273 646 CURVE SMOOTH",
"222 646 OFFCURVE",
"183 617 OFFCURVE",
"183 568 CURVE SMOOTH"
);
}
);
width = 464;
}
);
unicode = F002;
},
{
glyphname = daggerdbl;
layers = (
{
layerId = "D726C5A3-D46C-4129-9A2C-DE910460F002";
name = Light;
paths = (
{
closed = 1;
nodes = (
"224 435 LINE",
"224 227 LINE",
"377 227 LINE SMOOTH",
"384 227 OFFCURVE",
"388 223 OFFCURVE",
"388 216 CURVE SMOOTH",
"388 209 OFFCURVE",
"384 205 OFFCURVE",
"377 205 CURVE SMOOTH",
"224 205 LINE",
"224 0 LINE SMOOTH",
"224 -7 OFFCURVE",
"220 -11 OFFCURVE",
"213 -11 CURVE SMOOTH",
"206 -11 OFFCURVE",
"202 -7 OFFCURVE",
"202 0 CURVE SMOOTH",
"202 205 LINE",
"42 205 LINE SMOOTH",
"35 205 OFFCURVE",
"31 209 OFFCURVE",
"31 216 CURVE SMOOTH",
"31 223 OFFCURVE",
"35 227 OFFCURVE",
"42 227 CURVE SMOOTH",
"202 227 LINE",
"202 435 LINE",
"42 435 LINE SMOOTH",
"35 435 OFFCURVE",
"31 439 OFFCURVE",
"31 446 CURVE SMOOTH",
"31 453 OFFCURVE",
"35 457 OFFCURVE",
"42 457 CURVE SMOOTH",
"202 457 LINE",
"202 644 LINE SMOOTH",
"202 651 OFFCURVE",
"206 655 OFFCURVE",
"213 655 CURVE SMOOTH",
"220 655 OFFCURVE",
"224 651 OFFCURVE",
"224 644 CURVE SMOOTH",
"224 457 LINE",
"377 457 LINE SMOOTH",
"384 457 OFFCURVE",
"388 453 OFFCURVE",
"388 446 CURVE SMOOTH",
"388 439 OFFCURVE",
"384 435 OFFCURVE",
"377 435 CURVE SMOOTH"
);
}
);
width = 422;
}
);
unicode = 2021;
},
{
glyphname = periodcentered;
lastChange = "2014-02-11 18:39:28 -0800";
layers = (
{
layerId = "D726C5A3-D46C-4129-9A2C-DE910460F002";
name = Light;
paths = (
{
closed = 1;
nodes = (
"49 275 OFFCURVE",
"61 288 OFFCURVE",
"78 288 CURVE SMOOTH",
"91 288 OFFCURVE",
"102 272 OFFCURVE",
"102 255 CURVE SMOOTH",
"102 239 OFFCURVE",
"88 227 OFFCURVE",
"74 227 CURVE SMOOTH",
"60 227 OFFCURVE",
"49 241 OFFCURVE",
"49 259 CURVE SMOOTH"
);
}
);
width = 145;
}
);
unicode = 00B7;
},
{
glyphname = perthousand;
layers = (
{
layerId = "D726C5A3-D46C-4129-9A2C-DE910460F002";
name = Light;
paths = (
{
closed = 1;
nodes = (
"371 652 LINE",
"373 657 OFFCURVE",
"376 659 OFFCURVE",
"380 659 CURVE SMOOTH",
"387 659 OFFCURVE",
"393 653 OFFCURVE",
"392 645 CURVE",
"187 -6 LINE",
"185 -11 OFFCURVE",
"182 -14 OFFCURVE",
"177 -14 CURVE SMOOTH",
"172 -14 OFFCURVE",
"165 -7 OFFCURVE",
"166 1 CURVE"
);
},
{
closed = 1;
nodes = (
"781 19 OFFCURVE",
"738 -16 OFFCURVE",
"687 -16 CURVE SMOOTH",
"662 -16 OFFCURVE",
"625 -1 OFFCURVE",
"607 33 CURVE SMOOTH",
"598 50 OFFCURVE",
"593 69 OFFCURVE",
"593 90 CURVE SMOOTH",
"593 141 OFFCURVE",
"619 191 OFFCURVE",
"660 223 CURVE SMOOTH",
"680 238 OFFCURVE",
"701 246 OFFCURVE",
"724 246 CURVE SMOOTH",
"749 246 OFFCURVE",
"785 235 OFFCURVE",
"805 199 CURVE",
"814 181 OFFCURVE",
"819 161 OFFCURVE",
"819 139 CURVE SMOOTH",
"819 115 OFFCURVE",
"813 93 OFFCURVE",
"804 70 CURVE"
);
},
{
closed = 1;
nodes = (
"224 442 OFFCURVE",
"176 405 OFFCURVE",
"128 405 CURVE SMOOTH",
"101 405 OFFCURVE",
"66 419 OFFCURVE",
"48 454 CURVE SMOOTH",
"39 471 OFFCURVE",
"34 490 OFFCURVE",
"34 511 CURVE SMOOTH",
"34 535 OFFCURVE",
"40 560 OFFCURVE",
"58 595 CURVE SMOOTH",
"76 630 OFFCURVE",
"118 667 OFFCURVE",
"165 667 CURVE SMOOTH",
"189 667 OFFCURVE",
"226 656 OFFCURVE",
"246 620 CURVE",
"255 602 OFFCURVE",
"260 582 OFFCURVE",
"260 559 CURVE SMOOTH",
"260 536 OFFCURVE",
"254 512 OFFCURVE",
"245 491 CURVE SMOOTH"
);
},
{
closed = 1;
nodes = (
"510 19 OFFCURVE",
"467 -16 OFFCURVE",
"416 -16 CURVE SMOOTH",
"391 -16 OFFCURVE",
"354 -2 OFFCURVE",
"336 33 CURVE SMOOTH",
"327 50 OFFCURVE",
"322 69 OFFCURVE",
"322 90 CURVE SMOOTH",
"322 114 OFFCURVE",
"328 139 OFFCURVE",
"346 174 CURVE SMOOTH",
"364 209 OFFCURVE",
"406 246 OFFCURVE",
"453 246 CURVE SMOOTH",
"477 246 OFFCURVE",
"514 235 OFFCURVE",
"534 199 CURVE",
"543 181 OFFCURVE",
"548 161 OFFCURVE",
"548 138 CURVE SMOOTH",
"548 115 OFFCURVE",
"542 91 OFFCURVE",
"533 70 CURVE SMOOTH"
);
},
{
closed = 1;
nodes = (
"793 97 OFFCURVE",
"797 117 OFFCURVE",
"797 138 CURVE SMOOTH",
"797 179 OFFCURVE",
"789 204 OFFCURVE",
"773 211 CURVE SMOOTH",
"756 218 OFFCURVE",
"745 222 OFFCURVE",
"740 223 CURVE SMOOTH",
"735 224 OFFCURVE",
"729 224 OFFCURVE",
"724 224 CURVE SMOOTH",
"689 224 OFFCURVE",
"652 195 OFFCURVE",
"632 155 CURVE",
"621 135 OFFCURVE",
"616 113 OFFCURVE",
"616 89 CURVE SMOOTH",
"616 13 OFFCURVE",
"665 6 OFFCURVE",
"688 6 CURVE SMOOTH",
"725 6 OFFCURVE",
"765 38 OFFCURVE",
"784 79 CURVE SMOOTH"
);
},
{
closed = 1;
nodes = (
"521 97 OFFCURVE",
"525 117 OFFCURVE",
"525 138 CURVE SMOOTH",
"525 179 OFFCURVE",
"516 204 OFFCURVE",
"499 211 CURVE SMOOTH",
"481 218 OFFCURVE",
"469 222 OFFCURVE",
"463 223 CURVE SMOOTH",
"457 224 OFFCURVE",
"454 224 OFFCURVE",
"453 224 CURVE SMOOTH",
"417 224 OFFCURVE",
"381 195 OFFCURVE",
"360 155 CURVE SMOOTH",
"349 135 OFFCURVE",
"344 113 OFFCURVE",
"344 89 CURVE SMOOTH",
"344 13 OFFCURVE",
"393 6 OFFCURVE",
"416 6 CURVE SMOOTH",
"453 6 OFFCURVE",
"493 38 OFFCURVE",
"512 79 CURVE SMOOTH"
);
},
{
closed = 1;
nodes = (
"233 518 OFFCURVE",
"237 538 OFFCURVE",
"237 559 CURVE SMOOTH",
"237 600 OFFCURVE",
"228 625 OFFCURVE",
"211 632 CURVE SMOOTH",
"193 639 OFFCURVE",
"181 643 OFFCURVE",
"175 644 CURVE SMOOTH",
"169 645 OFFCURVE",
"166 645 OFFCURVE",
"165 645 CURVE SMOOTH",
"129 645 OFFCURVE",
"93 616 OFFCURVE",
"72 576 CURVE SMOOTH",
"61 556 OFFCURVE",
"56 534 OFFCURVE",
"56 510 CURVE SMOOTH",
"56 434 OFFCURVE",
"105 427 OFFCURVE",
"128 427 CURVE SMOOTH",
"165 427 OFFCURVE",
"205 459 OFFCURVE",
"224 500 CURVE SMOOTH"
);
}
);
width = 866;
}
);
unicode = 2030;
},
{
glyphname = apple;
layers = (
{
layerId = "D726C5A3-D46C-4129-9A2C-DE910460F002";
name = Light;
paths = (
{
closed = 1;
nodes = (
"469 648 OFFCURVE",
"464 630 OFFCURVE",
"459 607 CURVE SMOOTH",
"454 584 OFFCURVE",
"454 586 OFFCURVE",
"441 559 CURVE SMOOTH",
"428 531 OFFCURVE",
"414 513 OFFCURVE",
"384 496 CURVE SMOOTH",
"354 479 OFFCURVE",
"341 473 OFFCURVE",
"313 473 CURVE",
"311 484 OFFCURVE",
"310 494 OFFCURVE",
"310 503 CURVE SMOOTH",
"310 507 OFFCURVE",
"310 511 OFFCURVE",
"310 515 CURVE",
"311 521 OFFCURVE",
"313 529 OFFCURVE",
"314 539 CURVE",
"317 558 OFFCURVE",
"328 578 OFFCURVE",
"348 602 CURVE SMOOTH",
"368 626 OFFCURVE",
"382 636 OFFCURVE",
"407 649 CURVE SMOOTH",
"432 662 OFFCURVE",
"447 667 OFFCURVE",
"472 671 CURVE"
);
},
{
closed = 1;
nodes = (
"462 480 OFFCURVE",
"474 474 OFFCURVE",
"503 456 CURVE SMOOTH",
"517 447 OFFCURVE",
"529 434 OFFCURVE",
"538 419 CURVE",
"527 412 OFFCURVE",
"520 406 OFFCURVE",
"504 390 CURVE SMOOTH",
"487 374 OFFCURVE",
"468 349 OFFCURVE",
"468 318 CURVE",
"467 310 OFFCURVE",
"467 304 OFFCURVE",
"467 301 CURVE SMOOTH",
"467 269 OFFCURVE",
"477 246 OFFCURVE",
"502 214 CURVE SMOOTH",
"515 197 OFFCURVE",
"530 184 OFFCURVE",
"548 173 CURVE",
"545 155 OFFCURVE",
"540 139 OFFCURVE",
"534 125 CURVE",
"527 113 OFFCURVE",
"522 103 OFFCURVE",
"518 94 CURVE SMOOTH",
"510 77 OFFCURVE",
"504 64 OFFCURVE",
"482 41 CURVE SMOOTH",
"460 18 OFFCURVE",
"431 0 OFFCURVE",
"395 0 CURVE SMOOTH",
"382 0 OFFCURVE",
"366 2 OFFCURVE",
"361 4 CURVE",
"358 5 OFFCURVE",
"350 9 OFFCURVE",
"337 16 CURVE SMOOTH",
"324 23 OFFCURVE",
"313 26 OFFCURVE",
"304 27 CURVE",
"275 27 LINE SMOOTH",
"266 27 OFFCURVE",
"256 24 OFFCURVE",
"244 19 CURVE",
"220 7 OFFCURVE",
"206 5 OFFCURVE",
"193 5 CURVE SMOOTH",
"178 5 OFFCURVE",
"146 12 OFFCURVE",
"131 27 CURVE SMOOTH",
"116 42 OFFCURVE",
"91 79 OFFCURVE",
"81 102 CURVE SMOOTH",
"71 125 OFFCURVE",
"31 227 OFFCURVE",
"31 276 CURVE SMOOTH",
"31 305 OFFCURVE",
"34 343 OFFCURVE",
"44 367 CURVE SMOOTH",
"54 390 OFFCURVE",
"70 414 OFFCURVE",
"79 429 CURVE SMOOTH",
"88 444 OFFCURVE",
"117 464 OFFCURVE",
"146 480 CURVE",
"160 487 OFFCURVE",
"176 491 OFFCURVE",
"194 491 CURVE SMOOTH",
"203 491 OFFCURVE",
"214 489 OFFCURVE",
"226 485 CURVE SMOOTH",
"237 481 OFFCURVE",
"246 478 OFFCURVE",
"253 476 CURVE SMOOTH",
"260 474 OFFCURVE",
"269 469 OFFCURVE",
"281 461 CURVE",
"292 453 OFFCURVE",
"302 449 OFFCURVE",
"311 449 CURVE SMOOTH",
"343 449 OFFCURVE",
"372 463 OFFCURVE",
"404 476 CURVE",
"413 479 OFFCURVE",
"424 480 OFFCURVE",
"435 480 CURVE SMOOTH"
);
}
);
width = 573;
}
);
unicode = F000;
},
{
glyphname = dotlessi;
layers = (
{
layerId = "D726C5A3-D46C-4129-9A2C-DE910460F002";
name = Light;
paths = (
{
closed = 1;
nodes = (
"83 463 LINE SMOOTH",
"83 470 OFFCURVE",
"87 473 OFFCURVE",
"94 473 CURVE SMOOTH",
"101 473 OFFCURVE",
"105 470 OFFCURVE",
"105 463 CURVE SMOOTH",
"105 0 LINE SMOOTH",
"105 -7 OFFCURVE",
"101 -11 OFFCURVE",
"94 -11 CURVE SMOOTH",
"87 -11 OFFCURVE",
"83 -7 OFFCURVE",
"83 0 CURVE SMOOTH"
);
}
);
width = 187;
}
);
unicode = 0131;
},
{
glyphname = circumflex;
layers = (
{
layerId = "D726C5A3-D46C-4129-9A2C-DE910460F002";
name = Light;
paths = (
{
closed = 1;
nodes = (
"53 502 LINE",
"44 493 OFFCURVE",
"28 506 OFFCURVE",
"36 517 CURVE",
"163 658 LINE",
"180 658 LINE",
"310 517 LINE",
"319 506 OFFCURVE",
"303 491 OFFCURVE",
"294 502 CURVE",
"172 634 LINE"
);
}
);
width = 355;
}
);
unicode = 02C6;
},
{
glyphname = tilde;
layers = (
{
layerId = "D726C5A3-D46C-4129-9A2C-DE910460F002";
name = Light;
paths = (
{
closed = 1;
nodes = (
"70 500 OFFCURVE",
"66 496 OFFCURVE",
"59 496 CURVE SMOOTH",
"52 496 OFFCURVE",
"48 500 OFFCURVE",
"48 507 CURVE SMOOTH",
"48 579 OFFCURVE",
"85 659 OFFCURVE",
"156 659 CURVE SMOOTH",
"187 659 OFFCURVE",
"216 635 OFFCURVE",
"242 587 CURVE SMOOTH",
"267 539 OFFCURVE",
"289 516 OFFCURVE",
"308 518 CURVE",
"360 518 OFFCURVE",
"400 591 OFFCURVE",
"400 651 CURVE SMOOTH",
"400 658 OFFCURVE",
"404 662 OFFCURVE",
"411 662 CURVE SMOOTH",
"418 662 OFFCURVE",
"422 658 OFFCURVE",
"422 651 CURVE SMOOTH",
"422 580 OFFCURVE",
"380 496 OFFCURVE",
"308 496 CURVE SMOOTH",
"275 496 OFFCURVE",
"247 520 OFFCURVE",
"223 569 CURVE SMOOTH",
"198 617 OFFCURVE",
"176 640 OFFCURVE",
"156 637 CURVE",
"107 637 OFFCURVE",
"70 567 OFFCURVE",
"70 507 CURVE SMOOTH"
);
}
);
width = 470;
}
);
unicode = 02DC;
},
{
glyphname = macron;
layers = (
{
layerId = "D726C5A3-D46C-4129-9A2C-DE910460F002";
name = Light;
paths = (
{
closed = 1;
nodes = (
"40 548 LINE",
"32 548 OFFCURVE",
"28 552 OFFCURVE",
"28 561 CURVE SMOOTH",
"28 568 OFFCURVE",
"31 571 OFFCURVE",
"38 571 CURVE",
"307 587 LINE",
"314 587 OFFCURVE",
"318 583 OFFCURVE",
"318 575 CURVE SMOOTH",
"318 568 OFFCURVE",
"315 565 OFFCURVE",
"308 565 CURVE"
);
}
);
width = 360;
}
);
unicode = 00AF;
},
{
glyphname = breve;
layers = (
{
layerId = "D726C5A3-D46C-4129-9A2C-DE910460F002";
name = Light;
paths = (
{
closed = 1;
nodes = (
"42 645 OFFCURVE",
"46 649 OFFCURVE",
"53 649 CURVE SMOOTH",
"60 649 OFFCURVE",
"64 645 OFFCURVE",
"64 638 CURVE SMOOTH",
"64 586 OFFCURVE",
"120 521 OFFCURVE",
"183 521 CURVE SMOOTH",
"248 521 OFFCURVE",
"313 602 OFFCURVE",
"313 655 CURVE SMOOTH",
"313 662 OFFCURVE",
"317 665 OFFCURVE",
"324 665 CURVE SMOOTH",
"331 665 OFFCURVE",
"335 662 OFFCURVE",
"335 655 CURVE SMOOTH",
"335 588 OFFCURVE",
"264 499 OFFCURVE",
"183 499 CURVE SMOOTH",
"106 499 OFFCURVE",
"42 573 OFFCURVE",
"42 638 CURVE SMOOTH"
);
}
);
width = 374;
}
);
unicode = 02D8;
},
{
glyphname = dotaccent;
lastChange = "2014-02-11 18:39:38 -0800";
layers = (
{
layerId = "D726C5A3-D46C-4129-9A2C-DE910460F002";
name = Light;
paths = (
{
closed = 1;
nodes = (
"49 596 OFFCURVE",
"61 609 OFFCURVE",
"78 609 CURVE SMOOTH",
"91 609 OFFCURVE",
"102 593 OFFCURVE",
"102 576 CURVE SMOOTH",
"102 560 OFFCURVE",
"88 548 OFFCURVE",
"74 548 CURVE SMOOTH",
"60 548 OFFCURVE",
"49 562 OFFCURVE",
"49 580 CURVE SMOOTH"
);
}
);
width = 145;
}
);
unicode = 02D9;
},
{
glyphname = ring;
layers = (
{
layerId = "D726C5A3-D46C-4129-9A2C-DE910460F002";
name = Light;
paths = (
{
closed = 1;
nodes = (
"179 502 OFFCURVE",
"151 490 OFFCURVE",
"118 490 CURVE SMOOTH",
"73 490 OFFCURVE",
"43 520 OFFCURVE",
"32 545 CURVE",
"27 558 OFFCURVE",
"24 571 OFFCURVE",
"24 586 CURVE SMOOTH",
"24 659 OFFCURVE",
"87 711 OFFCURVE",
"146 711 CURVE SMOOTH",
"195 711 OFFCURVE",
"242 669 OFFCURVE",
"242 613 CURVE SMOOTH",
"242 580 OFFCURVE",
"229 551 OFFCURVE",
"204 527 CURVE SMOOTH"
);
},
{
closed = 1;
nodes = (
"210 563 OFFCURVE",
"220 587 OFFCURVE",
"220 615 CURVE SMOOTH",
"220 658 OFFCURVE",
"188 688 OFFCURVE",
"145 688 CURVE SMOOTH",
"96 688 OFFCURVE",
"46 650 OFFCURVE",
"46 587 CURVE SMOOTH",
"46 538 OFFCURVE",
"82 512 OFFCURVE",
"119 512 CURVE SMOOTH",
"146 512 OFFCURVE",
"169 522 OFFCURVE",
"189 542 CURVE SMOOTH"
);
}
);
width = 273;
}
);
unicode = 02DA;
},
{
glyphname = hungarumlaut;
layers = (
{
layerId = "D726C5A3-D46C-4129-9A2C-DE910460F002";
name = Light;
paths = (
{
closed = 1;
nodes = (
"367 656 LINE SMOOTH",
"374 663 OFFCURVE",
"385 657 OFFCURVE",
"385 649 CURVE SMOOTH",
"385 646 OFFCURVE",
"384 643 OFFCURVE",
"381 641 CURVE",
"240 500 LINE",
"238 497 OFFCURVE",
"235 496 OFFCURVE",
"232 496 CURVE SMOOTH",
"225 496 OFFCURVE",
"222 499 OFFCURVE",
"222 506 CURVE SMOOTH",
"222 509 OFFCURVE",
"223 512 OFFCURVE",
"225 514 CURVE SMOOTH"
);
},
{
closed = 1;
nodes = (
"214 656 LINE SMOOTH",
"222 664 OFFCURVE",
"232 657 OFFCURVE",
"232 648 CURVE SMOOTH",
"232 645 OFFCURVE",
"231 643 OFFCURVE",
"229 641 CURVE SMOOTH",
"88 500 LINE",
"86 497 OFFCURVE",
"83 496 OFFCURVE",
"80 496 CURVE SMOOTH",
"73 496 OFFCURVE",
"70 499 OFFCURVE",
"70 506 CURVE SMOOTH",
"70 509 OFFCURVE",
"71 512 OFFCURVE",
"73 514 CURVE SMOOTH"
);
}
);
width = 431;
}
);
unicode = 02BA;
},
{
glyphname = caron;
layers = (
{
layerId = "D726C5A3-D46C-4129-9A2C-DE910460F002";
name = Light;
paths = (
{
closed = 1;
nodes = (
"33 641 LINE",
"24 652 OFFCURVE",
"41 667 OFFCURVE",
"50 656 CURVE",
"172 526 LINE",
"291 658 LINE",
"293 661 OFFCURVE",
"295 662 OFFCURVE",
"298 662 CURVE SMOOTH",
"306 662 OFFCURVE",
"314 651 OFFCURVE",
"307 644 CURVE",
"180 502 LINE",
"163 502 LINE"
);
}
